<svg width="30" height="30" viewBox="0 0 30 30" fill="none" xmlns="http://www.w3.org/2000/svg">
<path fill-rule="evenodd" clip-rule="evenodd" d="M15.779 26.5697C15.396 26.9603 15.0105 27.3535 14.625 27.75C14.2395 27.3535 13.854 26.9603 13.471 26.5697C9.0724 22.0833 5 17.9296 5 12.9C5 7.43238 9.30926 3 14.625 3C19.9408 3 24.25 7.43238 24.25 12.9C24.25 17.9296 20.1776 22.0833 15.779 26.5697ZM21 12.5C21 15.8138 18.3138 18.5 15 18.5C11.6862 18.5 9 15.8138 9 12.5C9 9.1863 11.6862 6.5 15 6.5C18.3138 6.5 21 9.1863 21 12.5Z" fill="#E29065"/>
<path d="M14.625 27.75L13.6391 28.7085C13.898 28.9748 14.2536 29.125 14.625 29.125C14.9964 29.125 15.352 28.9748 15.6109 28.7085L14.625 27.75ZM15.779 26.5697L14.7972 25.607H14.7972L15.779 26.5697ZM13.471 26.5697L14.4528 25.607L14.4528 25.607L13.471 26.5697ZM15.6109 28.7085C15.994 28.3144 16.3775 27.9233 16.7608 27.5323L14.7972 25.607C14.4145 25.9974 14.027 26.3926 13.6391 26.7915L15.6109 28.7085ZM12.4892 27.5323C12.8725 27.9233 13.256 28.3144 13.6391 28.7085L15.6109 26.7915C15.223 26.3926 14.8355 25.9974 14.4528 25.607L12.4892 27.5323ZM3.625 12.9C3.625 15.8053 4.8057 18.377 6.46157 20.7299C8.10634 23.067 10.31 25.3096 12.4892 27.5323L14.4528 25.607C12.2335 23.3434 10.2016 21.2659 8.71048 19.1472C7.2305 17.0442 6.375 15.0242 6.375 12.9H3.625ZM14.625 1.625C8.51362 1.625 3.625 6.70976 3.625 12.9H6.375C6.375 8.155 10.1049 4.375 14.625 4.375V1.625ZM25.625 12.9C25.625 6.70976 20.7364 1.625 14.625 1.625V4.375C19.1451 4.375 22.875 8.155 22.875 12.9H25.625ZM16.7608 27.5323C18.94 25.3096 21.1437 23.067 22.7884 20.7299C24.4443 18.377 25.625 15.8053 25.625 12.9H22.875C22.875 15.0242 22.0195 17.0442 20.5395 19.1472C19.0484 21.2659 17.0165 23.3434 14.7972 25.607L16.7608 27.5323ZM15 19.875C19.0732 19.875 22.375 16.5732 22.375 12.5H19.625C19.625 15.0544 17.5544 17.125 15 17.125V19.875ZM7.625 12.5C7.625 16.5732 10.9268 19.875 15 19.875V17.125C12.4456 17.125 10.375 15.0544 10.375 12.5H7.625ZM15 5.125C10.9268 5.125 7.625 8.42692 7.625 12.5H10.375C10.375 9.94568 12.4456 7.875 15 7.875V5.125ZM22.375 12.5C22.375 8.42692 19.0732 5.125 15 5.125V7.875C17.5544 7.875 19.625 9.94568 19.625 12.5H22.375Z" fill="#E29065"/>
</svg>
