<svg width="92" height="150" viewBox="0 0 92 150" fill="none" xmlns="http://www.w3.org/2000/svg">
<g clip-path="url(#clip0_28_5929)">
<path d="M79.97 47.1405C79.724 37.5845 76.4869 30.7154 67.5913 20.8939C67.5202 20.8168 67.4671 20.7249 67.4357 20.6248C67.4043 20.5247 67.3954 20.4189 67.4097 20.315C67.4239 20.2111 67.4609 20.1116 67.518 20.0237C67.5752 19.9357 67.651 19.8615 67.7402 19.8063C69.2501 18.8881 70.3813 17.4595 70.9287 15.7793C70.9482 15.7178 70.9611 15.6563 70.9773 15.5948C70.9935 15.5333 70.9773 15.53 70.9999 15.4976L71.0485 15.3293L70.9352 15.1934C69.8363 13.8909 68.6133 12.6984 67.2837 11.6325L66.4971 10.9851L66.7496 11.9562C66.8234 12.2433 66.8668 12.5373 66.8791 12.8335C66.9503 14.6398 65.84 16.4267 64.0531 17.3655C61.3436 15.2937 55.7758 13.5618 51.8265 12.704C51.26 10.5287 51.616 8.60905 52.7976 7.43721L53.445 6.78978L52.5451 6.84805C51.0114 6.92374 49.4911 7.17241 48.0131 7.58935L47.8416 7.64115L47.7898 7.80947C47.7898 7.84508 47.7671 7.88069 47.7542 7.9163C47.7412 7.95191 47.7088 8.05226 47.6894 8.12348C47.3659 9.44627 47.3559 10.8264 47.6603 12.1537C47.6842 12.2584 47.6841 12.3672 47.6601 12.4719C47.636 12.5766 47.5886 12.6745 47.5213 12.7582C47.4541 12.842 47.3687 12.9094 47.2717 12.9556C47.1747 13.0017 47.0685 13.0252 46.9611 13.0245C40.3606 13.0245 29.0986 15.0833 25.0166 16.417C24.9444 16.4404 24.8691 16.4524 24.7932 16.4526C24.6401 16.4531 24.491 16.403 24.3692 16.3102C24.2773 16.2429 24.2029 16.1546 24.1522 16.0526C24.1015 15.9507 24.076 15.8381 24.0778 15.7242C24.0515 14.2626 23.5694 12.8457 22.6988 11.6714C22.6729 11.6325 22.6438 11.5969 22.6147 11.5613L22.5661 11.4998L22.4528 11.3477L22.2618 11.3671C20.7908 11.5322 19.3321 11.7928 17.8949 12.1472L17.0015 12.3641L17.827 12.7752C19.7692 13.7464 20.2516 16.1386 20.3616 17.4788C17.814 18.5697 12.2688 23.0887 10.1485 25.5424C9.2528 25.5014 8.39275 25.1795 7.69029 24.6223C6.98782 24.0651 6.47859 23.3009 6.23481 22.438C6.01024 21.6701 5.95828 20.8621 6.08267 20.0717L6.27042 18.8157L5.48704 19.816C4.33684 21.3016 3.34622 22.9042 2.53154 24.5972L2.46032 24.772L2.53478 24.9209C2.58657 25.0245 2.63836 25.1216 2.68692 25.209C3.75193 27.0995 5.54854 28.5497 7.37427 28.99C7.48014 29.0151 7.57887 29.0641 7.66297 29.1331C7.74706 29.2022 7.81429 29.2895 7.85955 29.3884C7.90481 29.4874 7.9269 29.5954 7.92415 29.7041C7.9214 29.8129 7.89387 29.9196 7.84366 30.0161C6.62974 32.3663 0.683143 44.6479 2.83583 55.7157V55.7416C4.52885 61.9471 7.17034 66.1619 11.1455 68.9976C15.1207 71.8333 20.6141 73.29 27.9235 73.4325H27.9624H27.998C28.0464 73.4277 28.0952 73.4277 28.1437 73.4325C28.2059 73.432 28.2679 73.4396 28.3282 73.4551H28.367H28.4059H29.2151H30.374H30.4194H30.5197H30.6233C33.5141 73.4001 36.6185 73.1767 40.1145 72.7786C45.4772 72.2111 50.7951 71.2799 56.0315 69.9914H56.0509H56.0703C56.1208 69.9729 56.1728 69.9588 56.2257 69.9493H56.2613C57.2163 69.7 58.1486 69.4378 59.0355 69.1692H59.0647H59.0906C59.1686 69.1304 59.2531 69.1063 59.3398 69.0979H59.3722H59.4013C66.3158 66.9582 71.3269 64.1646 74.7194 60.5487C78.1119 56.9328 79.8243 52.5951 79.9733 47.2538V47.2344L79.97 47.1405ZM73.5767 46.6355C71.9581 49.9795 68.6919 52.0642 64.5904 52.3588C64.3671 52.375 64.1405 52.3814 63.9203 52.3814C61.2076 52.3814 59.4175 51.2225 57.3458 49.8824C54.5036 48.0437 51.2826 45.9622 44.7436 45.9622C43.6495 45.9622 42.4776 46.0205 41.2605 46.1403H41.2443C34.7474 47.1308 31.3193 50.2093 27.3441 53.7702C26.2176 54.7834 25.049 55.829 23.7574 56.8713C21.7637 58.5574 19.2465 59.4991 16.6357 59.5355C13.7223 59.5355 10.9351 58.2406 9.34245 56.1883C6.07943 51.6563 6.23481 41.2166 9.66616 34.7197C12.4339 30.2071 15.1175 27.3196 18.6362 25.0666C22.8672 22.3571 28.435 20.5346 36.1555 19.2851C39.6807 18.6398 43.2545 18.2965 46.8381 18.2589C52.516 18.2589 57.1807 19.3757 61.0976 21.6708C64.6584 23.7555 67.8017 26.8988 70.9902 31.5603C74.6708 36.9242 75.6193 42.4176 73.5767 46.6355ZM32.2419 59.024C33.4659 57.2947 34.7877 55.6368 36.2009 54.0583L36.4825 53.754C36.667 53.5565 36.8386 53.3688 37.0231 53.1907L37.1947 53.0159C37.4213 52.7893 37.6349 52.5757 37.8421 52.3685C38.1496 52.0804 38.4053 51.8505 38.6708 51.6434C38.9229 51.425 39.1877 51.2218 39.4639 51.0348C39.6903 50.8629 39.9307 50.7102 40.1825 50.5784L40.3573 50.4812C40.4963 50.3921 40.6451 50.3193 40.8008 50.2644L41.6295 50.0216H41.6781H41.7299H41.7881C41.9058 49.9936 42.0265 49.9805 42.1475 49.9827H42.4712C42.6606 49.9826 42.8498 49.9945 43.0377 50.0183H43.0603C43.3397 50.0434 43.6168 50.0899 43.889 50.1575L44.0703 50.1931C45.3652 50.5169 47.0129 51.1902 49.0004 52.239C50.6935 53.1422 52.3088 54.1165 53.5324 54.8611L55.5427 56.1171C55.6105 56.1592 55.6588 56.2264 55.677 56.3041C55.6952 56.3818 55.6818 56.4636 55.6398 56.5314C55.6123 56.5752 55.5741 56.6113 55.5288 56.6362C55.4835 56.6611 55.4325 56.6741 55.3808 56.6739C55.3308 56.6737 55.2816 56.6603 55.2384 56.635L53.1699 55.4891C52.6196 55.1913 51.7811 54.7348 50.8165 54.2395L49.7094 53.6698L50.3795 54.7186C50.7408 55.2798 51.0189 55.8904 51.2049 56.5314C51.4241 57.2858 51.4709 58.0797 51.342 58.8546C51.2132 59.6295 50.9119 60.3655 50.4604 61.0084C49.1655 62.9506 46.7571 64.2455 43.8631 64.5886C43.5214 64.6272 43.1777 64.6467 42.8337 64.6469C42.4842 64.6469 42.135 64.6253 41.7881 64.5822C37.7871 64.0707 35.8351 60.8239 35.7768 58.7942C35.7665 58.0427 35.8646 57.2937 36.0681 56.5703L36.421 55.2754L35.4984 56.2466C34.9999 56.7774 34.4949 57.3375 33.9996 57.9137C33.3522 58.6841 32.8796 59.2506 32.7566 59.4092C32.7271 59.4465 32.6898 59.4769 32.6473 59.4982C32.6047 59.5194 32.5581 59.5311 32.5105 59.5322C32.4423 59.5333 32.3759 59.5104 32.3228 59.4675C32.2543 59.4186 32.2075 59.3449 32.1924 59.2622C32.1773 59.1794 32.1951 59.094 32.2419 59.024Z" fill="#EF902E"/>
<path d="M20.3066 17.223C20.1674 15.9282 19.6592 13.6622 17.7493 12.7558C17.2015 12.5079 16.6057 12.3841 16.0044 12.3933C14.1787 12.3933 11.8771 13.3482 9.17088 15.229C6.14417 17.5662 5.71686 20.5702 6.25746 22.4316C6.49133 23.2547 6.96857 23.9879 7.62656 24.535C8.28455 25.0821 9.09256 25.4174 9.94455 25.4971L10.1194 25.5198L10.2359 25.3871C12.3756 22.9787 17.4579 18.806 20.1156 17.5532L20.3325 17.4496L20.3066 17.223Z" fill="#F3848B"/>
<path d="M66.85 12.8464C66.7626 10.6322 64.9433 8.63814 61.7288 7.22351C60.1037 6.58657 58.3814 6.23292 56.6368 6.17792C55.0571 6.17792 53.8141 6.58256 52.94 7.37889C51.7197 8.48599 51.3215 10.357 51.8135 12.5097L51.8621 12.7137L52.0693 12.759C55.834 13.5942 61.1882 15.271 63.8977 17.2456L64.0758 17.3751L64.2667 17.2618C65.908 16.268 66.9179 14.5815 66.85 12.8464Z" fill="#F3848B"/>
<ellipse cx="20.8333" cy="43.5185" rx="7.87037" ry="10.1852" fill="white"/>
<path d="M26.3406 35.8268C25.1526 33.6385 23.4078 32.5087 21.1612 32.4666C18.8628 32.4666 16.8202 33.5511 15.2502 35.6034C13.1234 38.3841 12.2526 42.6021 13.1364 45.8618L13.2691 46.3507L13.6673 46.0269L26.1885 36.2832H26.2208L26.5154 36.1246L26.3406 35.8268Z" fill="#EF902E"/>
<ellipse cx="59.7222" cy="36.1111" rx="7.87037" ry="10.1852" fill="white"/>
<path d="M67.3905 37.7496C67.1639 31.3466 61.9813 26.8826 57.472 26.8826C56.8837 26.8808 56.2983 26.9637 55.7337 27.1286H55.7175H55.698C54.6839 27.5382 53.7869 28.1924 53.0871 29.0328C52.3873 29.8733 51.9063 30.874 51.6872 31.9455L51.5739 32.4278L52.0628 32.3566H52.0822L66.9373 38.0669L67.41 38.2482L67.3905 37.7496Z" fill="#EF902E"/>
<path d="M47.3592 73.1864C45.0933 73.5587 42.7075 73.8889 40.2732 74.1576C39.0366 74.3 37.7741 74.4198 36.2947 74.5395L35.6926 74.5881L36.0487 75.0737C37.4083 76.9253 39.6096 79.4503 40.9692 80.4667L41.186 80.6286L41.39 80.4505C43.1154 78.9517 45.7569 75.9671 47.67 73.727L48.2656 73.0278L47.3592 73.1864Z" fill="#EF902E"/>
<path d="M66.782 72.1473C66.2155 71.9531 65.6846 71.7783 65.199 71.6294L64.7005 71.4772C64.1113 71.3024 63.5578 71.1535 63.0496 71.0305L62.8845 70.9917L62.4248 70.8784C61.9748 70.7813 61.5508 70.7068 61.1526 70.6485L60.3919 70.5579C60.0682 70.5288 59.7639 70.5126 59.4402 70.5029H59.3949H59.3528C58.7701 70.6809 58.168 70.859 57.5691 71.0241L57.2648 71.1082L57.3976 71.3963L57.4299 71.4643L57.4526 71.5064L57.7763 72.1538C58.1 72.7106 58.5014 73.358 59.0032 74.0961L59.0291 74.1285L59.0614 74.1544C59.8358 74.7376 60.7419 75.1211 61.6997 75.2712C61.9907 75.3196 62.2852 75.3445 62.5802 75.3456C63.2973 75.3476 64.0059 75.1907 64.6552 74.8862C65.3045 74.5817 65.8782 74.1372 66.3353 73.5846C66.5845 73.2523 66.7871 72.8874 66.9374 72.5002L67.0442 72.2347L66.782 72.1473Z" fill="#7ACABB"/>
<path d="M34.2748 82.5385L34.2068 82.4446L34.0935 82.4252C33.0706 82.273 32.2321 82.1533 31.6074 82.0788L31.4099 82.0529C31.125 82.0205 30.9017 81.9979 30.7236 81.9849C30.5823 81.9744 30.4464 81.9258 30.3306 81.8441C30.2147 81.7625 30.1231 81.6509 30.0657 81.5214C30.0082 81.3918 29.9869 81.2491 30.0042 81.1084C30.0214 80.9677 30.0765 80.8343 30.1636 80.7225C30.1636 80.7225 30.3708 80.4505 30.6783 80.0556L30.8823 79.7934L30.578 79.651L30.4744 79.6121L30.3708 79.6542C29.2184 80.1398 28.176 80.5379 27.1887 80.8649L26.6481 81.0429C26.0007 81.2436 25.4763 81.3893 24.9745 81.5058C24.9171 81.5187 24.8585 81.5252 24.7997 81.5253C24.6789 81.5247 24.56 81.4947 24.4533 81.4379L24.0811 80.2919L24.2947 80.0945V80.0783L24.3109 80.0556C24.6508 79.5927 25.1946 78.9032 25.7579 78.2104L25.9715 77.945L25.6673 77.7961C25.5151 77.7249 25.3694 77.6504 25.2302 77.576L25.0684 77.4886L24.926 77.6083C24.3433 78.1198 23.7735 78.6442 23.2394 79.1622L22.974 79.4147C22.4204 79.9617 21.951 80.4441 21.5367 80.8908L21.4784 80.9555V80.9847L20.7436 81.781C20.3843 82.1986 20.0476 82.6129 19.7368 83.0176L19.698 83.0629V83.1212C19.6009 83.5614 19.5135 84.0081 19.4423 84.4516C19.3002 85.1719 19.2416 85.9062 19.2675 86.6399L19.3063 87.0866L19.3581 87.7179L19.7757 87.2388L20.0703 86.9151C20.4279 86.4936 20.9171 86.2051 21.459 86.0961L22.1453 86.0508C22.2754 86.0537 22.4052 86.0656 22.5337 86.0864C22.7182 86.1139 22.8994 86.1606 23.0743 86.2256L23.1132 86.2418L23.1779 86.2676H23.2103L23.7444 86.5363L23.9613 86.7079C24.0357 86.7662 24.107 86.8341 24.1814 86.9021C24.6776 87.3824 24.999 88.0148 25.0943 88.6987V88.812V88.8379C25.1163 89.0532 25.1163 89.2701 25.0943 89.4853C25.0199 90.1037 24.7578 90.6844 24.3433 91.1492L24.3012 91.1946L24.285 91.2593C24.1523 91.7481 24.0325 92.2142 23.916 92.6642L23.8286 93.0106C23.6829 93.5835 23.5469 94.1468 23.4207 94.6874L23.3754 94.8978L23.5664 94.9917C24.0989 95.2526 24.6673 95.4326 25.2529 95.5258C25.5436 95.577 25.8382 95.6029 26.1334 95.6035C27.2816 95.6468 28.4034 95.2523 29.2718 94.4999C30.1402 93.7475 30.6904 92.6933 30.811 91.5506L31.2351 91.3079C33.3425 91.2172 35.0646 89.3979 35.4207 86.8859C35.5795 85.3457 35.1721 83.8003 34.2748 82.5385Z" fill="#7ACABB"/>
<path d="M50.7582 80.211C50.4345 80.3405 50.0428 80.4959 49.6317 80.6674L49.4537 80.7419C49.1299 80.8779 48.7868 81.0235 48.4307 81.1821L47.1941 81.7454C46.4755 82.0691 45.7601 82.4122 45.0641 82.7521L44.3746 83.0759C43.9505 83.2863 43.5297 83.4999 43.1089 83.7233L42.4906 84.047L43.1639 84.225C43.5912 84.3383 44.0153 84.4646 44.4588 84.607L45.1742 84.853C46.5888 85.3677 47.6214 85.9504 48.2397 86.5784L48.4242 86.7662L48.6703 87.0187L48.8483 86.7111L48.9778 86.4846C49.99 84.619 50.7094 82.6091 51.1111 80.525L51.2114 80.0427L50.7582 80.211Z" fill="#7ACABB"/>
<path d="M36.4501 109.585L36.3789 109.144L36.2786 108.523L35.8998 109.028L35.6311 109.384C35.3947 109.71 35.0827 109.974 34.7219 110.154C34.3611 110.333 33.9622 110.422 33.5594 110.413C33.4513 110.414 33.3432 110.409 33.2357 110.397C33.0512 110.386 32.8687 110.353 32.6918 110.3H32.6465L31.9991 110.057L31.7725 109.905C31.3653 109.63 31.0318 109.258 30.8014 108.824L30.6945 108.62L30.4971 107.973L30.4776 107.875C30.4352 107.653 30.4189 107.426 30.4291 107.199C30.4416 106.8 30.5339 106.407 30.7007 106.044C30.8675 105.681 31.1054 105.355 31.4002 105.085C31.9276 104.617 32.6115 104.364 33.3166 104.376H33.4979C33.5872 104.382 33.6759 104.395 33.7633 104.415L34.2748 104.522L34.9967 104.674L34.5402 104.091L34.2165 103.683C33.0156 102.155 31.5686 101.34 29.8011 101.184C29.6328 101.168 29.4774 101.162 29.309 101.162C28.7071 101.136 28.106 101.229 27.5405 101.437C26.9751 101.645 26.4565 101.963 26.0148 102.373C25.5731 102.783 25.2171 103.276 24.9674 103.824C24.7177 104.373 24.5793 104.965 24.5602 105.567L24.1555 105.839C23.5518 105.923 22.9745 106.142 22.4659 106.478C21.9574 106.814 21.5304 107.259 21.2162 107.782L21.1839 107.833V107.892C20.9428 109.594 20.8055 111.31 20.7728 113.029V113.081L20.7954 113.133C21.404 114.628 22.8801 116.629 26.4442 117.664C26.6837 117.736 26.9589 117.807 27.2632 117.875C30.2672 118.548 32.2904 119.396 33.2745 120.4L33.4493 120.575L33.6953 120.827L33.8734 120.523L33.9964 120.309C34.469 119.497 36.0358 116.483 36.4599 111.796C36.5416 111.061 36.5383 110.319 36.4501 109.585Z" fill="#7ACABB"/>
<path d="M52.9141 96.4128C52.6875 96.3254 52.4156 96.2315 52.1178 96.1409C49.2594 95.2701 47.3301 94.299 46.3913 93.2566L46.2521 93.1012L46.0676 93.1983L45.4202 93.5447L45.3555 93.5771L45.3166 93.6418C44.5837 94.8485 43.9845 96.1315 43.5297 97.4681L43.4585 97.6753L43.6463 97.7886C43.929 97.9621 44.1603 98.208 44.3163 98.5007L44.3778 98.614C44.5671 99.0336 44.5909 99.5092 44.4444 99.9456C44.298 100.382 43.9921 100.747 43.588 100.967L43.4682 101.032C43.2486 101.135 43.011 101.193 42.769 101.204H42.5521L42.5165 101.417V101.453V101.502C42.377 102.223 42.3194 102.958 42.3449 103.693L42.3838 104.137L42.4388 104.768L42.8532 104.289L43.1445 103.965C43.3804 103.686 43.6751 103.462 44.0075 103.31C44.3399 103.158 44.7018 103.081 45.0673 103.085C45.2499 103.084 45.432 103.102 45.6112 103.136C45.7858 103.161 45.9573 103.204 46.1227 103.266H46.1518L46.2003 103.282C46.8336 103.508 47.3719 103.942 47.7283 104.512C47.8053 104.634 47.8734 104.762 47.9322 104.894L48.0326 105.127C48.1056 105.319 48.1513 105.521 48.1685 105.726L48.1847 105.849C48.2074 106.074 48.2074 106.301 48.1847 106.526C48.1847 106.574 48.162 106.626 48.1491 106.684L48.12 106.801C48.0555 107.181 47.9061 107.542 47.6829 107.856L46.9352 108.636C46.4612 108.968 45.895 109.142 45.3166 109.135C45.1748 109.134 45.0331 109.125 44.8925 109.106C44.804 109.091 44.7165 109.072 44.6303 109.047L44.1318 108.905L43.4229 108.701L43.834 109.313L44.1221 109.743C44.2419 109.918 44.3649 110.067 44.4685 110.213L44.53 110.29L44.6239 110.31C44.9476 110.379 45.2468 110.533 45.49 110.758C45.7333 110.982 45.9116 111.268 46.0061 111.585L46.0352 111.679L46.1194 111.734C46.7965 112.158 47.5516 112.442 48.3401 112.569H48.4825H48.5537L49.2886 112.618H49.3112C50.4315 112.632 51.5174 112.23 52.3591 111.491C53.2008 110.751 53.7387 109.726 53.8691 108.614L54.2964 108.371C56.4038 108.28 58.1259 106.464 58.482 103.949C58.5597 103.405 59.0193 98.6755 52.9141 96.4128Z" fill="#7ACABB"/>
<path d="M75.3312 113.851L75.1532 112.789C75.069 112.294 74.9719 111.786 74.8683 111.268L74.632 110.125C74.4475 109.274 74.2371 108.361 74.0008 107.403V107.387L73.7418 106.684L73.7029 106.577C73.5791 106.256 73.5207 105.912 73.5314 105.567V105.535V105.499L73.486 105.325C73.4472 105.173 73.4051 105.024 73.3663 104.871C73.2465 104.425 73.1203 103.975 72.994 103.525L72.8322 102.955C72.6541 102.337 72.4922 101.79 72.3401 101.275L72.298 101.136C72.2203 100.88 72.1394 100.628 72.0617 100.375L72.0423 100.31L71.9775 100.097L71.7542 100.123H71.683C71.6222 100.126 71.5617 100.132 71.5017 100.142C70.9037 100.214 70.3259 100.404 69.8016 100.7C69.2772 100.996 68.8167 101.394 68.4466 101.869C68.0765 102.344 67.8041 102.888 67.645 103.468C67.486 104.049 67.4435 104.656 67.52 105.253L67.1639 105.577C65.1343 106.16 63.8847 108.329 64.1275 110.857C64.1761 111.326 64.7458 115.46 70.0579 116.651L71.2492 116.859L71.3107 116.622L71.2686 116.855H71.3075C71.5567 116.888 71.8416 116.914 72.1491 116.93C72.8289 116.972 73.4763 117.03 74.1205 117.114H74.2176L74.3018 117.062C75.5578 116.243 75.5805 115.454 75.3312 113.851ZM71.2621 116.587V116.451V116.59V116.587Z" fill="#7ACABB"/>
<path d="M64.1567 116.059L63.9171 115.991C62.264 115.551 60.5583 115.339 58.8478 115.363C57.5796 115.364 56.3134 115.462 55.0604 115.657C54.3318 115.751 53.6161 115.927 52.9271 116.182L52.5192 116.357L51.9365 116.609L52.5224 116.852L52.9303 117.027C53.3532 117.201 53.7214 117.486 53.9964 117.852C54.2715 118.218 54.4433 118.65 54.4939 119.105C54.5246 119.289 54.5366 119.475 54.5295 119.662V119.707C54.4928 120.202 54.3574 120.684 54.1313 121.125C53.9767 121.402 53.7777 121.651 53.5421 121.863L53.3544 122.031C53.2051 122.166 53.0345 122.276 52.8494 122.355C52.7703 122.378 52.6942 122.411 52.6228 122.452C52.4459 122.529 52.2615 122.588 52.0725 122.627C51.868 122.669 51.6597 122.689 51.451 122.689C51.3428 122.688 51.2347 122.682 51.1272 122.669L50.755 122.604C50.4037 122.523 50.0695 122.381 49.7677 122.184C49.4539 121.968 49.1867 121.692 48.9821 121.371C48.7774 121.05 48.6394 120.691 48.5764 120.316C48.5625 120.227 48.5538 120.137 48.5505 120.047L48.5278 119.532L48.4987 118.797L48.0455 119.377L47.7218 119.788C46.8577 120.831 46.3556 122.126 46.291 123.478V123.77H46.5791C47.2977 123.741 48.7415 123.643 48.7577 123.643L49.3371 123.598L49.6155 123.579L50.0687 123.543L50.7679 123.478C51.5643 123.401 52.435 123.294 53.4321 123.155L54.837 122.944H54.9017L55.1575 122.902L55.3096 122.876L56.2808 122.721L57.09 122.569L57.3684 122.514L57.854 122.42L58.0223 122.391L58.223 122.352L59.8157 122.028L60.4372 121.895C61.3663 121.695 62.2306 121.5 63.0107 121.316L63.2082 121.271V121.067C63.2341 120.546 63.2729 120.063 63.328 119.633L63.4413 118.869C63.5576 118.108 63.8075 117.374 64.1793 116.7L64.3088 116.489L64.4966 116.188L64.1567 116.059Z" fill="#7ACABB"/>
<path d="M86.1011 78.7446C83.9905 78.2137 82.3525 77.126 81.3652 75.5819C80.7875 74.6564 80.4287 73.6113 80.3164 72.5261L80.2549 71.9434L79.7822 72.293C78.3968 73.3159 77.0663 74.4392 75.8265 75.501L75.6355 75.6628H75.6193C74.7712 76.3847 74.1788 76.8832 73.677 77.2393C73.5705 77.3159 73.4449 77.3617 73.314 77.3718C73.1832 77.3818 73.0521 77.3556 72.9351 77.2961C72.8181 77.2366 72.7198 77.1461 72.6508 77.0345C72.5818 76.9228 72.5449 76.7943 72.544 76.6631V75.7794L71.9678 76.4495C71.5396 76.9556 71.1783 77.5148 70.8931 78.1133C69.7083 80.5541 68.7501 83.6488 68.598 85.0084L68.5688 85.235L68.776 85.3418C69.1265 85.5353 69.4639 85.7516 69.786 85.9893C70.2697 86.3447 70.7818 86.6597 71.3172 86.9313L71.356 86.9507C72.0928 87.2945 72.888 87.4955 73.6997 87.5431C74.059 87.5657 74.3827 87.5787 74.687 87.5787C77.0275 87.5787 78.2964 86.8698 80.6886 84.8789C82.7458 83.2108 84.616 81.3244 86.2662 79.2528L86.5899 78.8482L86.1011 78.7446Z" fill="#EF902E"/>
<path d="M21.964 94.8654L21.9187 94.8234C20.8843 93.5059 19.9298 92.1277 19.0603 90.696L18.8013 90.2655L18.5035 90.6701C15.5871 94.714 12.8858 98.9086 10.4107 103.237C10.3524 103.34 10.2974 103.437 10.2456 103.534L10.1679 103.677L10.0838 103.826L10.155 103.978C10.7009 105.106 11.5332 106.071 12.5687 106.777C13.6041 107.483 14.8067 107.906 16.0562 108.002H16.2213L16.3282 107.882L16.435 107.762L16.6454 107.526C18.5877 105.312 20.0185 103.486 20.3713 102.89L20.4037 102.835V102.774C20.8031 100.212 21.3434 97.6749 22.0223 95.173L22.0708 94.9917L21.964 94.8654Z" fill="#EF902E"/>
<path d="M35.5826 76.8185L35.3139 76.4753L35.0517 76.8249C34.2553 77.8705 33.1094 79.3693 32.4846 80.1689L32.1318 80.6286L32.7048 80.7063C34.8121 80.9976 37.7223 81.4767 39.2696 81.7389L40.4447 81.9364L39.5448 81.153C38.0974 79.8292 36.7714 78.3786 35.5826 76.8185ZM32.9475 77.2134L33.0058 77.1389C33.5173 76.4721 33.977 75.8668 34.3007 75.4556L34.4431 75.2647L34.3104 75.0672L34.2651 75.0024C34.2327 74.9571 34.2003 74.9086 34.1744 74.8665L34.0676 74.7046H33.8734C32.9896 74.7532 32.1221 74.7888 31.3031 74.8115H31.1801L31.0894 74.8924L30.442 75.4621C29.1957 76.5466 27.3117 78.1845 26.4506 79.2431L25.6867 80.1786L26.8229 79.7707C27.7487 79.447 29.2443 78.7834 30.3352 78.3043L31.2772 77.8964C31.9667 77.6019 32.4458 77.4044 32.8796 77.249L32.9475 77.2134ZM48.5311 75.4977L48.2753 75.2355L48.0358 75.5107C46.1291 77.7152 43.5038 80.6189 41.8852 81.9202L42.251 82.4802C44.9996 81.0229 47.8352 79.7364 50.742 78.628L51.2017 78.4629L50.878 78.0907C49.9586 77.0224 48.9357 75.9186 48.5311 75.4977ZM58.2975 75.6855C57.3528 74.4565 56.5492 73.1253 55.902 71.7168L55.7952 71.4448L55.5103 71.5161C53.9403 71.9078 52.2732 72.2768 50.5931 72.6037L50.4733 72.6264L50.3989 72.7203C50.2111 72.9469 49.923 73.2932 49.541 73.7464L49.1979 74.1543L49.7223 74.3C52.1922 74.9474 55.5686 75.7017 57.964 76.2423L58.8284 76.43L58.2975 75.6855Z" fill="#FAFAE6"/>
<path d="M23.5016 88.9156L23.6894 89.2393L23.8027 88.8897L24.2882 87.4265L24.3174 87.3391L24.2591 87.2679C23.8182 86.725 23.1922 86.3641 22.5013 86.2547H22.4366H22.4107L22.1194 86.2158L22.2327 86.4845C22.5985 87.3235 23.0225 88.1358 23.5016 88.9156ZM18.387 85.4357C18.306 85.7173 18.4129 86.1932 18.7107 86.8956L19.0894 87.7794L19.0311 86.8082C18.996 86.0604 19.0372 85.3109 19.1542 84.5714L19.2804 83.72L18.8434 84.4613C18.6538 84.7672 18.5006 85.0942 18.387 85.4357ZM25.7385 77.4691L25.9812 77.576L26.0978 77.6278L26.1755 77.5306C26.5672 77.0613 26.9459 76.6145 27.3085 76.2034L28.3929 74.9604L27.0786 75.9574C26.5995 76.3232 26.1075 76.7214 25.6025 77.1422L25.3986 77.3105L25.6413 77.4238L25.7385 77.4691ZM33.595 121.361L33.773 121.377L34.0967 121.407C35.8577 121.543 37.6317 121.604 38.9524 121.649L40.6228 121.711H40.8202L40.7943 121.513C40.312 117.412 39.3052 110.465 38.8229 107.124L38.6611 106.008C38.059 101.822 37.0878 90.2461 37.0425 85.7821C37.0427 85.719 37.0492 85.6561 37.0619 85.5943V85.5749C37.0815 85.4869 37.1154 85.4027 37.1623 85.3256V85.3062C37.2497 85.167 37.7482 84.3739 38.3891 83.4708L38.5445 83.2506L38.2791 83.2086C37.5475 83.0855 36.4242 82.901 35.2329 82.7133L34.8833 82.6615L35.0614 82.9658C35.7969 84.2088 36.0601 85.6751 35.8027 87.0963C35.479 89.1811 33.9122 91.0877 32.2872 91.3467L31.8113 91.4211L31.3905 91.4891L31.7466 91.7287L32.1447 91.9941C33.3564 92.7813 34.6476 93.4388 35.9969 93.9558C35.22 94.7219 34.7031 95.2399 34.4463 95.5096C33.598 94.2785 32.6438 93.1238 31.5944 92.0589L31.3322 91.8096L31.0959 91.5862L31.0506 91.9099L30.9956 92.2693C30.8724 92.9617 30.5848 93.6144 30.1571 94.1727C29.6617 94.7617 29.0433 95.235 28.3453 95.5593C27.6474 95.8837 26.8868 96.0513 26.1172 96.0502C25.7982 96.0505 25.4798 96.0234 25.1655 95.9693C24.612 95.8758 24.074 95.707 23.5664 95.4676L23.3786 95.3801L23.3333 95.5841C22.77 98.1544 22.4269 100.375 21.9931 103.185V103.279V103.356L22.0481 103.418C22.5923 104.018 23.1774 104.579 23.7994 105.098L24.0843 105.328L24.3336 105.532L24.3562 105.208L24.3821 104.842C24.4534 104.143 24.6909 103.472 25.0749 102.884C25.5597 102.208 26.1981 101.656 26.9376 101.275C27.677 100.893 28.4964 100.692 29.3284 100.689C29.5097 100.689 29.691 100.689 29.8723 100.715C31.9829 100.903 33.6986 102.052 34.9643 104.133C35.1609 104.444 35.3072 104.784 35.398 105.14C35.235 105.027 35.0652 104.925 34.8898 104.833C34.4633 104.617 33.995 104.496 33.5173 104.48H33.3489C32.6736 104.493 32.0265 104.754 31.5297 105.211C31.1361 105.599 30.8602 106.09 30.7337 106.628C30.6071 107.166 30.6351 107.729 30.8144 108.252C30.9937 108.774 31.317 109.236 31.7471 109.583C32.1772 109.93 32.6966 110.148 33.2454 110.213H33.4687C34.6373 110.213 35.7768 109.329 36.2429 108.063C36.2623 108.011 36.2818 107.963 36.298 107.914C36.5246 108.484 36.8515 109.685 36.6994 111.643C36.4687 114.655 35.6621 117.595 34.3233 120.303C34.1734 120.579 34.0001 120.842 33.8054 121.089C33.5745 120.85 33.3291 120.625 33.0705 120.416C31.6786 119.445 30.1021 118.872 27.0365 118.244C24.7528 117.821 22.6904 116.609 21.2097 114.819L20.886 114.414L20.9119 114.932C20.9378 115.421 20.9702 115.904 21.0058 116.457L21.0479 117.104V117.172L21.1029 117.218C24.5699 120.267 29.8755 121.044 33.595 121.361ZM41.0047 123.504C40.9724 123.151 40.9271 122.727 40.8753 122.235L40.8591 122.093H40.7134C40.1534 122.07 39.561 122.048 38.9362 122.028C33.5043 121.84 26.0622 121.581 21.4007 117.94L21.077 117.69L21.1256 118.089C21.2194 118.885 21.4493 119.882 22.4204 120.529C24.3627 121.824 26.7549 122.53 30.701 123.009C34.6114 123.401 37.8226 123.618 40.8299 123.695H41.0177L41.0047 123.504ZM21.7309 104.774V104.842C21.6403 105.422 21.5593 105.953 21.4849 106.461L21.4201 106.911L21.7633 106.61C22.144 106.256 22.6051 106.001 23.1067 105.865L23.5761 105.755L23.9904 105.655L23.6181 105.444L23.2006 105.208C22.851 105.011 22.4431 104.807 21.9834 104.596L21.7827 104.506L21.7471 104.722L21.7309 104.774ZM21.7309 91.9391H21.8021C21.9094 91.9538 22.0175 91.9613 22.1258 91.9617C22.3325 91.9592 22.538 91.9309 22.7376 91.8776L22.8283 91.8549L22.8574 91.7643C23.0808 91.0424 23.2815 90.4047 23.5048 89.754L23.5307 89.6796L23.4887 89.6148C22.8268 88.5886 22.258 87.5053 21.7892 86.3777L21.7341 86.2482L21.5982 86.2741C21.1132 86.3906 20.6609 86.6157 20.2757 86.9326C19.8904 87.2494 19.5822 87.6497 19.3743 88.1031L19.3354 88.1808L19.3775 88.2552C20.0781 89.5059 20.8498 90.7153 21.6888 91.8776L21.7309 91.9391Z" fill="#FAFAE6"/>
<path d="M50.0719 121.795C49.8 119.351 49.4083 116.554 48.8807 113.239L48.858 113.11H48.7253C48.5408 113.094 48.3725 113.074 48.2106 113.045C47.5679 112.937 46.9463 112.729 46.3687 112.427L46.1745 112.323L46.1291 112.54C46.0596 112.879 45.9009 113.193 45.6696 113.449C45.4382 113.706 45.1424 113.897 44.8129 114.001C44.4833 114.105 44.1319 114.12 43.7949 114.043C43.4578 113.966 43.1474 113.801 42.8956 113.564C42.6439 113.327 42.4599 113.027 42.3627 112.696C42.2655 112.364 42.2585 112.012 42.3426 111.677C42.4267 111.342 42.5988 111.035 42.841 110.788C43.0833 110.542 43.387 110.364 43.7207 110.274L43.9441 110.216L43.8211 110.025C43.6657 109.779 43.5232 109.526 43.3905 109.267C43.2187 108.942 43.0975 108.593 43.0312 108.232C43.1607 108.332 43.3161 108.448 43.5168 108.578C43.9267 108.823 44.3851 108.977 44.8602 109.028C44.9758 109.046 45.0927 109.055 45.2098 109.054C45.8217 109.041 46.4132 108.831 46.8963 108.455C47.3496 108.089 47.6731 107.588 47.8189 107.024V106.988V106.95L47.4013 104.489V104.451L47.3787 104.418C46.9335 103.839 46.2838 103.452 45.5626 103.337C45.43 103.315 45.2957 103.304 45.1612 103.305C44.0477 103.305 42.9438 104.085 42.4161 105.247C42.3903 105.299 42.3676 105.347 42.3482 105.393C42.1669 104.807 41.9306 103.586 42.2284 101.644L42.2478 101.534V101.44L42.2737 101.294L42.1313 101.252C41.6775 101.126 41.2851 100.839 41.0271 100.445C40.7692 100.051 40.6632 99.5765 40.7289 99.1101C40.7946 98.6437 41.0276 98.2171 41.3844 97.9097C41.7413 97.6022 42.1977 97.4349 42.6686 97.4389C42.8113 97.4398 42.9535 97.4561 43.0927 97.4875L43.2384 97.5199L43.2869 97.3807C43.7783 95.911 44.4296 94.4998 45.2292 93.1724C45.3296 93.0203 45.4299 92.8843 45.4979 92.7937L45.54 92.7386V92.6707C45.1806 89.9644 44.9184 87.4589 44.7631 85.2253V85.1087L44.653 85.0764C43.9603 84.866 43.1154 84.6588 42.0633 84.4289H42.005L41.95 84.4581C40.762 85.1055 39.7326 85.6914 38.8974 86.2255L38.8165 86.2773V86.3712C38.9233 91.1136 39.8491 101.987 40.3962 105.794L40.558 106.911C41.5292 113.524 42.5262 120.678 42.769 123.585V123.741H43.0927C43.8826 123.741 44.7307 123.724 45.6824 123.695H45.8378V123.504C45.8928 121.86 46.6179 120.322 47.9872 118.937C48.2412 118.669 48.5362 118.444 48.8613 118.27C48.7908 118.456 48.7314 118.646 48.6832 118.84C48.5809 119.307 48.5809 119.79 48.6832 120.257C48.8209 120.947 49.2214 121.555 49.8 121.954L50.1076 122.177L50.0719 121.795ZM43.397 88.0869C43.397 88.471 43.2831 88.8466 43.0697 89.166C42.8562 89.4854 42.5529 89.7343 42.198 89.8813C41.8431 90.0283 41.4526 90.0668 41.0758 89.9918C40.699 89.9169 40.353 89.7319 40.0813 89.4603C39.8097 89.1887 39.6247 88.8426 39.5498 88.4658C39.4748 88.089 39.5133 87.6985 39.6603 87.3436C39.8073 86.9887 40.0563 86.6854 40.3757 86.472C40.6951 86.2585 41.0706 86.1446 41.4547 86.1446C41.9698 86.1446 42.4639 86.3492 42.8281 86.7135C43.1924 87.0777 43.397 87.5718 43.397 88.0869Z" fill="#FAFAE6"/>
<path d="M74.0979 73.4454C74.0203 73.2348 73.8962 73.0445 73.7348 72.8887C73.5733 72.7329 73.3788 72.6155 73.1656 72.5455H73.13H73.0944L72.7513 72.5681C72.1038 72.6135 70.8867 72.7009 69.7213 72.7009C69.1178 72.7065 68.5146 72.6751 67.915 72.607H67.8244L67.7661 72.6782C66.1864 74.5622 64.8106 78.7867 64.7005 82.0885V82.1662L64.762 82.2212C65.4977 82.8587 66.1848 83.5501 66.8176 84.2898L67.0474 84.5617L67.1122 84.2088C67.4715 82.2018 68.5851 79.2269 69.4494 77.4465C70.4723 75.3521 71.9679 73.9633 73.4472 73.7303C73.5897 73.7077 73.7336 73.6958 73.8778 73.6947H73.9393H74.195L74.0979 73.4454ZM50.5867 121.581L50.4216 121.601L50.441 121.766C50.441 121.847 50.441 121.928 50.4669 122.005L50.4863 122.196V122.307L50.5964 122.339C50.8439 122.409 51.0999 122.444 51.3571 122.443C51.5813 122.442 51.8048 122.419 52.0239 122.371C52.629 122.253 53.181 121.946 53.6004 121.494L53.9241 121.148L53.458 121.212C52.448 121.355 51.4801 121.478 50.5867 121.581ZM71.9517 117.351C71.2771 117.319 70.6066 117.228 69.9479 117.079H69.8929L69.8411 117.101C67.8834 117.957 65.8615 118.659 63.7941 119.199L63.6841 119.228V119.345C63.6355 119.795 63.6031 120.28 63.5902 120.827V121.047L63.8038 120.996C68.6304 119.814 70.8964 118.869 72.9843 117.726L73.4958 117.448L72.9163 117.412C72.5991 117.38 72.2883 117.354 71.9549 117.354L71.9517 117.351ZM64.7167 115.949C64.6714 116.039 64.6131 116.143 64.5549 116.253C64.4351 116.473 64.3121 116.703 64.2538 116.849C64.0432 117.399 63.886 117.968 63.7844 118.548L63.7359 118.81L63.9948 118.739C65.6601 118.288 67.2967 117.736 68.8958 117.088L69.307 116.92L68.8861 116.774C67.6743 116.371 66.5597 115.719 65.6134 114.861C64.4444 113.79 63.7463 112.301 63.6711 110.718C63.4898 108.617 64.5775 106.396 66.0925 105.765L66.5392 105.577L66.9341 105.415L66.5327 105.266L66.0795 105.098C64.7157 104.618 63.3052 104.281 61.8713 104.094C62.3051 103.399 62.7906 102.612 63.014 102.22C64.1358 103.218 65.3425 104.116 66.6201 104.904L66.9439 105.085L67.2255 105.244L67.1964 104.92L67.1607 104.557C67.1212 103.856 67.2488 103.154 67.533 102.512C67.9052 101.76 68.4521 101.108 69.128 100.611C69.8039 100.115 70.589 99.7872 71.4176 99.6564H71.4564H71.5082L71.7024 99.6273L71.6442 99.4395C71.1812 97.9957 70.7378 96.6879 70.3169 95.555C68.5915 90.9064 68.161 89.8673 68.0671 89.6602L67.6787 89.0516C66.7075 87.5042 65.3609 85.3839 63.1467 82.2018C62.7097 81.5771 62.5284 80.9782 62.6644 80.8778C62.7053 80.8532 62.7525 80.8408 62.8003 80.8422C63.1758 80.8422 63.8265 81.4022 64.0952 81.6418L64.3509 81.8652L64.3736 81.5414C64.5443 79.2679 65.0947 77.0391 66.0019 74.9474L66.2608 74.3583L65.7461 74.7435C64.829 75.4401 63.7092 75.8175 62.5575 75.8182C62.2376 75.8167 61.9183 75.7897 61.6026 75.7373C61.2307 75.674 60.8647 75.5798 60.5085 75.4557L59.9776 75.2647L60.3207 75.7146C60.6735 76.1808 60.9843 76.5757 61.2918 76.9642C61.3959 77.0944 61.4611 77.2514 61.48 77.417C61.499 77.5826 61.4708 77.7503 61.3988 77.9006C61.3269 78.051 61.214 78.1781 61.0731 78.2672C60.9322 78.3564 60.769 78.404 60.6023 78.4047C60.5414 78.4048 60.4806 78.3983 60.421 78.3852C59.9484 78.2881 55.8049 77.4141 52.0952 76.5304L51.8945 76.4818V76.825L51.9365 76.8735C52.4512 77.4691 52.8624 77.9677 53.1569 78.3529C53.2549 78.4801 53.3163 78.6316 53.3346 78.7911C53.3528 78.9506 53.3273 79.1121 53.2608 79.2582C53.1942 79.4043 53.0891 79.5295 52.9568 79.6204C52.8244 79.7113 52.6698 79.7644 52.5095 79.774C52.1973 79.82 51.8912 79.9003 51.5967 80.0135L51.506 80.0459L51.4866 80.143C51.0786 82.3554 50.3627 84.4998 49.3598 86.5137C49.1984 86.8087 49.0132 87.0902 48.8063 87.3553C48.5602 87.0924 48.2951 86.8478 48.0132 86.6237C47.202 86.0606 46.3147 85.6158 45.3781 85.303L45.1353 85.2188L45.1548 85.4745C45.3102 87.6046 45.5529 89.8997 45.8928 92.4862V92.5412L45.9317 92.58L46.0353 92.6901C46.1835 92.8556 46.3402 93.0133 46.5047 93.1627C47.8189 94.2407 49.3501 94.9237 52.3606 95.7815C54.6242 96.3816 56.6017 97.7649 57.9414 99.6855C58.8313 100.999 59.1642 102.611 58.8672 104.169C58.5435 106.254 56.9768 108.16 55.3517 108.419L54.8759 108.494L54.455 108.562L54.8079 108.801L55.2093 109.067C56.4199 109.856 57.7113 110.513 59.0615 111.028C58.2824 111.797 57.7655 112.315 57.5109 112.582C56.6521 111.352 55.6893 110.197 54.6331 109.131L54.3676 108.882L54.1346 108.659L54.086 108.983L54.0342 109.342C53.911 110.034 53.6235 110.687 53.1958 111.245C52.7261 111.8 52.1469 112.251 51.4947 112.571C50.8424 112.892 50.131 113.074 49.4051 113.107H49.2206L49.2497 113.291C49.7321 116.311 50.0914 118.853 50.3504 121.06L50.3698 121.225L50.5381 121.206C51.6873 121.073 52.8494 120.921 53.9986 120.756L54.0957 120.74L54.1313 120.652C54.3249 120.167 54.3852 119.638 54.3061 119.121C54.1151 117.894 52.9401 116.888 51.506 116.732L51.3474 116.713C51.8459 116.357 52.9303 115.742 54.8694 115.418C56.1744 115.199 57.4955 115.091 58.8187 115.094C60.5086 115.075 62.1949 115.256 63.8427 115.632C64.1435 115.712 64.437 115.819 64.7199 115.949H64.7167ZM55.2837 95.092C54.2608 92.143 51.5287 82.6388 51.5028 82.5482C51.4945 82.5203 51.4928 82.4909 51.4979 82.4622C51.5029 82.4336 51.5146 82.4065 51.5319 82.3831C51.5528 82.3613 51.5779 82.344 51.6058 82.3323C51.6336 82.3206 51.6636 82.3147 51.6938 82.3151C52.694 82.3475 53.9177 82.3669 55.2093 82.3863C57.867 82.4284 60.612 82.4705 62.1011 82.6388C62.1307 82.6419 62.159 82.652 62.1838 82.6683C62.2086 82.6847 62.2291 82.7067 62.2435 82.7327L62.8359 83.8301C64.7976 87.4395 66.3417 90.2882 67.1834 93.9493C67.4488 95.1244 67.3485 96.0211 66.8597 96.6977C66.0439 97.8566 64.27 98.0734 62.6838 98.2677H62.5381C62.4184 98.2677 62.2662 98.2677 62.0946 98.2677C61.5929 98.2968 57.0059 98.2094 55.287 95.092H55.2837Z" fill="#FAFAE6"/>
<path d="M65.9046 94.0464C65.2572 91.1751 64.108 88.7731 62.975 86.601L62.9297 86.5136H62.8326H62.1528H61.7838L62.0201 86.7985C62.3438 87.2064 62.6384 87.5657 62.8909 87.9283C65.3576 91.4891 65.7784 94.7715 63.9397 96.1247C63.4381 96.4725 62.8373 96.6485 62.2273 96.6264C60.1102 96.6264 57.4266 94.9884 55.698 92.6383C54.2542 90.696 53.5421 88.43 53.7881 86.5751L53.814 86.3841H52.0659L52.1274 86.5978C52.9853 89.5112 54.1247 93.3407 54.688 94.969C55.2869 96.0534 56.3551 96.866 57.8669 97.3871C58.9431 97.7413 60.0681 97.9248 61.2011 97.931C61.3435 97.931 61.4763 97.931 61.5928 97.931L61.7255 97.9148C63.2988 97.7206 64.927 97.5231 65.6521 96.4937C66.0633 95.9013 66.1442 95.0985 65.9046 94.0464ZM52.8687 85.9957H53.8981L53.9338 85.8759C54.1081 85.2079 54.5013 84.6175 55.0506 84.1991C55.5742 83.8133 56.2098 83.6098 56.8601 83.6196C57.0662 83.6195 57.272 83.6368 57.4752 83.6714C58.7441 83.8819 60.0972 84.7106 61.3921 86.0669L61.4406 86.1155H61.5119L62.4474 86.1349H62.7323L62.5995 85.8792C62.2758 85.2738 61.9521 84.6555 61.5928 84.0081L61.0975 83.0693L61.0554 82.9916H60.968C59.4433 82.8427 56.708 82.8007 54.2931 82.7618H54.2542C53.1666 82.7456 52.1404 82.7294 51.2437 82.7035H51.0139L51.0786 82.9237C51.2437 83.5064 51.5577 84.5875 51.9365 85.8792L51.9721 86.0022H52.8817L52.8687 85.9957Z" fill="#FAFAE6"/>
<path d="M63.6419 88.0027C62.0234 85.6526 60.0811 84.1409 58.359 83.8528C58.1642 83.8209 57.9672 83.8047 57.7698 83.8042C57.1638 83.796 56.5716 83.9858 56.0833 84.3448C54.2187 85.7173 54.5359 89.4433 56.7728 92.4829C58.4723 94.791 61.0846 96.4031 63.124 96.4031C63.7009 96.4242 64.2689 96.2572 64.7426 95.9272C66.4647 94.6615 66.0148 91.4017 63.6419 88.0027ZM61.5313 90.8287L61.5022 90.8482L61.4795 90.8773C61.3016 91.1125 61.1938 91.3932 61.1686 91.6871C61.1434 91.9809 61.2018 92.2759 61.3371 92.538C61.509 92.9416 61.7742 93.2988 62.1108 93.5803H61.9004C61.4279 93.5694 60.9576 93.5141 60.4955 93.4152C60.0762 93.3261 59.6665 93.1971 59.2718 93.03C59.0472 92.9331 58.8156 92.853 58.5791 92.7904C58.67 92.0675 58.5993 91.3333 58.3719 90.641L58.3492 90.5665C57.7374 88.3006 57.8928 87.4071 58.1324 87.0413C58.1752 86.973 58.233 86.9154 58.3014 86.8727C58.3699 86.8301 58.4471 86.8036 58.5273 86.7953C58.6163 86.7825 58.7061 86.776 58.796 86.7759C59.984 86.7759 60.667 87.9218 60.6735 87.9348L61.1655 88.7732L61.2238 88.3329L61.3145 88.3556C62.0331 88.5369 63.2244 89.6504 63.6581 91.269C63.5109 91.0573 63.3182 90.8812 63.0942 90.7536C62.8701 90.6259 62.6204 90.5498 62.3633 90.5309C62.0638 90.5367 61.7747 90.6414 61.5411 90.8287H61.5313Z" fill="#FFDB2E"/>
<path d="M35.534 131.571H35.5632C40.2343 132.957 42.2187 133.19 45.459 133.19H46.3428L47.5535 133.17H47.9775L47.7639 132.801L47.5211 132.371L47.3981 132.154C45.9058 129.503 44.9443 127.408 44.3681 125.563L44.3131 125.382H43.8081H43.1607C38.931 125.354 34.7055 125.112 30.5003 124.657C28.5653 124.464 26.6545 124.078 24.7965 123.504L24.3595 123.359L24.4728 123.805C25.0749 126.172 25.2367 127.849 24.9907 129.237L24.8418 130.098C24.7285 130.772 24.599 131.529 24.4533 132.212L24.4307 132.322L24.4954 132.41C25.104 133.274 26.2694 134.316 30.2899 135.495C33.6018 136.415 37.0236 136.88 40.4609 136.877C42.0466 136.892 43.6305 136.765 45.1936 136.498L45.3328 136.472L45.3846 136.336C45.5821 135.792 45.7536 135.262 45.909 134.763C46.032 134.381 46.1421 134.038 46.2489 133.747L46.3719 133.407H45.4008C42.1636 133.407 40.1825 133.157 35.479 131.765C35.454 131.757 35.433 131.74 35.4207 131.717C35.4152 131.705 35.4124 131.693 35.4124 131.68C35.4124 131.667 35.4152 131.654 35.4207 131.642C35.4281 131.619 35.4436 131.599 35.4643 131.586C35.4851 131.573 35.5098 131.568 35.534 131.571Z" fill="#DFE1C6"/>
<path d="M51.5999 125.22V124.951L51.3344 124.98C49.1817 125.204 47.0647 125.333 44.8602 125.379H44.5203L44.6271 125.702C45.1007 127.115 45.684 128.489 46.3719 129.81L46.4237 129.914L46.5338 129.943H46.5661C46.9431 130.028 47.3289 130.069 47.7153 130.063C48.8872 130.063 50.8845 129.723 51.2244 129.211C51.5643 128.7 51.6646 126.557 51.5999 125.22Z" fill="#DFE1C6"/>
<path d="M72.6865 119.756C70.0515 121.05 66.7658 122.196 58.5305 123.87C56.3746 124.313 54.2446 124.65 52.0175 124.903L51.7811 124.932V125.165C51.8524 126.783 51.7585 128.758 51.3765 129.331C51.0528 129.82 49.3112 130.267 47.7283 130.267C47.4883 130.267 47.2484 130.255 47.0096 130.231L46.537 130.179L46.7571 130.597C47.0808 131.228 47.4855 131.937 47.9613 132.762V132.782H47.9775L48.0067 132.817C48.0187 132.838 48.0285 132.86 48.0358 132.882C48.0441 132.905 48.0539 132.928 48.0649 132.95V132.966L48.1426 133.106H48.3077C50.8068 132.924 55.5686 132.115 60.1038 130.765H60.1329C60.1543 130.764 60.1753 130.771 60.1924 130.784C60.2095 130.797 60.2216 130.815 60.2268 130.836C60.2308 130.849 60.2323 130.862 60.2312 130.875C60.2301 130.887 60.2264 130.9 60.2203 130.911C60.2143 130.923 60.206 130.933 60.196 130.941C60.186 130.949 60.1745 130.956 60.1621 130.959C57.0923 131.865 53.963 132.555 50.7971 133.025L50.6125 133.05L50.5866 133.235L50.5672 133.358C50.4895 133.886 50.4183 134.387 50.3018 134.863L50.2597 135.022L50.3892 135.122C51.3053 135.831 53.2152 136.585 60.4243 136.796C61.0717 136.815 61.69 136.825 62.2791 136.825C66.9535 136.825 69.9317 136.246 71.6668 135.009L71.7574 134.944V134.831C71.9063 133.513 72.0811 131.846 72.2495 130.011C72.612 126.065 72.8969 122.209 72.9908 119.95L73.0102 119.526L72.6865 119.756Z" fill="#DFE1C6"/>
<path d="M44.8213 136.757C43.3893 136.978 41.9422 137.086 40.4933 137.081C37.0306 137.086 33.5834 136.618 30.2478 135.689C27.2923 134.825 25.6349 134.009 24.6961 132.963L24.3724 132.617L24.2526 133.067C24.1186 133.635 23.9004 134.181 23.6052 134.685C23.3074 135.284 23.3171 135.656 24.1329 136.349C25.0049 136.953 25.953 137.438 26.9524 137.793H26.9848C27.04 137.808 27.0933 137.83 27.1434 137.858C30.6492 139.195 36.3336 140.548 40.4156 140.548C40.5796 140.548 40.7415 140.548 40.9012 140.548H40.9821L41.3964 140.509C42.5424 140.409 43.1769 140.354 44.2548 138.686C44.5804 138.174 44.8579 137.632 45.0835 137.068L45.2583 136.65L44.8213 136.757Z" fill="#DFE1C6"/>
<path d="M71.3334 135.527C69.54 136.56 66.5813 137.065 62.2889 137.065C61.7127 137.065 61.1008 137.065 60.4761 137.035C54.973 136.877 51.9106 136.388 50.5154 135.469L50.2532 135.297L50.1399 135.585C50.0519 135.802 49.9435 136.01 49.8162 136.207L49.7806 136.268V136.336C49.7806 136.893 50.428 138.162 51.2503 138.618C54.0439 140.007 59.4985 141.046 63.9527 141.046C66.3029 141.046 68.2549 140.774 69.7504 140.24C70.3979 140.007 70.932 139.677 71.3917 137.799C71.4661 137.476 71.5697 136.812 71.6992 135.776L71.7607 135.274L71.3334 135.527Z" fill="#DFE1C6"/>
<path d="M36.667 141.807C33.5846 141.38 30.5497 140.661 27.6031 139.661L27.2794 139.541L27.1822 139.887L26.92 140.833L26.8682 141.017V141.056C26.5931 142.053 26.3535 142.914 26.1561 143.646L26.1367 143.73V143.775L26.0719 144.024L26.292 144.154C27.2049 144.678 29.0468 145.242 31.4714 145.242C33.0571 145.236 34.6337 145.002 36.1523 144.546L36.3336 144.491L36.3789 144.306L36.408 144.19L36.4437 144.054C36.5893 143.503 36.7674 142.885 36.9454 142.221L37.049 141.849L36.667 141.807Z" fill="#EF902E"/>
<path d="M61.5767 142.5L61.1073 142.461C58.1267 142.232 55.185 141.641 52.3476 140.7L51.9527 140.561L51.9042 140.978C51.7747 142.102 51.6905 142.995 51.6387 143.791C51.6387 143.84 51.6387 143.882 51.6387 143.927V144.031V144.235L51.8135 144.342C53.021 145.06 55.5524 145.527 58.2651 145.527C59.0663 145.527 59.8669 145.486 60.6638 145.404L60.9875 145.368L60.9616 145.044C60.9234 144.315 61.0657 143.588 61.376 142.927L61.5767 142.5Z" fill="#EF902E"/>
<path d="M58.0547 90.7316C58.3208 91.4914 58.3635 92.3115 58.1777 93.0947C58.66 93.0235 59.4078 93.5544 60.4437 93.7422C61.3946 93.9723 62.3867 93.9723 63.3377 93.7422C62.059 93.6483 61.0458 91.91 61.745 91.091C62.6611 90.3917 63.5772 91.3338 64.1566 92.8261C64.325 90.2008 62.4442 88.2941 61.4083 88.0286C61.324 87.4078 61.324 86.7784 61.4083 86.1576C61.4083 86.1576 60.8289 85.7141 60.4372 85.4487C60.4372 85.4487 61.0393 87.2323 60.9681 87.7632C60.9681 87.7632 60.0746 86.2385 58.482 86.4683C56.8893 86.6982 57.8863 90.1069 58.0547 90.7316ZM47.6959 135.32C47.848 134.844 48.0196 134.258 48.1393 134.051C48.162 134.028 48.175 133.999 48.1944 133.976L48.667 133.934C48.6146 134.398 48.4716 134.847 48.2462 135.255C48.0863 135.52 47.9849 135.817 47.9486 136.124C47.9123 136.432 47.942 136.744 48.0358 137.039C48.3752 138.3 49.152 139.399 50.2273 140.14C50.0751 141.373 49.9521 142.568 49.8809 143.678C49.8259 144.497 49.8 145.255 49.8 145.993C49.8 147.372 50.4215 149.133 53.3608 149.68C54.6665 149.893 55.9872 150.001 57.3101 150.003C58.8672 150.003 60.5117 149.835 61.5831 149.275C63.684 148.265 62.9459 145.795 62.7064 144.983C62.5899 144.594 62.9362 143.688 63.3765 142.911H63.8912C66.2705 142.911 68.5429 142.639 70.3654 141.982C71.8642 141.441 72.6541 140.392 73.1785 138.24C73.431 137.217 73.8 133.679 74.0428 131.147C83.8416 129.93 89.6069 124.945 89.8724 117.399C90.0116 113.466 88.7685 110.093 86.2792 107.652C83.5503 104.975 79.4197 103.509 74.8748 103.57C74.0137 100.459 73.0199 97.3289 72.1103 94.8719C71.042 91.9876 70.4593 90.4597 70.1324 89.6407C70.3849 89.453 70.6503 89.2296 70.9611 88.9706L71.1521 88.8088C71.9283 89.104 72.7446 89.2808 73.5734 89.3332C73.9425 89.3559 74.2888 89.3688 74.6223 89.3688C77.5713 89.3688 79.2611 88.3977 81.8087 86.2676C84.1763 84.3505 86.3053 82.1563 88.1502 79.7319C88.6002 79.1557 88.9919 78.6216 89.3512 78.136C89.7558 77.5824 90.1054 77.1066 90.4356 76.7052C92.4038 74.3032 92.4426 71.7977 90.5522 69.658C88.3898 67.201 86.6029 66.8967 82.8996 68.3631C81.7792 68.8422 80.7135 69.4402 79.7207 70.1468C78.4259 71.0337 77.131 72.0696 75.9754 73.0375C75.8114 72.4717 75.507 71.9565 75.0904 71.54C74.6738 71.1234 74.1587 70.819 73.5929 70.655C73.4806 70.615 73.3624 70.5942 73.2432 70.5935C73.1526 70.5935 72.9195 70.6097 72.5958 70.6323C71.6247 70.7003 69.4429 70.8557 68.1318 70.6841C66.3223 70.0367 64.8947 69.6029 63.6905 69.3051C75.6096 64.6437 81.4364 57.3893 81.7213 47.1567C81.4461 36.1019 77.1181 28.9349 69.6889 20.5832C71.0549 19.4765 72.0676 17.9946 72.6023 16.3199C74.1011 11.6228 71.7768 5.00936 63.0916 1.58125C58.4981 -0.089108 54.1313 -0.0373145 50.7906 1.69778C49.6025 2.30156 48.5556 3.1499 47.7187 4.18707C46.8818 5.22424 46.2739 6.42675 45.9349 7.7156C45.6387 8.88898 45.5543 10.1058 45.6856 11.3088C39.4315 11.4998 30.3643 13.1184 25.7255 14.3873C25.477 13.0515 24.9389 11.7864 24.149 10.6808C21.4201 6.8351 15.3117 4.27453 6.99227 9.74851C-2.78384 17.1551 0.0292147 24.1052 1.12336 26.0604C2.16567 27.9154 3.77256 29.3897 5.71037 30.2686C3.78751 34.2827 -0.961344 45.6353 1.08452 56.0685L1.10394 56.143C4.37667 68.1948 11.4627 74.0702 25.0781 75.0348C21.1158 78.1975 17.3673 82.3993 16.6616 84.6717C16.3573 85.6655 16.8525 87.2129 17.6327 88.8315C14.4388 93.1662 11.4999 97.6831 8.83095 102.359C7.59761 104.548 6.80775 106.182 6.47757 107.215C6.46595 107.25 6.45622 107.286 6.44843 107.322C6.18299 108.487 6.22831 110.07 8.97663 111.99C10.1064 112.78 11.0678 113.168 11.9969 113.168C12.842 113.139 13.6593 112.859 14.3438 112.362C14.9491 111.961 16.1663 110.724 17.9564 108.685C18.4258 108.154 18.9275 107.571 19.4099 106.988C18.7333 111.906 18.8563 113.751 19.0441 116.561L19.1121 117.6C19.1833 118.629 19.3257 120.775 21.323 122.106C21.6144 122.3 21.9154 122.481 22.2262 122.653C22.8542 124.822 23.4466 127.185 23.1488 128.888L22.9966 129.762C22.7474 131.244 22.4333 133.083 22.0255 133.662C21.9915 133.713 21.9612 133.766 21.9348 133.821C21.637 134.413 20.8439 135.993 22.9383 137.786C23.734 138.354 24.5934 138.827 25.4989 139.195C25.3727 139.658 25.2464 140.107 25.1299 140.525C24.8482 141.548 24.6022 142.429 24.4048 143.176C24.081 144.384 23.9192 145.089 23.8285 145.62C23.7528 146.15 23.7879 146.689 23.9317 147.204C24.0754 147.719 24.3247 148.198 24.6637 148.611C25.0026 149.024 25.4284 149.357 25.9107 149.587C26.3931 149.816 26.92 149.936 27.4541 149.939C27.7002 149.939 27.9785 149.939 28.2764 149.939C30.4129 149.939 33.6824 149.744 35.398 149.291C36.8483 148.844 37.3403 147.789 37.7385 145.989C37.8421 145.526 37.9715 144.999 38.1075 144.474C38.3212 143.662 38.5445 142.856 38.6967 142.328C39.3441 142.373 39.943 142.406 40.5094 142.406H41.0177H41.0986L41.5194 142.367C43.0894 142.228 44.3131 141.956 45.773 139.706C46.7377 138.324 47.288 136.586 47.6894 135.32H47.6959ZM60.612 145.07C57.0188 145.449 53.3932 144.902 51.9689 144.054C51.9689 143.969 51.9689 143.895 51.9689 143.814C52.0239 142.93 52.121 141.985 52.2311 141.017C55.0961 141.966 58.0658 142.564 61.0749 142.798C60.7371 143.506 60.576 144.286 60.6055 145.07H60.612ZM71.1553 137.748C70.6924 139.645 70.1842 139.829 69.6759 140.014C64.6811 141.801 55.1089 140.26 51.383 138.395C50.6319 137.971 50.0363 136.776 50.0428 136.339C50.1704 136.128 50.2787 135.906 50.3665 135.676C51.6193 136.505 54.1766 137.103 60.4599 137.294C61.1073 137.314 61.7029 137.32 62.2791 137.32C67.3031 137.32 69.9122 136.637 71.4466 135.75C71.3333 136.741 71.2298 137.424 71.1553 137.748ZM72.0585 130.03C71.8804 131.911 71.7121 133.552 71.5632 134.847C70.0773 135.915 67.2449 136.789 60.489 136.586C53.9662 136.398 51.6419 135.773 50.5996 134.967C50.7226 134.478 50.7938 133.963 50.8715 133.436L50.8909 133.316C54.0648 132.845 57.2017 132.151 60.2786 131.241C60.3267 131.231 60.3724 131.212 60.4126 131.184C60.4528 131.155 60.4867 131.119 60.512 131.077C60.5374 131.035 60.5537 130.988 60.5599 130.939C60.5661 130.891 60.562 130.841 60.548 130.794C60.534 130.747 60.5103 130.703 60.4784 130.666C60.4465 130.629 60.4072 130.598 60.363 130.577C60.3187 130.556 60.2705 130.544 60.2214 130.542C60.1723 130.541 60.1234 130.549 60.0779 130.568C56.2499 131.717 52.3203 132.495 48.3433 132.892C48.3386 132.883 48.3332 132.874 48.3271 132.866C48.3062 132.805 48.279 132.747 48.2462 132.691C48.23 132.669 48.2106 132.649 48.1944 132.63C47.7541 131.866 47.3495 131.144 46.9934 130.471C47.2418 130.497 47.4914 130.51 47.7412 130.509C49.2691 130.509 51.1758 130.095 51.5998 129.461C52.0239 128.826 52.1145 126.696 52.0433 125.146C54.1766 124.903 56.3455 124.566 58.5823 124.11C66.387 122.52 69.8961 121.4 72.7998 119.973C72.7059 122.184 72.4275 125.977 72.0585 130.03ZM36.2818 107.477C36.2429 107.597 36.1879 107.765 36.0973 108.002C35.657 109.199 34.579 110.038 33.4817 110.038H33.2745C32.7579 109.977 32.269 109.772 31.864 109.446C31.459 109.119 31.1544 108.685 30.9853 108.193C30.8162 107.702 30.7894 107.172 30.908 106.666C31.0267 106.159 31.2859 105.697 31.6559 105.331C32.1205 104.899 32.7276 104.652 33.3619 104.638H33.5205C33.9705 104.651 34.4123 104.761 34.8153 104.962C35.0865 105.106 35.3443 105.274 35.5858 105.464L35.6279 105.493C35.5854 104.969 35.4081 104.465 35.1132 104.03C33.8183 101.903 32.0606 100.725 29.8949 100.534C29.7064 100.52 29.5174 100.515 29.3284 100.521C28.461 100.516 27.6051 100.72 26.8324 101.114C26.0597 101.508 25.3927 102.082 24.8871 102.787C24.4868 103.4 24.2393 104.101 24.1652 104.829L24.1393 105.192L23.8577 104.962C23.2406 104.448 22.6608 103.891 22.1226 103.295C22.5693 100.382 22.906 98.2062 23.4725 95.6132C23.9933 95.8594 24.5455 96.0326 25.1137 96.1279C25.4345 96.1826 25.7593 96.2107 26.0848 96.2121C26.88 96.2127 27.6656 96.0391 28.3865 95.7035C29.1073 95.368 29.746 94.8786 30.2575 94.2698C30.7029 93.6875 31.0026 93.0071 31.1315 92.2855L31.1833 91.9261L31.4487 92.1754C32.5341 93.2746 33.522 94.466 34.401 95.7362C34.4237 95.7621 34.4366 95.7751 34.4431 95.7751C34.4496 95.7751 34.4431 95.7751 34.4431 95.7557C34.6211 95.5517 35.2556 94.914 36.2818 93.904C36.2818 93.904 36.2818 93.904 36.298 93.8878H36.2623C34.8513 93.3605 33.5029 92.6788 32.2418 91.8549L31.8437 91.5862L32.3195 91.5118C34.0093 91.2431 35.6473 89.2717 35.971 87.1222C36.2406 85.6634 35.9775 84.1563 35.2297 82.8751C36.3109 83.0435 37.3921 83.2183 38.2726 83.3672C37.6252 84.2639 37.1364 85.057 37.0328 85.2253C37.0328 85.2253 37.0328 85.2253 37.0328 85.2447C36.9773 85.3385 36.9358 85.4399 36.9098 85.5458C36.9098 85.5458 36.9098 85.5458 36.9098 85.5652C36.8941 85.6397 36.8865 85.7157 36.8871 85.7918C36.926 90.2558 37.8939 101.845 38.5057 106.037L38.6643 107.157C39.1628 110.598 40.1566 117.461 40.6389 121.539L38.9686 121.478C37.405 121.423 35.6926 121.361 33.9381 121.222C34.1462 120.961 34.3314 120.683 34.4916 120.39C35.8416 117.657 36.6548 114.69 36.8871 111.65C37.0554 109.284 36.5472 107.94 36.2818 107.477ZM32.1188 103.386C31.6656 103.386 30.0989 103.522 28.8396 105.24C28.2975 106.011 27.9438 106.898 27.807 107.83L27.7455 108.18L27.4865 107.934C27.2178 107.672 26.9491 107.425 26.6772 107.192L26.606 107.134V107.04C26.6702 105.776 27.1753 104.575 28.0336 103.645C28.5948 103.058 29.2731 102.596 30.0244 102.288L30.128 102.24C29.1375 102.305 28.2101 102.749 27.5383 103.479C26.771 104.279 26.3122 105.325 26.2434 106.432L26.2175 106.794L25.9359 106.564C25.5637 106.257 25.2205 105.982 24.913 105.755L24.8418 105.703V105.613C24.8679 104.808 25.1093 104.026 25.541 103.347C25.9666 102.741 26.5331 102.247 27.1918 101.909C27.8504 101.571 28.5815 101.397 29.3219 101.404C29.4752 101.404 29.6306 101.411 29.7881 101.424C31.4811 101.573 32.8666 102.359 34.019 103.823L34.3427 104.234L33.8313 104.127C33.731 104.105 33.6293 104.091 33.527 104.085C33.4622 104.085 33.3943 104.085 33.3295 104.085C32.5587 104.072 31.8113 104.35 31.2351 104.862C30.9109 105.154 30.6488 105.509 30.4642 105.905C30.2796 106.301 30.1763 106.73 30.1604 107.167C30.1507 107.413 30.1691 107.659 30.2154 107.901L30.2348 108.015L30.1442 108.086C29.7626 108.453 29.5066 108.931 29.4126 109.452L29.3381 109.84L29.0824 109.539C28.8364 109.251 28.5612 108.953 28.2149 108.601L28.1469 108.533V108.439C28.3159 107.407 28.7021 106.423 29.2799 105.551C30.5747 103.79 31.7983 103.505 32.4393 103.392C32.3327 103.383 32.2257 103.381 32.1188 103.386ZM29.6521 110.184C29.714 109.699 29.9269 109.246 30.2607 108.889L30.442 108.711L30.5618 108.934C30.8141 109.41 31.1799 109.815 31.6268 110.116L31.8793 110.284L31.6138 110.436C31.4296 110.555 31.2715 110.71 31.1491 110.892C31.0266 111.074 30.9425 111.279 30.9017 111.495L30.7981 111.906L30.5618 111.553C30.2381 111.087 29.9758 110.698 29.691 110.329L29.6392 110.268L29.6521 110.184ZM23.5275 105.59L23.0581 105.7C22.5301 105.841 22.0446 106.109 21.6435 106.48C21.7147 105.972 21.7956 105.441 21.8863 104.862C21.8863 104.823 21.8863 104.787 21.9057 104.745C22.333 104.943 22.7409 105.143 23.1067 105.35L23.5275 105.59ZM58.0255 75.8862C55.6592 75.3682 52.2667 74.6075 49.7968 73.9666C50.182 73.5101 50.4701 73.1638 50.6578 72.9372C52.3843 72.6048 54.0288 72.2412 55.5912 71.8463C56.0606 73.0052 56.9929 74.4586 58.0255 75.883V75.8862ZM57.6338 71.3057C58.2457 71.1373 58.8413 70.9625 59.4272 70.7812C59.7121 70.7812 60.0164 70.8039 60.353 70.8363C60.3013 70.8935 60.2461 70.9475 60.1879 70.9981C59.7349 71.3546 59.178 71.5535 58.6017 71.5646C58.4934 71.5651 58.3852 71.5575 58.278 71.542C58.0793 71.5159 57.8833 71.4725 57.6921 71.4125C57.6727 71.3866 57.65 71.3348 57.6338 71.3024V71.3057ZM45.7212 83.6877L45.7536 83.6229C46.1 82.9431 46.5014 82.6518 47.1326 82.6518C47.2528 82.653 47.3728 82.6617 47.4919 82.6777L47.6085 82.6939L47.6505 82.8039C47.9289 83.5226 48.1264 84.1311 48.2721 84.5746C48.3239 84.73 48.3724 84.8983 48.4177 85.0149C48.3822 84.1731 48.2241 83.3411 47.9484 82.545V82.4867V82.4284C48.0516 82.0428 48.2561 81.6919 48.5408 81.412C48.8936 81.2566 49.2335 81.1077 49.5572 80.9717H49.787H49.8583C49.8187 80.9475 49.7776 80.9259 49.7353 80.907C50.1431 80.7386 50.5186 80.5833 50.8553 80.457C50.4559 82.5129 49.7464 84.4962 48.7512 86.3389L48.6217 86.5655L48.4372 86.3777C47.7897 85.7141 46.7215 85.1152 45.268 84.5843C45.2356 84.0437 45.2033 83.5064 45.1806 82.9658C45.9057 82.6162 46.6179 82.2795 47.3042 81.9655L47.4239 82.2439H47.1326C46.9451 82.2362 46.7581 82.2673 46.5831 82.3353C46.4082 82.4032 46.2493 82.5066 46.1161 82.6388C45.8724 82.886 45.7333 83.2176 45.7277 83.5646C45.7229 83.6055 45.7208 83.6466 45.7212 83.6877ZM50.619 78.3076C47.6978 79.4266 44.8481 80.7239 42.0859 82.1921C43.7272 80.8973 46.3363 77.9839 48.2883 75.7405C48.6897 76.1419 49.7223 77.262 50.619 78.3108V78.3076ZM44.5429 84.3351C44.1318 84.2024 43.698 84.0729 43.2286 83.9499C43.6462 83.733 44.067 83.5193 44.4879 83.3024C44.5073 83.6618 44.5429 84.0114 44.5429 84.3351ZM41.1666 80.1948C39.8394 79.1945 37.6705 76.7149 36.3109 74.8697C37.6058 74.7661 38.9233 74.6464 40.299 74.4878C42.7852 74.205 45.1536 73.8813 47.4045 73.5166C45.6176 75.6207 42.9243 78.6928 41.1698 80.2045L41.1666 80.1948ZM39.3214 81.3958C37.7935 81.14 34.8639 80.6577 32.7468 80.3664C33.5529 79.3208 34.6049 77.9547 35.3139 77.0159C36.5197 78.5988 37.8617 80.0729 39.3247 81.4217L39.3214 81.3958ZM24.5375 91.2981C24.9906 90.793 25.2756 90.1595 25.3532 89.4853C25.3824 89.2413 25.3824 88.9946 25.3532 88.7505V88.634L25.4503 88.5692C25.8573 88.2356 26.1495 87.7827 26.2855 87.2744L26.3891 86.8956L26.619 87.2194C26.8423 87.5269 27.0948 87.8474 27.4153 88.2229L27.4768 88.2973L27.4541 88.388C27.2063 89.4034 26.7475 90.3552 26.1075 91.1816C25.5764 91.8269 24.9144 92.3521 24.1652 92.7225C24.2882 92.2628 24.4112 91.7967 24.5407 91.3078L24.5375 91.2981ZM24.1069 86.4425L23.8674 86.2515L24.1458 86.122C24.3748 86.0056 24.5666 85.8273 24.6993 85.6073C24.5763 85.9666 24.4598 86.313 24.3465 86.6561C24.2709 86.5896 24.1921 86.5269 24.1102 86.4683L24.1069 86.4425ZM29.8172 81.6029C29.8949 81.7766 30.018 81.926 30.1735 82.0354C30.3291 82.1448 30.5113 82.2101 30.701 82.2245C30.8822 82.2407 31.1121 82.2633 31.3743 82.2957C30.8078 84.0923 29.3155 85.8792 26.6028 85.8824H26.5024L26.4474 85.7983C26.3665 85.6785 26.2985 85.562 26.224 85.4454C26.346 85.0937 26.3695 84.7154 26.292 84.3513C27.2444 84.278 28.1316 83.8396 28.7684 83.1276C29.0854 82.7755 29.325 82.3607 29.4716 81.9102C29.6183 81.4596 29.6688 80.9833 29.6198 80.512V80.5476C29.377 82.1177 28.1501 83.9499 25.4471 83.9499H25.337L25.282 83.8528C25.0684 83.4514 24.8741 83.0629 24.6929 82.6874L24.5569 82.409H24.968C25.318 82.4272 25.6679 82.3724 25.9956 82.2481C26.3233 82.1238 26.6215 81.9328 26.8714 81.6871C27.0348 81.5067 27.1661 81.2998 27.2599 81.0753C28.3994 80.6966 29.487 80.266 30.4614 79.8549L29.9467 80.5185C29.8242 80.6734 29.7474 80.8595 29.7251 81.0557C29.7028 81.2519 29.7358 81.4504 29.8205 81.6289L29.8172 81.6029ZM26.0913 86.4651L26.0719 86.546C25.9907 86.9188 25.8245 87.2678 25.5863 87.5657C25.7093 87.1482 25.8323 86.7241 25.9683 86.2709L26.046 86.3971L26.0913 86.4651ZM26.5121 91.5312C27.1086 90.807 27.5277 89.9535 27.7358 89.0386L27.8232 88.6923L28.0595 88.9577C28.312 89.2393 28.5612 89.5048 28.8137 89.7573L28.8785 89.822V89.9159C28.7205 91.1666 28.1309 92.323 27.2113 93.1854C26.6062 93.7269 25.8952 94.137 25.1234 94.3896L25.0166 94.4284H25.159C26.1049 94.4009 27.0098 94.0358 27.7099 93.399C28.5329 92.6575 29.0663 91.6481 29.2151 90.5504L29.2702 90.1878L29.5324 90.4403C29.8787 90.764 30.2024 91.0877 30.5035 91.324L30.5715 91.3823V91.4568C30.4844 92.2504 30.1859 93.0061 29.7072 93.6451C29.2769 94.1682 28.7356 94.5889 28.1225 94.8767C27.5094 95.1645 26.8398 95.3122 26.1625 95.3089C25.8827 95.3076 25.6034 95.2838 25.3273 95.2377C24.7658 95.1452 24.2206 94.9718 23.7088 94.723C23.8318 94.1921 23.9667 93.6353 24.1134 93.0527C25.0646 92.8289 25.9136 92.2934 26.5251 91.5312H26.5121ZM30.0406 90.0454L29.7169 89.7217H30.1927C31.2929 89.6722 32.3287 89.1892 33.0738 88.3782C33.7762 87.528 34.174 86.467 34.2035 85.3645C34.2035 85.2954 34.2035 85.2372 34.2035 85.1897C34.1841 85.2447 34.1647 85.3062 34.142 85.3807C33.9179 86.3824 33.4151 87.3003 32.6918 88.0286C32.296 88.4506 31.8168 88.7856 31.2846 89.0124C30.7524 89.2392 30.1788 89.3529 29.6003 89.3462H29.3349L29.2831 89.2911C28.9853 88.9901 28.6972 88.6793 28.4285 88.3782L28.1631 88.0804L28.5612 88.0643C29.1909 88.0708 29.815 87.946 30.3937 87.6979C30.9724 87.4498 31.4931 87.0839 31.9226 86.6234C32.352 86.1629 32.6808 85.6179 32.8879 85.0233C33.095 84.4286 33.176 83.7974 33.1256 83.1697C33.1256 83.1212 33.1256 83.0758 33.1256 83.037C33.1256 83.0726 33.1256 83.1082 33.1061 83.1503C32.8278 85.1314 31.7012 87.5204 27.9267 87.6661H27.8296L27.7714 87.5916C27.5253 87.2679 27.2858 86.9863 27.0689 86.6788L26.865 86.3939H27.2146C27.874 86.3801 28.5227 86.2243 29.1165 85.9372C29.7103 85.65 30.2353 85.2383 30.6556 84.73C31.2052 84.0581 31.5292 83.2301 31.5815 82.3637C32.2613 82.4478 33.132 82.5709 34.0611 82.71C34.9055 83.9093 35.2935 85.3708 35.1552 86.8309C34.8315 89.2134 33.213 90.9356 31.2254 91.0197H31.1509L31.0959 90.9744C30.7366 90.6734 30.387 90.3594 30.0535 90.0454H30.0406ZM32.7274 76.935C32.2354 77.126 31.7142 77.3429 31.1088 77.6019C30.1215 78.0227 27.8944 79.0294 26.6707 79.4664C27.6807 78.2331 30.1248 76.1743 31.2772 75.1578C32.1188 75.1362 32.9821 75.0996 33.8669 75.0478C33.909 75.1125 33.9575 75.187 34.0061 75.255C33.7115 75.6628 33.2486 76.2714 32.7403 76.935H32.7274ZM26.033 77.4238L25.7093 77.2685C26.1949 76.8606 26.6805 76.4656 27.1822 76.0901C26.7873 76.5401 26.415 76.99 26.046 77.4238H26.033ZM26.7031 81.289C26.4775 81.5292 26.2013 81.7162 25.8945 81.8366C25.5877 81.9569 25.258 82.0076 24.9292 81.9849C24.7803 81.9849 24.6055 81.9849 24.4468 81.959H24.3368L24.2915 81.8554L24.1976 81.6191C24.3674 81.7325 24.5664 81.7943 24.7706 81.7972C24.8489 81.7966 24.927 81.7879 25.0036 81.7713C25.5928 81.6256 26.1593 81.4638 26.7161 81.289H26.7031ZM24.2656 83.0402C24.4145 83.4028 24.5893 83.7945 24.8062 84.2024L24.8418 84.2671L24.8223 84.3383C24.4695 85.6332 23.6796 85.9051 23.2426 85.9569H23.1941L23.152 85.9375C22.9627 85.8666 22.7662 85.8167 22.5661 85.7885C22.4206 85.7635 22.2734 85.7494 22.1258 85.7465C21.9653 85.3013 21.8386 84.8447 21.7471 84.3804C22.5434 84.3221 23.5145 83.9531 23.916 83.0305L24.094 82.6259L24.2656 83.0402ZM22.469 86.4036C23.1189 86.508 23.7077 86.8479 24.1231 87.3586C23.9526 87.8636 23.7908 88.3513 23.6376 88.8217C23.1624 88.0441 22.7427 87.2339 22.3816 86.3971L22.469 86.4036ZM40.5742 105.732C40.0174 101.848 39.1013 91.0262 38.9945 86.3421C39.8814 85.7756 40.9368 85.1767 42.0374 84.5811C43.0312 84.7915 43.8793 84.9987 44.6044 85.2285C44.776 87.7017 45.0576 90.2364 45.3813 92.6739C45.2907 92.7937 45.1968 92.9199 45.1029 93.0624C44.2956 94.3956 43.6367 95.8133 43.138 97.2901C42.9875 97.2537 42.8332 97.2352 42.6783 97.235C42.1665 97.2305 41.6705 97.412 41.2826 97.7459C40.8947 98.0798 40.6413 98.5433 40.5697 99.05C40.498 99.5568 40.6129 100.072 40.8931 100.501C41.1732 100.929 41.5994 101.241 42.0924 101.379C42.0924 101.447 42.0697 101.515 42.06 101.582C41.7007 103.942 42.1054 105.321 42.3352 105.791V105.775C42.3837 105.658 42.4517 105.496 42.5585 105.27C43.0603 104.166 44.1027 103.428 45.1482 103.428C45.2741 103.427 45.3998 103.438 45.5238 103.46C46.2019 103.565 46.8132 103.928 47.2297 104.473C47.356 105.231 47.4984 106.056 47.6473 106.933C47.5217 107.464 47.2275 107.94 46.8089 108.29C46.3568 108.646 45.8011 108.844 45.2259 108.856C45.1176 108.856 45.0094 108.849 44.9022 108.834C44.4522 108.785 44.018 108.639 43.63 108.406C43.3706 108.242 43.1258 108.056 42.8984 107.85L42.8628 107.814C42.8658 108.341 43.004 108.858 43.2642 109.316C43.4024 109.584 43.548 109.839 43.7012 110.083C43.3377 110.18 43.0066 110.372 42.742 110.639C42.4775 110.907 42.2891 111.24 42.1962 111.604C42.1034 111.969 42.1096 112.352 42.214 112.713C42.3185 113.074 42.5175 113.401 42.7905 113.66C43.0635 113.919 43.4006 114.1 43.767 114.185C44.1334 114.27 44.5159 114.256 44.875 114.144C45.234 114.031 45.5566 113.826 45.8095 113.547C46.0624 113.269 46.2364 112.928 46.3136 112.56C46.9062 112.875 47.5456 113.094 48.2073 113.207C48.3819 113.238 48.5581 113.26 48.735 113.272C49.1849 116.085 49.6187 119.047 49.9295 121.821C49.3839 121.448 49.0062 120.876 48.8774 120.228C48.78 119.786 48.78 119.327 48.8774 118.885C48.9526 118.588 49.0533 118.297 49.1785 118.017L49.1979 117.972C48.699 118.137 48.2525 118.431 47.903 118.823C46.4917 120.251 45.7633 121.821 45.705 123.501C44.7922 123.53 43.8825 123.55 42.9697 123.546C42.7269 120.665 41.7331 113.612 40.7555 106.859L40.5742 105.732ZM48.0002 102.21L48.1361 101.809L48.3433 102.178C48.612 102.657 48.858 103.065 49.1202 103.473L49.1655 103.538V103.619C49.0667 104.099 48.8199 104.536 48.4598 104.868L48.2656 105.033L48.1652 104.8C48.1037 104.66 48.0323 104.525 47.9516 104.396L47.9095 104.15L47.6894 102.855C47.8289 102.662 47.9341 102.446 48.0002 102.217V102.21ZM47.5631 102.172C47.4337 101.401 47.2945 100.579 47.152 99.7147L47.3204 100.123C47.4757 100.488 47.6441 100.877 47.8642 101.285L47.8966 101.349L47.8771 101.421C47.8095 101.687 47.7037 101.942 47.5631 102.178V102.172ZM47.8448 108.05C47.9128 108.452 47.984 108.853 48.0552 109.277C47.4193 109.774 46.6541 110.077 45.8507 110.151C46.0339 110.189 46.2205 110.207 46.4075 110.206C47.0104 110.198 47.6029 110.047 48.1361 109.766C48.2268 110.294 48.3142 110.824 48.4048 111.384L48.1911 111.462L48.0843 111.501H48.2268H48.4242L48.5602 112.339C48.4922 112.339 48.4275 112.339 48.3595 112.323C47.6056 112.202 46.8835 111.931 46.2359 111.527C46.1274 111.164 45.9232 110.837 45.6446 110.58C45.3661 110.323 45.0236 110.146 44.653 110.067C44.5397 109.921 44.4264 109.772 44.3293 109.614L44.0412 109.183L44.5397 109.326C44.6383 109.355 44.7389 109.376 44.8407 109.39C44.9931 109.411 45.1466 109.422 45.3004 109.423C45.9813 109.432 46.6454 109.211 47.1844 108.795C47.4411 108.584 47.6638 108.335 47.8448 108.057V108.05ZM48.4016 107.141C48.3854 107.044 48.3692 106.956 48.353 106.862C48.3368 106.768 48.408 106.662 48.421 106.558C48.4501 106.314 48.4501 106.067 48.421 105.823V105.707L48.5181 105.642C48.9246 105.308 49.2166 104.855 49.3533 104.347L49.4569 103.965L49.6867 104.289C49.9101 104.593 50.1626 104.913 50.4798 105.289L50.5413 105.363L50.5219 105.457C50.2741 106.473 49.8152 107.425 49.1752 108.251C49.0101 108.439 48.8515 108.607 48.6897 108.759C48.5828 108.199 48.489 107.662 48.4016 107.147V107.141ZM49.5896 108.594C50.1861 107.87 50.6051 107.016 50.8132 106.101L50.9006 105.755L51.1369 106.021C51.3862 106.302 51.6387 106.568 51.8912 106.82L51.9559 106.885V106.979C51.7979 108.229 51.2083 109.386 50.2888 110.248C49.9232 110.578 49.5162 110.859 49.0781 111.083C48.981 110.494 48.885 109.919 48.79 109.358C49.0814 109.138 49.3493 108.889 49.5896 108.614V108.594ZM50.755 110.452C51.579 109.711 52.1135 108.702 52.2635 107.604L52.3152 107.244L52.5807 107.493C52.9271 107.817 53.2475 108.141 53.5518 108.377L53.6198 108.435V108.526C53.5313 109.319 53.233 110.075 52.7555 110.714C52.3339 111.225 51.8063 111.638 51.2093 111.924C50.6123 112.21 49.9602 112.363 49.2982 112.372C49.2432 112.032 49.1882 111.695 49.1299 111.362C49.7339 111.19 50.29 110.881 50.755 110.459V110.452ZM53.118 107.108L52.7943 106.785H53.2702C54.3703 106.735 55.4062 106.252 56.1512 105.441C56.8511 104.589 57.2485 103.529 57.281 102.427C57.281 102.363 57.281 102.304 57.281 102.253C57.2616 102.308 57.2389 102.369 57.2195 102.444C56.9953 103.445 56.4926 104.363 55.7693 105.092C55.3728 105.514 54.893 105.849 54.3603 106.075C53.8276 106.302 53.2535 106.416 52.6746 106.409H52.4124L52.3573 106.357C52.0628 106.053 51.7714 105.742 51.506 105.441L51.2405 105.143H51.6387C52.2696 105.149 52.8947 105.023 53.4741 104.774C54.0535 104.524 54.5744 104.156 55.0034 103.693C55.4325 103.231 55.7602 102.684 55.9657 102.087C56.1711 101.491 56.2498 100.858 56.1966 100.229C56.1966 100.181 56.1966 100.139 56.1966 100.097C56.1966 100.132 56.1966 100.168 56.1771 100.21C55.8955 102.191 54.7722 104.58 50.9977 104.726H50.8974L50.8359 104.651C50.5931 104.347 50.3568 104.052 50.1431 103.748L49.9392 103.466L50.2888 103.45C50.9483 103.437 51.5971 103.281 52.1909 102.994C52.7847 102.707 53.3097 102.295 53.7299 101.786C54.0808 101.362 54.3421 100.87 54.4979 100.342C54.6537 99.813 54.7007 99.2584 54.6363 98.7112C54.2543 100.708 52.749 102.981 49.6899 102.984H49.5896L49.5346 102.9C49.2723 102.512 49.0328 102.133 48.8094 101.754L48.6346 101.463H49.0587C49.5862 101.466 50.1084 101.358 50.5906 101.144C51.0729 100.93 51.5041 100.616 51.8556 100.223C52.1726 99.8707 52.4122 99.456 52.5588 99.0054C52.7055 98.5549 52.7559 98.0786 52.7069 97.6073V97.6429C52.4642 99.2129 51.2373 101.045 48.5343 101.045H48.421L48.3692 100.948C48.1523 100.55 47.9581 100.158 47.78 99.7826L47.6441 99.5042H48.0552C48.4051 99.522 48.7549 99.467 49.0826 99.3428C49.4102 99.2185 49.7085 99.0277 49.9586 98.7824C50.3956 98.2895 50.6192 97.6433 50.5801 96.9858C50.1269 98.1058 49.609 99.0349 48.0358 99.0349C47.8869 99.0349 47.712 99.0349 47.5534 99.009H47.4434L47.3981 98.9054C47.2038 98.436 47.0355 97.9958 46.8866 97.5814L46.7992 97.3321V97.3062L47.084 97.3289H47.22C47.542 97.336 47.8548 97.2206 48.0951 97.0062C48.3354 96.7917 48.4854 96.494 48.5149 96.1733C48.5149 96.1376 48.5149 96.1053 48.5149 96.0761L48.4793 96.1344C48.1296 96.7074 47.7606 96.9502 47.2394 96.9502C47.0803 96.9492 46.9218 96.9308 46.7668 96.8951H46.7312C46.5564 95.7751 46.3848 94.6291 46.223 93.4314C47.1941 94.5061 49.1364 95.5032 52.0692 96.3934C52.3411 96.4743 52.6098 96.5649 52.8494 96.6588C58.7604 98.8471 58.3201 103.382 58.2521 103.894C57.9122 106.276 56.3099 107.998 54.319 108.083H54.2478L54.1928 108.037C53.7978 107.743 53.4515 107.429 53.118 107.115V107.108ZM46.9675 102.796C46.7706 102.918 46.5499 102.997 46.3201 103.026H46.2748H46.2327C46.0437 102.954 45.8472 102.903 45.6468 102.874C45.4513 102.839 45.2531 102.82 45.0544 102.819C44.6508 102.815 44.2513 102.9 43.8843 103.068C43.5173 103.236 43.1918 103.482 42.9308 103.79L42.6395 104.114L42.6006 103.67C42.5758 102.958 42.6323 102.246 42.769 101.547C42.769 101.518 42.769 101.492 42.769 101.463C43.0519 101.451 43.3294 101.381 43.5847 101.259C43.6807 101.304 43.7803 101.341 43.8825 101.369C44.1145 101.433 44.3541 101.464 44.5947 101.463C44.9645 101.469 45.3318 101.402 45.6756 101.266C46.0195 101.13 46.3331 100.927 46.5985 100.67C46.7085 101.336 46.8186 101.964 46.9222 102.576L46.9675 102.796ZM46.4852 99.9769C46.1797 100.364 45.7887 100.676 45.3429 100.888C44.8971 101.1 44.4084 101.205 43.9149 101.197H43.711C44.1753 100.943 44.5259 100.522 44.6922 100.019C44.8586 99.5162 44.8284 98.9691 44.6077 98.4878C44.8109 98.5818 45.0312 98.6336 45.2551 98.6399C45.4466 98.6423 45.6349 98.5899 45.7977 98.489C45.9606 98.3881 46.0913 98.2428 46.1744 98.0702C46.278 98.7284 46.3816 99.364 46.4852 99.9769ZM45.0835 98.3356C44.9397 98.3655 44.7933 98.3806 44.6465 98.381H44.5429C44.3652 98.045 44.1001 97.7632 43.7757 97.5652C44.2241 96.2465 44.8135 94.9799 45.5335 93.7875C45.7147 95.0823 45.9025 96.3319 46.0903 97.5328C45.9869 97.7295 45.8437 97.9024 45.6698 98.0406C45.4959 98.1788 45.2951 98.2793 45.0803 98.3356H45.0835ZM48.0617 122.184C48.2223 122.607 48.4568 122.998 48.7544 123.339C48.0293 123.391 47.3074 123.436 46.5855 123.465C46.6529 122.175 47.1329 120.94 47.9548 119.943L48.2785 119.532L48.3012 120.05C48.3052 120.153 48.3161 120.256 48.3336 120.358C48.4017 120.767 48.5514 121.158 48.7739 121.508C48.9964 121.857 49.287 122.159 49.6284 122.394C49.7438 122.47 49.8638 122.54 49.9878 122.601C50.0104 122.818 50.0363 123.041 50.059 123.249L49.3306 123.307C48.7073 122.865 48.216 122.262 47.9095 121.562C47.9345 121.774 47.9845 121.983 48.0584 122.184H48.0617ZM51.3409 125.23C51.4153 126.848 51.2761 128.68 51.0172 129.082C50.7582 129.483 47.9548 130.053 46.6049 129.7C45.92 128.39 45.3388 127.029 44.8666 125.628C47.0096 125.586 49.1623 125.447 51.3409 125.23ZM51.9883 122.206C51.781 122.252 51.5694 122.276 51.3571 122.277C51.1151 122.277 50.8744 122.243 50.6417 122.177C50.6417 122.031 50.6125 121.892 50.5963 121.747C51.5383 121.64 52.503 121.513 53.4774 121.381C53.0811 121.807 52.5598 122.098 51.9883 122.209V122.206ZM53.3997 122.854C52.5095 122.977 51.6225 123.083 50.7485 123.177C50.7485 123.071 50.7226 122.957 50.7129 122.854C51.1741 122.963 51.6537 122.97 52.1178 122.873C52.359 122.824 52.5937 122.747 52.817 122.643L52.9206 122.595L53.0112 122.666C53.1345 122.748 53.2685 122.812 53.4094 122.857L53.3997 122.854ZM59.7574 121.724C59.2459 121.834 58.7215 121.941 58.168 122.048L57.8022 122.119C57.6367 121.832 57.5022 121.528 57.4008 121.212L57.3652 121.106L57.4428 121.025C57.5529 120.908 57.6597 120.808 57.7666 120.701C58.1097 120.639 58.4496 120.571 58.7895 120.507C58.9774 121.003 59.3158 121.429 59.7574 121.724ZM58.9837 119.542L59.0679 119.468C59.4531 119.144 59.8189 118.836 60.1653 118.568L60.3951 118.386L60.4663 118.671C60.5251 118.929 60.6553 119.164 60.8418 119.351C60.2397 119.487 59.6344 119.613 59.0323 119.733C59.0323 119.704 59.0129 119.681 59.0064 119.652L58.9837 119.542ZM59.2589 120.419C60.5537 120.164 61.8227 119.875 63.0657 119.558C63.0107 120.008 62.9719 120.494 62.946 121.012C62.1593 121.199 61.3047 121.39 60.3789 121.591C60.1233 121.48 59.8922 121.319 59.6989 121.117C59.5056 120.916 59.3539 120.679 59.2524 120.419H59.2589ZM61.2368 119.264C60.9538 118.996 60.7876 118.627 60.7739 118.237V118.127L60.8645 118.063C61.4634 117.642 61.9781 117.318 62.3568 117.092L62.7258 116.858C61.9599 117.088 61.2299 117.424 60.557 117.856L60.5084 117.885H60.4534C59.7347 117.856 59.1877 117.587 58.9125 117.124C58.7949 116.917 58.7097 116.693 58.66 116.46C58.6135 116.6 58.5927 116.747 58.5985 116.894C58.5985 117.865 59.2848 118.063 59.5696 118.095L60.0746 118.157L59.6538 118.441C59.3722 118.629 59.0711 118.853 58.7086 119.144L58.6438 119.199L58.5597 119.183C57.9313 119.114 57.3368 118.863 56.8496 118.46C56.3624 118.057 56.0037 117.521 55.8178 116.917C55.7498 116.716 55.698 116.593 55.6624 116.509C55.6363 116.652 55.6265 116.797 55.6333 116.943C55.6754 117.93 56.4523 119.364 57.8086 119.49L58.2489 119.529L57.9252 119.82C57.8604 119.875 57.7925 119.94 57.7245 120.002C56.9281 120.146 56.1448 120.28 55.3743 120.403C55.1413 120.238 54.9559 120.015 54.837 119.756L54.8175 119.717V119.668C54.827 119.467 54.814 119.265 54.7787 119.066C54.7231 118.565 54.534 118.088 54.2311 117.685C53.9281 117.282 53.5225 116.967 53.0565 116.774L52.6454 116.603L53.0533 116.425C53.7218 116.18 54.4157 116.01 55.1218 115.92C56.361 115.727 57.6131 115.63 58.8672 115.628C60.5523 115.606 62.2326 115.813 63.8621 116.243L64.1016 116.315L63.9689 116.525C63.5779 117.228 63.3159 117.996 63.1952 118.791C62.5392 118.955 61.8842 119.113 61.2303 119.264H61.2368ZM57.3069 122.209L56.2289 122.413C56.4232 122.171 56.6174 121.925 56.8148 121.698L57.0382 121.439L57.1386 121.763C57.1858 121.915 57.242 122.064 57.3069 122.209ZM54.7496 120.474H54.6978L54.714 120.429L54.7496 120.474ZM55.6786 121.047C55.8247 121.077 55.9732 121.092 56.1221 121.093H56.5494L56.2613 121.416C55.889 121.827 55.5783 122.19 55.2902 122.559V122.575L54.8823 122.643C54.4911 122.644 54.1064 122.544 53.7655 122.352L53.5486 122.219L53.7363 122.051C53.9946 121.822 54.2134 121.552 54.3838 121.251C54.7981 121.193 55.2254 121.125 55.6786 121.057V121.047ZM63.7488 120.808C63.7488 120.27 63.7908 119.785 63.8426 119.338C65.9183 118.797 67.9479 118.092 69.9122 117.231C70.5813 117.384 71.2627 117.477 71.9484 117.509C72.2721 117.509 72.5958 117.538 72.8904 117.558C70.9287 118.649 68.7695 119.591 63.7488 120.817V120.808ZM75.0787 113.884C75.3182 115.421 75.2924 116.095 74.1367 116.846C73.5216 116.765 72.8613 116.703 72.1426 116.658C71.8578 116.658 71.5761 116.619 71.3204 116.583H71.2751C72.0003 116.209 72.7 115.787 73.3695 115.321C73.3847 115.463 73.4107 115.604 73.4472 115.742C73.4753 115.554 73.5076 115.373 73.5443 115.198C74.0882 114.808 74.5973 114.371 75.0658 113.893L75.0787 113.884ZM74.5964 111.294L74.619 111.317C74.7226 111.838 74.8165 112.339 74.9007 112.825C74.3793 113.002 73.9355 113.355 73.6447 113.822C73.5398 114.006 73.4645 114.204 73.4213 114.411C72.3814 115.184 71.2627 115.845 70.0838 116.383C64.9692 115.233 64.4124 111.3 64.3638 110.824C64.134 108.429 65.3026 106.373 67.206 105.83L67.274 105.81L67.3387 105.843C67.7628 106.05 68.1771 106.276 68.5721 106.49L68.9897 106.73L68.5235 106.84C67.461 107.145 66.5625 107.858 66.0245 108.824C65.5423 109.815 65.4044 110.938 65.6328 112.016C65.649 112.08 65.6684 112.136 65.6813 112.184C65.6813 112.126 65.6813 112.061 65.6975 111.983C65.6811 110.957 65.9549 109.947 66.4874 109.07C66.7928 108.542 67.2085 108.085 67.7063 107.732C68.204 107.379 68.7721 107.138 69.3717 107.024L69.4461 107.008L69.5076 107.05C69.8669 107.277 70.223 107.51 70.5532 107.739L70.8769 107.966L70.4949 108.076C69.8812 108.217 69.3037 108.485 68.7991 108.861C68.2944 109.238 67.8739 109.715 67.5641 110.264C67.2544 110.812 67.0623 111.419 67 112.045C66.9378 112.672 67.0069 113.305 67.2028 113.903C67.2157 113.948 67.2287 113.99 67.2416 114.029C67.2416 113.994 67.2416 113.955 67.2416 113.913C67.0506 111.922 67.5848 109.335 71.2136 108.312L71.3074 108.287L71.3819 108.345C71.7056 108.588 71.9969 108.821 72.2786 109.067L72.5408 109.297L72.2171 109.39C71.5796 109.558 70.9858 109.862 70.4763 110.28C69.9668 110.699 69.5536 111.222 69.2648 111.815C69.0222 112.31 68.8825 112.85 68.8542 113.401C68.8258 113.951 68.9093 114.502 69.0997 115.02C69.0026 112.987 69.9349 110.423 72.9098 109.704L73.0069 109.682L73.0814 109.75C73.4245 110.073 73.7482 110.381 74.0525 110.695L74.2921 110.938L73.9684 111.012C73.4447 111.123 72.9509 111.344 72.5208 111.663C72.0906 111.981 71.7342 112.389 71.4758 112.857C71.243 113.278 71.1019 113.742 71.0618 114.221C71.0216 114.7 71.0833 115.182 71.2427 115.635V115.596C71.11 114 71.8901 111.919 74.5025 111.31L74.5964 111.294ZM73.7547 107.461C73.9846 108.397 74.195 109.306 74.3827 110.171C74.0007 109.763 73.6673 109.423 73.3242 109.106L73.2659 109.051V108.973C73.2504 108.482 73.3885 107.999 73.6608 107.591L73.7547 107.461ZM73.1073 104.913C73.1656 105.127 73.2206 105.334 73.2756 105.541C73.2729 105.67 73.2783 105.799 73.2918 105.927C73.3225 106.171 73.38 106.411 73.4634 106.642L73.5022 106.749L73.4245 106.833C73.1065 107.258 72.9298 107.772 72.9195 108.303V108.694L72.6217 108.439C72.3304 108.193 72.0131 107.943 71.615 107.649L71.5373 107.594V107.5C71.4729 106.096 71.8847 104.711 72.7059 103.57C72.8386 104.02 72.9616 104.47 73.0846 104.92L73.1073 104.913ZM72.5699 102.991C72.2094 103.352 71.9088 103.768 71.6797 104.224C71.2691 105.069 71.0618 105.998 71.0744 106.937V107.293L70.783 107.089C70.4593 106.875 70.168 106.678 69.8637 106.49L69.7828 106.441V106.348C69.6431 105.097 69.9454 103.837 70.6374 102.787C71.0289 102.214 71.5227 101.718 72.0941 101.324C72.2235 101.877 72.3822 102.437 72.5473 102.997L72.5699 102.991ZM71.7833 100.356C71.8675 100.628 71.9516 100.899 72.0358 101.178C71.251 101.469 70.5773 101.999 70.1097 102.693C69.483 103.607 69.2009 104.714 69.3134 105.817L69.3425 106.179L69.0188 105.995C68.6044 105.755 68.2192 105.535 67.8793 105.363L67.7984 105.321L67.7822 105.234C67.6825 104.441 67.7941 103.636 68.1059 102.9C68.4305 102.235 68.9117 101.658 69.5083 101.219C70.1048 100.78 70.7988 100.493 71.5308 100.382C71.5988 100.375 71.6797 100.369 71.7606 100.362L71.7833 100.356ZM70.1809 95.6003C70.6115 96.7624 71.0614 98.0831 71.5049 99.4848H71.4143C70.5497 99.6182 69.7301 99.9587 69.0256 100.477C68.321 100.996 67.7523 101.677 67.3679 102.463C67.0719 103.132 66.9409 103.863 66.9859 104.593L67.0183 104.956L66.6945 104.774C65.3822 103.955 64.1442 103.022 62.9945 101.987C62.9807 101.975 62.964 101.966 62.946 101.961C62.946 101.961 62.946 101.961 62.946 101.977C62.8229 102.217 62.3536 102.987 61.5896 104.208V104.227H61.6284C63.1237 104.406 64.5946 104.749 66.0147 105.25L66.4679 105.418L66.0212 105.603C64.4415 106.25 63.3085 108.558 63.4963 110.724C63.5766 112.352 64.2981 113.883 65.5033 114.981C66.4684 115.85 67.6023 116.512 68.8343 116.923C67.2461 117.572 65.6203 118.124 63.9657 118.577C64.0653 118.009 64.2193 117.452 64.4253 116.914C64.5257 116.661 64.8461 116.124 64.9594 115.871C64.624 115.706 64.2726 115.576 63.9106 115.483C62.248 115.104 60.5464 114.922 58.8413 114.942C57.5084 114.937 56.1775 115.046 54.8629 115.266C52.5095 115.667 51.3312 116.483 50.9427 116.855C51.0689 116.855 51.247 116.878 51.4963 116.907C52.8558 117.056 53.9694 118.001 54.1475 119.157C54.2253 119.643 54.1694 120.141 53.9856 120.597C52.7587 120.779 51.5934 120.921 50.5283 121.051C50.2273 118.503 49.8324 115.826 49.4245 113.281C50.1743 113.247 50.909 113.059 51.5825 112.727C52.256 112.396 52.8537 111.929 53.3382 111.355C53.7823 110.773 54.0818 110.095 54.2122 109.374L54.264 109.015L54.5262 109.264C55.6153 110.362 56.6074 111.553 57.4914 112.822C57.5108 112.848 57.527 112.861 57.5335 112.861C57.54 112.861 57.5335 112.861 57.5335 112.841C57.7083 112.637 58.3428 112.003 59.3722 110.99L59.3884 110.973H59.3495C57.9329 110.446 56.5791 109.763 55.3128 108.937L54.9114 108.672L55.3873 108.594C57.0771 108.325 58.7183 106.357 59.042 104.205C59.3467 102.605 59.0045 100.949 58.0903 99.6014C56.7301 97.6458 54.7186 96.2379 52.4156 95.6294C49.431 94.7813 47.916 94.1047 46.6211 93.0397C46.4819 92.9232 46.2586 92.6804 46.0611 92.4732C45.7601 90.1684 45.4946 87.7923 45.3263 85.4681C46.2459 85.7763 47.1176 86.2122 47.916 86.7629C48.2316 87.0194 48.528 87.2985 48.803 87.5981L48.845 87.5722C49.0925 87.2707 49.3094 86.9454 49.4925 86.6011C50.515 84.5708 51.2463 82.4066 51.6646 80.1721C51.9457 80.0635 52.2376 79.9854 52.5354 79.9391C52.7253 79.9256 52.908 79.8609 53.0642 79.752C53.2203 79.6431 53.3441 79.494 53.4224 79.3205C53.5007 79.1469 53.5306 78.9554 53.509 78.7663C53.4873 78.5771 53.4149 78.3974 53.2993 78.2461C52.9756 77.8252 52.5354 77.2976 52.0725 76.7602C52.0709 76.7365 52.0709 76.7127 52.0725 76.689C55.9764 77.6181 60.3401 78.5342 60.3983 78.5471C60.6108 78.5919 60.8319 78.5698 61.0313 78.4839C61.2307 78.398 61.3986 78.2526 61.5121 78.0675C61.6256 77.8824 61.679 77.6667 61.6651 77.45C61.6511 77.2334 61.5705 77.0263 61.4342 76.8573C61.0814 76.4171 60.7641 76.0092 60.4631 75.611C60.8284 75.7396 61.2043 75.836 61.5864 75.8991C61.9072 75.9538 62.232 75.9819 62.5575 75.9833C63.7449 75.981 64.8993 75.5924 65.8464 74.8762C64.9335 76.9729 64.3756 79.2067 64.1955 81.4864C63.7002 81.0559 62.946 80.4343 62.551 80.7127C62.2273 80.9458 62.6579 81.7939 62.9913 82.2698C65.5292 85.9019 66.9438 88.1905 67.9149 89.7152C67.9991 89.9126 68.4199 90.9162 70.1583 95.6068L70.1809 95.6003ZM75.8394 75.9186L76.0304 75.7535C77.1763 74.7823 78.5554 73.604 79.97 72.5617C80.0855 73.6993 80.4621 74.795 81.0706 75.7632C82.113 77.3817 83.8092 78.5147 86.0072 79.0715C84.3764 81.1283 82.5268 83.0017 80.4912 84.6588C77.8691 86.8406 76.6681 87.446 73.7385 87.2485C72.9681 87.2066 72.213 87.0164 71.5146 86.6885L71.4564 86.6593C70.9374 86.3972 70.4415 86.0918 69.9738 85.7465C69.6382 85.5009 69.2879 85.276 68.9249 85.0732C69.0641 83.8269 69.9608 80.8196 71.1909 78.2752C71.4645 77.7042 71.8093 77.1701 72.2171 76.6858C72.2208 76.8774 72.2766 77.0644 72.3786 77.2268C72.4805 77.3891 72.6248 77.5206 72.7959 77.6071C72.9669 77.6936 73.1583 77.7319 73.3495 77.7179C73.5406 77.7038 73.7244 77.638 73.881 77.5274C74.3827 77.1649 74.9719 76.6599 75.8394 75.9186ZM72.7642 72.7138L73.104 72.6879C73.2958 72.7488 73.4711 72.8528 73.6164 72.992C73.7618 73.1312 73.8733 73.3018 73.9425 73.4907C73.7668 73.4878 73.5913 73.5008 73.4181 73.5296C71.8837 73.7691 70.3428 75.1935 69.294 77.3397C68.5106 78.9582 67.3323 81.9785 66.9438 84.1376C66.3047 83.3923 65.6112 82.6954 64.8688 82.0529C64.9789 78.7478 66.3806 74.5525 67.8955 72.7429C69.4235 72.9598 71.6668 72.8044 72.7642 72.7268V72.7138ZM64.6131 71.7362C64.3598 72.1881 64.0388 72.5985 63.6614 72.9534C63.0571 73.4954 62.3458 73.9046 61.5734 74.1543L61.4666 74.1932H61.609C62.5497 74.1581 63.4466 73.7872 64.1372 73.1476C64.5341 72.786 64.8631 72.3562 65.1084 71.8786C65.5939 72.0319 66.1183 72.2045 66.6816 72.3966C66.5415 72.7597 66.352 73.1017 66.1183 73.413C65.6875 73.9352 65.146 74.3551 64.5329 74.6423C63.9199 74.9295 63.2507 75.0769 62.5737 75.0737C62.2938 75.0739 62.0143 75.0501 61.7385 75.0025C60.8204 74.8585 59.9526 74.488 59.2136 73.9245C58.7021 73.1864 58.2974 72.552 58.0029 72.0275C58.0741 72.0437 58.1453 72.0631 58.21 72.0729C58.3636 72.0921 58.5182 72.1019 58.673 72.102C59.3528 72.1113 60.0158 71.8899 60.5537 71.474C60.7588 71.312 60.9417 71.1237 61.0976 70.914C61.4698 70.969 61.8809 71.0435 62.3406 71.1406C60.994 72.5876 59.8448 72.785 59.2297 72.8465C59.4127 72.8854 59.5995 72.9038 59.7865 72.9016C60.4598 72.9016 61.7709 72.6944 62.9654 71.283C63.4768 71.4092 64.0207 71.5549 64.6131 71.7362ZM53.1407 7.61525C54.7431 6.16178 57.7504 6.13588 61.5928 7.52784C64.6843 8.88744 66.4323 10.7812 66.5133 12.8594C66.5748 14.478 65.6231 16.0512 64.0725 16.9641C61.3209 14.957 55.9991 13.2835 52.121 12.4321C51.6419 10.3895 52.011 8.64465 53.1407 7.61525ZM9.36185 15.5041C12.0066 13.6654 14.2628 12.7299 16.0044 12.7299C16.5559 12.7184 17.1031 12.8289 17.6068 13.0536C19.3257 13.8629 19.8307 15.9347 19.9731 17.2619C17.309 18.5179 12.204 22.697 9.98337 25.1766C9.19573 25.1074 8.44799 24.7994 7.84005 24.2938C7.23211 23.7882 6.79291 23.1092 6.58115 22.3474C6.05674 20.5864 6.47433 17.7345 9.36185 15.5041ZM3.15952 55.6445C1.02625 44.69 6.92753 32.499 8.13497 30.1651C8.2081 30.0235 8.24814 29.8672 8.25205 29.708C8.25597 29.5487 8.22366 29.3906 8.15758 29.2457C8.09149 29.1007 7.99335 28.9727 7.87055 28.8712C7.74775 28.7697 7.60351 28.6974 7.44871 28.6598C5.70713 28.239 3.99469 26.8502 2.975 25.0407L2.82609 24.7655C3.62955 23.0937 4.60602 21.5108 5.7395 20.0426C5.60893 20.8818 5.6653 21.7396 5.9046 22.5546C6.16541 23.4809 6.71018 24.3021 7.4622 24.9025C8.21421 25.503 9.13561 25.8524 10.0967 25.9018H10.1258C10.176 25.9018 10.2257 25.8912 10.2715 25.8705C10.3172 25.8499 10.3581 25.8197 10.3913 25.782C12.4954 23.3541 17.9726 18.8837 20.4814 17.8057C20.5492 17.7773 20.6064 17.7283 20.6448 17.6655C20.6831 17.6027 20.7007 17.5294 20.695 17.4561C20.5752 16.0318 20.0476 13.5165 17.9726 12.4774C19.3944 12.1381 20.8369 11.8926 22.2909 11.7426C22.333 11.7976 22.3783 11.8494 22.4172 11.9077C23.2446 13.0241 23.704 14.3705 23.7314 15.7599C23.7298 15.9278 23.7684 16.0936 23.844 16.2435C23.9196 16.3934 24.03 16.5231 24.166 16.6217C24.3019 16.7202 24.4595 16.7848 24.6255 16.81C24.7915 16.8352 24.9611 16.8203 25.1202 16.7666C29.1828 15.4394 40.3897 13.3935 46.961 13.3935C47.1186 13.3938 47.2742 13.3587 47.4164 13.2908C47.5586 13.2229 47.6838 13.1239 47.7826 13.0012C47.8814 12.8785 47.9514 12.7351 47.9873 12.5817C48.0233 12.4283 48.0244 12.2687 47.9904 12.1148C47.6925 10.8361 47.7014 9.50498 48.0163 8.2303C48.0422 8.12995 48.0811 8.03284 48.1102 7.93248C49.563 7.52356 51.0571 7.27924 52.5645 7.20413C51.2891 8.46014 50.8941 10.4833 51.493 12.7979C51.5099 12.8602 51.5436 12.9168 51.5904 12.9613C51.6372 13.0058 51.6953 13.0366 51.7585 13.0504C55.6754 13.9017 61.1882 15.6142 63.8362 17.6503C63.8972 17.6977 63.9726 17.7228 64.0498 17.7215C64.1076 17.7225 64.1646 17.708 64.2149 17.6795C66.1151 16.663 67.2934 14.7661 67.219 12.8238C67.2054 12.5045 67.1576 12.1876 67.0765 11.8785C68.3888 12.933 69.5955 14.1125 70.6794 15.4005C70.6568 15.4879 70.6374 15.5818 70.6115 15.666C70.0892 17.2712 69.0083 18.6358 67.5653 19.5117C67.4353 19.5937 67.3248 19.7031 67.2415 19.8322C67.1582 19.9614 67.1041 20.1072 67.083 20.2595C67.0611 20.4119 67.0732 20.5673 67.1186 20.7146C67.1639 20.8618 67.2413 20.9971 67.3452 21.1108C76.1793 30.8643 79.397 37.6881 79.6463 47.1405C79.3582 57.4993 72.9487 64.4559 59.3139 68.6739C59.1861 68.685 59.0618 68.7213 58.9481 68.7807C58.059 69.0505 57.1386 69.3084 56.1868 69.5544C56.1086 69.568 56.0316 69.5886 55.957 69.6159C50.7393 70.9032 45.4396 71.8323 40.0951 72.3966C36.6573 72.7883 33.5173 73.0149 30.6362 73.0731C30.5535 73.0618 30.4697 73.0618 30.387 73.0731C29.7201 73.0731 29.0695 73.0731 28.4447 73.0731C28.2872 73.0359 28.1231 73.0359 27.9656 73.0731C13.4665 72.7947 6.39664 67.5215 3.15952 55.6347V55.6445ZM25.1202 77.8026C25.2626 77.877 25.4083 77.9547 25.5636 78.0292C24.9162 78.8093 24.4112 79.4794 24.1102 79.8873C23.9687 79.8839 23.8279 79.8676 23.6894 79.8387L23.5825 79.8161L23.5502 79.7092C23.5113 79.583 23.4757 79.4632 23.4433 79.3467C23.9699 78.8223 24.5288 78.3076 25.1202 77.8026ZM21.7309 81.098V81.0688C22.1776 80.5865 22.6599 80.0977 23.1585 79.6024C23.1811 79.7125 23.2005 79.8193 23.2264 79.9261V79.9812L23.207 80.0362C22.9545 80.7063 22.5272 81.14 22.0028 81.2566C21.896 81.276 21.7877 81.2869 21.6791 81.289C21.7147 81.2274 21.7244 81.1627 21.7309 81.098ZM21.6888 81.4864C21.846 81.5417 22.011 81.5712 22.1776 81.5738C22.386 81.5769 22.5904 81.5167 22.7638 81.401C22.9372 81.2854 23.0714 81.1199 23.1488 80.9264L23.3656 80.4667L23.5016 80.9555C23.5922 81.2792 23.712 81.6256 23.8771 82.0723L23.9062 82.1533L23.8674 82.2277C23.6559 82.6671 23.3506 83.0548 22.9731 83.3635C22.5956 83.6723 22.155 83.8945 21.6823 84.0146C21.5718 83.1743 21.5739 82.3229 21.6888 81.4832V81.4864ZM21.637 86.4327C22.1103 87.5726 22.6845 88.6678 23.3527 89.7055C23.1196 90.4241 22.9124 91.0812 22.7053 91.719C22.519 91.767 22.3278 91.7931 22.1355 91.7967C22.0272 91.798 21.9189 91.7904 21.8118 91.774C20.9767 90.6171 20.2072 89.4143 19.507 88.1711C19.7047 87.7369 19.9997 87.354 20.369 87.052C20.7383 86.75 21.1722 86.537 21.637 86.4295V86.4327ZM19.6947 84.4905C19.7724 84.034 19.8598 83.5938 19.9505 83.173C20.2483 82.7888 20.5796 82.3842 20.9443 81.959C20.8754 82.6793 20.8928 83.4053 20.9961 84.1214C20.9475 84.1214 20.9022 84.1214 20.8569 84.1214C20.7119 84.1191 20.567 84.1267 20.4231 84.1441C20.6134 84.247 20.8206 84.315 21.0349 84.3448C21.123 84.8384 21.2496 85.3244 21.4137 85.7983C20.8068 85.9188 20.2582 86.2404 19.8566 86.7111L19.5653 87.0348L19.5199 86.6011C19.4954 85.8923 19.5519 85.1831 19.6883 84.4872L19.6947 84.4905ZM18.552 85.4875C18.666 85.1638 18.8147 84.8534 18.9955 84.5617C18.8788 85.311 18.8386 86.0702 18.8758 86.8277C18.6006 86.1997 18.4776 85.727 18.5456 85.4843L18.552 85.4875ZM20.1026 102.732C19.7498 103.324 18.2931 105.176 16.4123 107.319C16.299 107.445 16.2019 107.552 16.0886 107.672C14.8947 107.586 13.7446 107.187 12.7544 106.515C11.7642 105.842 10.9691 104.92 10.4495 103.842L10.6923 103.405C13.1658 99.0864 15.8672 94.9024 18.7851 90.8708C19.6569 92.3095 20.6147 93.6942 21.6532 95.0176C21.6726 95.0435 21.6985 95.0597 21.7179 95.0823C21.0378 97.5994 20.4964 100.152 20.0961 102.728L20.1026 102.732ZM21.4493 107.911C21.7432 107.423 22.1421 107.008 22.6169 106.693C23.0918 106.379 23.6306 106.175 24.1943 106.095H24.2656L24.3271 106.137C24.7123 106.412 25.0813 106.7 25.4374 106.988L25.8097 107.29L25.3338 107.325C24.2361 107.455 23.2348 108.015 22.5499 108.882C21.9138 109.782 21.597 110.869 21.65 111.97C21.65 112.038 21.65 112.097 21.6726 112.145C21.6726 112.09 21.7018 112.025 21.7179 111.948C21.8682 110.933 22.3 109.981 22.9642 109.199C23.3505 108.727 23.8341 108.343 24.3821 108.074C24.9301 107.806 25.5297 107.658 26.1399 107.642H26.2143L26.2726 107.691C26.5963 107.969 26.9006 108.257 27.1919 108.539L27.4768 108.814L27.0819 108.863C26.4463 108.914 25.8278 109.094 25.2637 109.391C24.6995 109.688 24.2014 110.096 23.7994 110.591C23.0546 111.593 22.7316 112.847 22.8995 114.084C22.8995 114.133 22.8995 114.178 22.9189 114.217V114.104C23.0484 112.106 23.9936 109.636 27.739 109.212H27.8393L27.9041 109.284C28.1695 109.572 28.4285 109.85 28.6681 110.135L28.8914 110.404L28.545 110.442C27.8887 110.507 27.2538 110.711 26.6835 111.042C26.1132 111.374 25.6209 111.824 25.2399 112.362C24.9214 112.812 24.6975 113.321 24.5818 113.86C24.466 114.398 24.4609 114.955 24.5666 115.496C24.7932 113.476 26.1269 111.096 29.1763 110.863H29.2766L29.3381 110.944C29.6295 111.31 29.8949 111.669 30.1474 112.032L30.3416 112.31L30.0179 112.33C29.4836 112.355 28.9608 112.494 28.4854 112.74C28.01 112.985 27.5931 113.33 27.2631 113.751C26.9658 114.128 26.752 114.564 26.636 115.03C26.5199 115.496 26.5041 115.981 26.5898 116.454V116.418C26.7128 114.819 27.8135 112.89 30.4938 112.708H30.6039L30.6654 112.802C30.9114 113.184 31.1347 113.56 31.3419 113.919L31.4973 114.185L31.1898 114.201C30.8243 114.198 30.4622 114.272 30.1275 114.419C29.7927 114.565 29.4928 114.781 29.2475 115.052C29.0431 115.312 28.8933 115.611 28.8071 115.93C28.7209 116.249 28.7 116.583 28.7457 116.91C29.1374 115.68 29.6133 114.664 31.4617 114.664H31.7239L31.7725 114.764C32.0023 115.22 32.203 115.645 32.381 116.059L32.4943 116.324H32.2062C32.0356 116.315 31.8648 116.341 31.7042 116.399C31.5436 116.457 31.3965 116.548 31.2717 116.664C31.1468 116.781 31.0468 116.922 30.9777 117.078C30.9085 117.234 30.8717 117.403 30.8693 117.574C30.8693 117.609 30.8693 117.642 30.8693 117.671L30.9017 117.613C31.2254 116.965 31.6106 116.7 32.1965 116.7C32.3113 116.701 32.426 116.71 32.5396 116.726L32.6497 116.742L32.6886 116.846C32.954 117.529 33.1418 118.105 33.281 118.526C33.3295 118.674 33.3781 118.823 33.4201 118.946C33.3839 118.146 33.2335 117.354 32.9734 116.596L32.9572 116.544L32.9734 116.489C33.1741 115.8 33.5658 115.334 34.0838 115.195C34.2942 115.135 34.5124 115.106 34.7312 115.11H34.7992C34.674 115.032 34.5359 114.978 34.3913 114.949C34.2614 114.914 34.1276 114.895 33.9931 114.894C33.7716 114.889 33.5544 114.956 33.3737 115.084C33.193 115.212 33.0583 115.395 32.9896 115.606L32.8116 116.082L32.6368 115.606C32.5202 115.282 32.3778 114.942 32.1803 114.521L32.1447 114.444L32.1803 114.366C32.4043 113.776 32.7936 113.262 33.3016 112.887C33.8097 112.512 34.415 112.292 35.0452 112.252C35.1898 112.243 35.3336 112.225 35.4757 112.197C35.3434 112.14 35.2057 112.097 35.0646 112.068C34.8994 112.034 34.7313 112.018 34.5629 112.019C33.6208 112.019 32.4393 112.505 32.067 113.563L31.9214 113.981L31.7207 113.586C31.5426 113.236 31.3322 112.861 31.0927 112.469L31.0538 112.407V112.336C31.3095 111.025 32.0735 110.689 32.5105 110.601H32.5558L32.5979 110.617C32.7923 110.673 32.9919 110.709 33.1936 110.724C33.3108 110.736 33.4286 110.741 33.5464 110.74C33.9913 110.75 34.4319 110.651 34.8304 110.454C35.229 110.256 35.5737 109.964 35.835 109.604L36.1005 109.248L36.1717 109.688C36.2538 110.395 36.2538 111.108 36.1717 111.815C35.7541 116.451 34.21 119.419 33.7471 120.232L33.6208 120.445L33.446 120.27C32.4263 119.231 30.3578 118.357 27.2955 117.681C27.0171 117.619 26.7452 117.551 26.4959 117.474C23.1067 116.502 21.6403 114.648 21.0187 113.11C21.0506 111.373 21.1923 109.64 21.4428 107.921L21.4493 107.911ZM21.1838 116.431C21.1482 115.897 21.1126 115.399 21.0899 114.91C22.5921 116.728 24.6854 117.961 27.0042 118.393C30.0406 119.014 31.6041 119.574 32.9734 120.536C33.2245 120.735 33.4614 120.951 33.6824 121.183C29.1504 120.805 24.395 119.866 21.2259 117.079L21.1838 116.431ZM22.5305 120.371C21.6726 119.798 21.4137 118.94 21.3101 118.053C26.0007 121.717 33.3942 121.986 38.9459 122.177L40.7199 122.245C40.7749 122.724 40.817 123.148 40.8493 123.511C37.5604 123.427 34.2294 123.187 30.7366 122.828C26.8067 122.349 24.4274 121.64 22.5305 120.371ZM36.1264 143.979C36.1037 144.063 36.0843 144.147 36.0616 144.232C31.8534 145.491 28.0174 144.772 26.4474 143.866L26.483 143.733C26.6805 142.992 26.92 142.115 27.2016 141.108C27.302 140.748 27.4056 140.37 27.5253 139.978C30.4873 140.986 33.5386 141.709 36.6378 142.137C36.476 142.658 36.2947 143.312 36.1264 143.979ZM44.0606 138.586C43.0474 140.146 42.4938 140.205 41.3899 140.295L40.9821 140.337C37.0522 140.451 31.0959 139.114 27.3149 137.673C27.2449 137.633 27.1698 137.603 27.0916 137.583H27.0657C26.0935 137.238 25.1707 136.768 24.3206 136.184C23.5502 135.537 23.6343 135.268 23.8544 134.821C24.1623 134.294 24.3882 133.723 24.5245 133.128C25.4083 134.116 26.92 134.97 30.1927 135.928C33.552 136.862 37.0228 137.334 40.5094 137.33C41.9724 137.336 43.4335 137.228 44.8796 137.006C44.6524 137.557 44.3761 138.085 44.0541 138.586H44.0606ZM45.1677 136.242C41.0986 136.99 35.0355 136.608 30.3805 135.245C26.7258 134.177 25.4083 133.235 24.7188 132.261C24.8612 131.594 24.9842 130.872 25.1105 130.134L25.2561 129.273C25.5507 127.615 25.2335 125.686 24.7382 123.737C26.6137 124.322 28.5429 124.718 30.497 124.919C34.711 125.373 38.945 125.616 43.1833 125.647H44.135C44.7209 127.522 45.6791 129.606 47.1876 132.287C47.3074 132.503 47.4239 132.714 47.5534 132.934L46.346 132.953C42.4873 133.002 40.5192 132.788 35.6376 131.335C35.5483 131.31 35.4527 131.321 35.3716 131.366C35.2904 131.411 35.2301 131.486 35.2038 131.574C35.1904 131.618 35.186 131.665 35.1906 131.71C35.1953 131.756 35.209 131.8 35.231 131.841C35.253 131.881 35.2829 131.917 35.3188 131.946C35.3546 131.974 35.3959 131.996 35.4401 132.008C40.0304 133.368 42.0697 133.662 45.4331 133.662H46.032C45.9252 133.947 45.8183 134.284 45.6889 134.689C45.5335 135.158 45.3619 135.689 45.1612 136.242H45.1677ZM43.5718 88.0869C43.5718 87.6682 43.4476 87.2589 43.215 86.9107C42.9823 86.5626 42.6517 86.2912 42.2649 86.131C41.878 85.9707 41.4523 85.9288 41.0417 86.0105C40.631 86.0922 40.2538 86.2938 39.9577 86.5899C39.6616 86.886 39.46 87.2632 39.3783 87.6739C39.2966 88.0846 39.3385 88.5102 39.4988 88.8971C39.659 89.2839 39.9304 89.6146 40.2785 89.8472C40.6267 90.0798 41.036 90.204 41.4547 90.204C42.0162 90.204 42.5547 89.9809 42.9517 89.5839C43.3487 89.1869 43.5718 88.6484 43.5718 88.0869ZM64.6131 52.6954C73.868 52.0286 78.8273 42.4046 71.2751 31.3725C63.7229 20.3404 55.138 15.6757 36.1264 18.9452C19.8922 21.5349 14.2143 26.6949 9.40069 34.5416C5.99524 40.9835 5.69742 51.6466 9.10611 56.3825C11.8447 59.9434 18.3578 61.6785 23.9969 57.1238C29.7687 52.4591 33.0608 47.7362 41.3187 46.464C56.3228 44.9943 56.844 53.2134 64.6131 52.6954ZM55.8275 27.4459C60.3401 26.1057 66.8014 30.7283 67.0539 37.7593L52.1858 32.0458C52.1284 32.0314 52.0683 32.0314 52.011 32.0458C52.2178 31.0235 52.675 30.0684 53.3417 29.2662C54.0083 28.464 54.8636 27.8396 55.8308 27.4491L55.8275 27.4459ZM51.8847 32.6706C51.9001 32.6825 51.9163 32.6933 51.9333 32.703L55.1089 33.9234C54.5003 36.7623 54.824 39.2614 56.08 41.3428C57.1709 43.1362 58.5694 44.0394 60.243 44.0394C60.5447 44.039 60.8459 44.0119 61.1429 43.9584C63.0139 43.6347 64.9271 41.7281 64.4221 37.5036L66.9406 38.4748C66.9759 38.4876 67.0131 38.4941 67.0506 38.4942C66.9114 45.4216 62.2338 46.4963 60.4275 46.4866C55.1445 46.2697 52.9303 42.2233 52.0498 37.5684C51.7159 35.9582 51.6611 34.3026 51.8879 32.6738L51.8847 32.6706ZM21.132 32.8001C23.589 32.8422 25.0684 34.2115 26.0298 35.9822C26.0119 35.9906 25.9945 36.0004 25.978 36.0113L13.4309 45.7712C12.0389 40.5886 15.1692 32.8033 21.145 32.8033L21.132 32.8001ZM22.9124 52.0124C18.4873 53.5792 15.3343 51.4006 13.6446 46.4478C13.6816 46.4408 13.7176 46.4289 13.7514 46.4122L15.862 44.7677C16.0497 45.9719 16.6033 48.1343 18.196 49.2997C18.8662 49.7893 19.6773 50.0483 20.5073 50.0378C20.9019 50.0362 21.2951 49.9895 21.6791 49.8986C24.8968 49.1217 25.4277 44.6544 25.1752 42.7348C24.9486 41.0062 24.4371 39.5818 23.725 38.6625L26.3438 36.6231C26.8983 37.9139 27.3202 39.2578 27.603 40.6339C28.3832 44.0976 27.4444 50.4165 22.9254 52.0156L22.9124 52.0124ZM62.9751 83.7362L62.3795 82.6421C62.353 82.5918 62.3148 82.5487 62.2679 82.5166C62.2211 82.4844 62.1672 82.4642 62.1108 82.4576C60.612 82.2925 57.8637 82.2471 55.2028 82.2051C53.9079 82.1856 52.6843 82.1662 51.6808 82.1338C51.6251 82.1333 51.5701 82.1452 51.5197 82.1687C51.4692 82.1923 51.4247 82.2268 51.3894 82.2698C51.3536 82.3147 51.3296 82.3678 51.3194 82.4243C51.3092 82.4808 51.3133 82.539 51.3312 82.5935C51.3571 82.6906 54.1054 92.2434 55.1186 95.16C56.6206 97.8986 60.298 98.4651 62.0978 98.4651C62.2726 98.4651 62.4215 98.4651 62.5607 98.4651L62.7032 98.4457C64.3217 98.2515 66.141 98.0281 67.0021 96.8045C67.5038 96.0923 67.6139 95.1503 67.3258 93.9235C66.5036 90.2267 64.953 87.3683 62.9945 83.7492L62.9751 83.7362ZM52.1372 82.8492C53.0468 82.8751 54.1021 82.8913 55.193 82.9075C57.6112 82.9464 60.3401 82.9884 61.8518 83.1373L62.3568 84.0729C62.7096 84.7203 63.0398 85.3354 63.3636 85.9439L62.428 85.9245C61.1332 84.5552 59.738 83.7006 58.4172 83.4805C57.6156 83.3089 56.7787 83.4549 56.0826 83.8878C55.3865 84.3207 54.8854 85.0067 54.6848 85.8015C53.9759 85.8015 53.39 85.8015 52.9983 85.8015C52.6357 84.5228 52.312 83.4416 52.1502 82.8622L52.1372 82.8492ZM63.3636 88.1808C65.6295 91.4179 66.0989 94.4932 64.5354 95.6424C62.8618 96.8757 59.22 95.2345 57.0382 92.2725C54.9114 89.3785 54.5618 85.8662 56.2775 84.6038C56.7085 84.2866 57.2315 84.1195 57.7666 84.1279C57.9456 84.1275 58.1243 84.1426 58.3007 84.1732C59.9484 84.4581 61.7968 85.918 63.3765 88.1937L63.3636 88.1808ZM66.4259 96.3772C65.7461 97.3483 64.1599 97.5361 62.619 97.7238L62.496 97.74C61.2011 97.8274 57.1968 97.4778 55.7595 94.8655C55.1995 93.2469 54.0762 89.4789 53.2022 86.5007H54.5359C54.2931 88.307 54.9535 90.6216 56.4782 92.6869C58.3104 95.1762 61.049 96.743 63.1434 96.743C63.7894 96.7648 64.4252 96.5775 64.9562 96.2089C66.8726 94.7975 66.4647 91.4114 63.943 87.7923C63.6581 87.3812 63.3635 87.0057 63.0657 86.6496H63.7423C65.0371 89.1098 66.0406 91.3661 66.6557 94.0529C66.8952 95.0856 66.824 95.8463 66.4388 96.3901L66.4259 96.3772ZM55.7142 55.7934L53.7007 54.5535C52.4803 53.8058 50.8618 52.8282 49.1688 51.9218C47.1585 50.8568 45.4752 50.1575 44.1512 49.8435L43.9732 49.8047C43.6836 49.7353 43.3893 49.6877 43.0927 49.6623C42.7868 49.6228 42.4778 49.613 42.1701 49.6331C42.0221 49.6308 41.8743 49.646 41.7298 49.6784C41.6765 49.678 41.6233 49.6834 41.5712 49.6946L40.749 49.9601C40.5732 50.0244 40.4041 50.1058 40.244 50.2029L40.0789 50.2967C39.8111 50.4369 39.5555 50.5993 39.315 50.7823C39.0302 50.9733 38.7578 51.1819 38.4992 51.4071C38.224 51.6239 37.9618 51.8603 37.6575 52.1451C37.4277 52.3491 37.2076 52.5724 36.9842 52.7925L36.8159 52.9641C36.6249 53.1486 36.4436 53.3429 36.2623 53.5403L35.9807 53.8446C34.5544 55.4332 33.2228 57.1043 31.9926 58.8492C31.9246 58.9855 31.9068 59.1415 31.9425 59.2896C31.9781 59.4377 32.0649 59.5686 32.1874 59.659C32.31 59.7495 32.4606 59.7939 32.6126 59.7843C32.7647 59.7747 32.9085 59.7118 33.0187 59.6067C33.0187 59.6067 33.4978 58.9949 34.2586 58.1144C34.6438 57.6709 35.1617 57.085 35.7509 56.457C35.5375 57.2118 35.435 57.9937 35.4466 58.778C35.5081 60.9242 37.554 64.3523 41.7493 64.8897C42.1111 64.9353 42.4755 64.958 42.8402 64.9577C43.1972 64.958 43.5538 64.9374 43.9084 64.8962C46.8995 64.553 49.3921 63.1967 50.7485 61.1702C51.2261 60.4865 51.5444 59.7044 51.6799 58.8815C51.8155 58.0585 51.7649 57.2157 51.5319 56.4149C51.34 55.7415 51.0498 55.1002 50.6708 54.5115C51.5837 54.9841 52.4026 55.4243 53.0112 55.7578L55.0797 56.9037C55.222 56.9563 55.3783 56.9572 55.5212 56.9063C55.6641 56.8555 55.7846 56.756 55.8617 56.6254C55.9388 56.4947 55.9676 56.3411 55.943 56.1914C55.9184 56.0417 55.842 55.9054 55.7272 55.8063L55.7142 55.7934Z" fill="#8B534C"/>
</g>
<defs>
<clipPath id="clip0_28_5929">
<rect width="91.6667" height="150" fill="white"/>
</clipPath>
</defs>
</svg>
