<svg width="144" height="150" viewBox="0 0 144 150" fill="none" xmlns="http://www.w3.org/2000/svg">
<g clip-path="url(#clip0_40_3670)">
<path d="M91.5278 10.8479C91.6962 10.6085 92.8071 11.106 94.0116 11.9701C95.2161 12.8342 96.0503 13.702 95.882 13.9451C95.7136 14.1883 94.6026 13.687 93.3982 12.8229C92.1937 11.9588 91.3595 11.0873 91.5278 10.8479ZM91.3109 23.0312C92.3732 23.8803 93.5553 24.1534 93.9929 23.6072C94.4306 23.0611 93.8919 21.9688 92.8296 21.1234C91.7672 20.2781 90.559 20.0199 90.1475 20.5474C89.7361 21.0748 90.2485 22.1895 91.3109 23.0274V23.0312ZM94.3632 14.6858C93.1849 13.8591 92.0478 13.4476 91.8271 13.7656C91.6064 14.0835 92.3695 15.0224 93.5403 15.8566C94.7111 16.6908 95.8483 17.0948 96.0765 16.7768C96.3046 16.4588 95.5341 15.5125 94.3632 14.682V14.6858ZM88.5091 26.6895C89.6313 27.4713 90.8994 27.5761 91.367 26.9177C91.8346 26.2594 91.3109 25.0848 90.1999 24.2992C89.0889 23.5137 87.8134 23.4127 87.3495 24.0748C86.8857 24.7369 87.3982 25.9002 88.5091 26.6858V26.6895ZM94.4455 17.9289C93.3233 17.0349 92.145 16.6496 91.8046 17.0686C91.4642 17.4875 92.1114 18.5648 93.2336 19.4439C94.3558 20.3229 95.5341 20.7232 95.8745 20.3042C96.2149 19.8853 95.5715 18.8117 94.4455 17.9252V17.9289ZM85.6326 30.7556C86.5939 31.4401 87.7647 31.4327 88.251 30.7556C88.7373 30.0786 88.352 28.9676 87.3907 28.283C86.4293 27.5985 85.2585 27.606 84.7722 28.283C84.2859 28.9601 84.6712 30.0748 85.6326 30.7519V30.7556ZM72.5403 37.1521C72.824 37.0136 73.0614 36.7957 73.2237 36.5249C73.386 36.2541 73.4662 35.942 73.4546 35.6265C73.443 35.311 73.34 35.0056 73.1582 34.7475C72.9765 34.4893 72.7236 34.2895 72.4305 34.1723C72.1374 34.055 71.8165 34.0253 71.5068 34.0869C71.1971 34.1485 70.912 34.2986 70.686 34.519C70.46 34.7395 70.3028 35.0208 70.2336 35.3288C70.1643 35.6369 70.186 35.9584 70.2959 36.2544C70.3842 36.462 70.5129 36.6501 70.6745 36.8077C70.836 36.9653 71.0272 37.0892 71.237 37.1724C71.4468 37.2555 71.671 37.2962 71.8967 37.2921C72.1223 37.288 72.3449 37.2391 72.5515 37.1484L72.5403 37.1521ZM67.7822 33.2918C68.7884 32.7082 69.2149 31.5598 68.7286 30.7107C68.2423 29.8616 67.0303 29.6633 66.0203 30.2431C65.0104 30.8229 64.5914 31.9788 65.0777 32.8242C65.564 33.6696 66.7722 33.8716 67.7822 33.2918ZM85.4343 35.3342C86.0029 34.6796 85.8495 33.6247 85.1051 32.9813C84.3608 32.3379 83.2834 32.3491 82.7223 33.015C82.4836 33.3809 82.3862 33.8213 82.4483 34.2538C82.5104 34.6863 82.7278 35.0815 83.0599 35.3655C83.392 35.6495 83.8161 35.8029 84.253 35.7972C84.6899 35.7914 85.1098 35.6268 85.4343 35.3342ZM55.8458 27.8753C56.8483 26.9888 57.0989 25.6309 56.4069 24.8491C55.7149 24.0673 54.3421 24.1534 53.3358 25.0399C52.3296 25.9264 52.0827 27.2843 52.771 28.0661C53.4593 28.8479 54.8433 28.7618 55.8458 27.8753ZM41.9081 22.7731C42.443 23.379 43.756 23.1022 44.8333 22.1484C45.9106 21.1945 46.3558 19.9264 45.8134 19.3204C45.271 18.7145 43.9655 18.9875 42.8807 19.9414C41.7959 20.8953 41.3583 22.1633 41.9081 22.7731ZM41.9493 16.788C41.5079 16.2456 40.1874 16.5785 39.0016 17.5362C37.8159 18.4938 37.2099 19.7132 37.6475 20.2556C38.0852 20.798 39.4094 20.4651 40.5952 19.5075C41.781 18.5499 42.3869 17.3267 41.9493 16.788ZM49.5503 25.081C50.6201 24.1309 51.0204 22.8367 50.4443 22.1895C49.8682 21.5424 48.5403 21.7818 47.4705 22.7244C46.4007 23.6671 45.9967 24.9688 46.5727 25.616C47.1488 26.2631 48.4655 26.0199 49.5503 25.081ZM61.8495 30.318C62.9717 29.5698 63.4206 28.3055 62.867 27.4601C62.3134 26.6147 60.9555 26.5062 59.8408 27.2394C58.7261 27.9726 58.2697 29.2481 58.8233 30.0935C59.377 30.9389 60.7348 31.0474 61.8495 30.2992V30.318Z" fill="#D7B496"/>
<path d="M59.1899 67.3728C54.9667 69.9651 49.4193 69.2431 46.1201 67.1708C42.9555 65.1883 41.2311 62.3903 40.9991 58.8554C40.9465 58.0899 41.0989 57.3242 41.4405 56.6372C42.4094 54.6359 45.0316 53.293 46.5839 53.0835C46.643 53.071 46.7031 53.0635 46.7635 53.0611C48.3533 55.01 50.6164 56.3155 53.6575 56.7269C54.1546 56.7773 54.6543 56.796 55.1538 56.783C55.2999 56.8516 55.4389 56.9343 55.569 57.0299C57.473 58.3392 58.6475 61.8928 59.074 64.5449C59.3657 66.3703 59.2386 67.2793 59.1899 67.3728ZM86.4293 57.2731C83.5493 57.4699 80.6601 57.4936 77.7772 57.3441C79.8422 58.5572 82.2686 59.0035 84.6301 58.6047C85.3799 58.4178 86.0261 57.9435 86.4293 57.2843V57.2731Z" fill="#EB7373"/>
<path d="M71.6837 42.1197C71.5041 42.3105 71.3096 42.5125 71.145 42.7332C71.1578 42.3853 71.1365 42.037 71.0814 41.6933L71.6837 42.1197ZM75.5441 67.4514C75.4329 67.1674 75.3838 66.863 75.3999 66.5585C75.416 66.254 75.4971 65.9564 75.6376 65.6858C70.9505 64.5187 69.0091 61.3167 68.3957 59.9626C67.2149 57.2403 66.826 54.2401 67.2735 51.3067C64.6962 53.9701 60.4842 56.3042 56.2386 56.7157C58.5091 58.586 59.7697 63.3142 59.9119 66.0673C59.9499 66.516 59.9273 66.9677 59.8445 67.4102C65.0568 68.3527 70.3869 68.4499 75.6301 67.6983C75.6002 67.5935 75.5702 67.5112 75.5441 67.4514ZM46.2959 52.4476C44.9493 50.5137 44.1712 48.0337 43.9318 45.1983C43.4343 39.3815 46.2024 34.1671 48.7199 31.7618C47.8658 31.9052 47.0454 32.2044 46.2997 32.6446C43.0116 34.818 39.5328 41.394 39.5665 49.2943C39.5897 51.5486 40.1297 53.7676 41.145 55.7805C42.3784 54.0578 44.2191 52.8668 46.2959 52.4476Z" fill="#FFFFCC"/>
<path d="M71.3059 44.596L71.0216 45.0112C70.0534 46.4836 69.3437 48.1105 68.9231 49.8217C68.6205 51.0451 68.4759 52.3022 68.4929 53.5623C71.3545 54.6471 78.9293 56.48 85.7523 55.7095C89.0104 55.2681 90.3383 54.2544 92.8146 51.2469C92.5745 49.5255 91.9865 47.8709 91.0864 46.384C90.2652 45.0299 89.3117 43.7606 88.2398 42.5948C86.175 40.4701 83.5079 39.1683 79.1313 39.6284C78.978 39.6584 78.8021 39.692 78.6114 39.7182C76.4314 39.9778 74.4167 41.0103 72.9331 42.6284C72.3391 43.2399 71.7949 43.8978 71.3059 44.596ZM83.4443 40.2195C84.1625 40.1185 84.6675 40.3766 85.5016 40.8479C86.3358 41.3192 86.867 42.1983 86.7772 42.6733C86.7631 42.7512 86.722 42.8217 86.6611 42.8723C86.6003 42.923 86.5235 42.9505 86.4443 42.9501H86.3957H86.3209C86.0403 42.9239 85.7485 42.8641 84.7984 42.3479C83.6762 41.7307 83.1525 40.99 83.1525 40.5673C83.1498 40.4836 83.1781 40.4018 83.2319 40.3376C83.2858 40.2735 83.3614 40.2314 83.4443 40.2195ZM74.4667 42.3703C74.7697 41.783 75.761 41.2706 76.3371 41.1621C76.396 41.1475 76.4576 41.1475 76.5166 41.1621C76.6265 41.2085 76.7245 41.279 76.8035 41.3683C76.8825 41.4577 76.9404 41.5636 76.973 41.6783C77.0546 41.9129 77.0888 42.1614 77.0733 42.4093C77.0579 42.6572 76.9933 42.8995 76.8832 43.1222C76.6849 43.4963 75.645 44.4801 75.0952 44.4801C75.049 44.4797 75.0034 44.4708 74.9605 44.4539C74.8318 44.3829 74.7188 44.2867 74.6281 44.171C74.5375 44.0553 74.4712 43.9225 74.4331 43.7805C74.271 43.3233 74.2776 42.8231 74.4518 42.3703H74.4667ZM68.5453 54.5125C73.9094 58.6983 78.8246 60.8379 83.0253 60.8379C84.3133 60.8466 85.5926 60.6262 86.8034 60.187C90.8919 58.2718 92.3096 55.889 92.9867 53.6671C92.9601 54.871 92.7469 56.0635 92.3545 57.202C91.2847 60.2805 88.958 62.4389 85.4568 63.6583C84.4894 63.9242 83.5078 64.1353 82.5166 64.2905C80.8832 64.2458 79.2486 64.2908 77.6201 64.4252C72.3271 63.7743 70.2735 60.419 69.6637 59.091C69.0228 57.6423 68.6393 56.0929 68.5303 54.5125H68.5453Z" fill="#F0E169"/>
<path d="M106.681 40.2943C107.182 41.5549 107.639 42.8117 108.039 44.0611C108.192 44.5362 108.327 45.0224 108.443 45.5087C108.111 45.2812 107.743 45.1105 107.355 45.0037C107.332 44.9999 107.309 44.9999 107.287 45.0037C107.305 43.4134 107.101 41.8282 106.681 40.2943ZM100.221 27.8603L100.191 27.8155C100.185 27.8004 100.176 27.7865 100.165 27.7743L100.109 27.6883C99.6712 27 99.2635 26.3903 98.8782 25.818C98.5937 25.7842 98.3062 25.7842 98.0216 25.818C98.8564 26.3805 99.5984 27.0695 100.221 27.8603ZM86.1638 65.0873C86.4742 65.2182 86.7884 65.3603 87.1064 65.5287C87.3682 65.6633 87.6263 65.813 87.8807 65.9663C89.8558 65.7793 91.5653 65.6446 92.6949 65.5923C92.766 65.4875 92.8371 65.3828 92.9231 65.2706C94.0902 63.7257 96.5515 61.904 101.527 62.0723C101.791 62.0894 102.048 62.163 102.281 62.2882C102.514 62.4134 102.717 62.5873 102.877 62.798C102.927 62.8447 102.972 62.8961 103.012 62.9514L103.045 63.0037L103.341 62.9439C103.584 62.8915 103.812 62.8466 104.014 62.798C103.289 62.3146 102.744 61.6042 102.465 60.7781C101.369 57.8678 102.091 52.8928 103.098 50.495C99.357 51.4152 95.5004 49.4888 93.2411 47.8766C94.3633 50.6708 94.8458 54.4751 93.6376 57.9501C92.4892 61.2456 89.8969 63.7107 86.1638 65.0873Z" fill="#FFFFCC"/>
<path d="M107.246 45.6733C107.779 45.8399 108.261 46.1399 108.645 46.5449C108.671 46.6833 108.705 46.8254 108.727 46.9638C108.772 47.2556 108.813 47.5436 108.843 47.8317C109.446 53.4015 107.459 58.2868 105.671 61.4252C105.671 61.4252 105.645 61.4626 105.634 61.485C105.447 61.8142 105.26 62.1322 105.058 62.4464L104.904 62.4127C104.834 62.3928 104.761 62.3802 104.687 62.3753C104.312 62.1867 103.979 61.9236 103.709 61.602C103.439 61.2804 103.237 60.9071 103.116 60.505C102.043 57.6621 102.821 52.6795 103.835 50.4875C103.873 50.3913 103.918 50.2976 103.969 50.207C104.403 50.0475 104.822 49.851 105.222 49.6197C106.423 48.7743 107.078 47.4202 107.246 45.6733Z" fill="#EB7373"/>
<path d="M83.3246 71.0948C83.3194 71.139 83.323 71.1839 83.3353 71.2267C83.3476 71.2695 83.3682 71.3095 83.3961 71.3443C83.4239 71.3791 83.4584 71.408 83.4975 71.4294C83.5366 71.4508 83.5795 71.4642 83.6238 71.4688C83.8797 71.4965 84.137 71.509 84.3944 71.5062C86.0337 71.466 87.6679 71.3047 89.2834 71.0237C89.4355 71.5311 89.5272 72.0547 89.5565 72.5835C89.5654 72.8142 89.5402 73.0448 89.4817 73.2681L89.4518 73.3055C89.415 73.344 89.3812 73.3853 89.3508 73.4289L89.3059 73.5075C89.2924 73.5274 89.2811 73.5487 89.2722 73.5711C88.8981 74.3529 87.8657 75.4751 86.6126 76.4214C86.3067 76.651 85.9883 76.8633 85.6587 77.0574L85.5914 77.0873C85.0921 77.291 84.5766 77.4524 84.0503 77.5698C83.4779 77.7232 82.8794 77.8766 82.4268 77.985L81.7348 78.1496C81.6554 78.171 81.5738 78.1835 81.4917 78.187H81.4505C81.3796 78.1189 81.3247 78.0358 81.2897 77.9439C80.9156 77.0723 80.3321 75.0337 79.9356 73.6833C79.7897 73.1858 79.6625 72.7519 79.5615 72.4526C79.337 71.7045 78.7236 70.0885 78.1625 68.611C78.0016 68.1883 77.8445 67.7843 77.6986 67.4214C77.6986 67.3766 77.6687 67.3354 77.6612 67.3204L77.5378 67.0025L77.4181 66.692C77.4181 66.6621 77.4405 66.591 77.4854 66.5312C77.4997 66.512 77.516 66.4945 77.5341 66.4788C79.4651 66.2976 81.4072 66.265 83.3433 66.3815C83.6173 66.4066 83.8888 66.4542 84.155 66.5237C84.8518 66.7077 85.5247 66.9726 86.16 67.313C86.8959 67.6922 87.5926 68.1433 88.2398 68.6596C88.6131 69.1811 88.8963 69.7614 89.0777 70.3766C87.4206 70.6571 84.761 70.9227 83.6912 70.7993C83.6036 70.7908 83.5161 70.817 83.4476 70.8723C83.3791 70.9275 83.3349 71.0074 83.3246 71.0948ZM93.6226 72.5686C94.3707 71.5586 93.5627 69.6359 92.7473 68.1995C92.6975 68.1611 92.6419 68.1308 92.5827 68.1097C91.9393 67.8959 91.2495 67.8635 90.5889 68.0162C90.494 68.0406 90.4014 68.0732 90.3121 68.1135C90.666 68.7809 90.9505 69.4828 91.1612 70.2082C91.4084 70.9801 91.5518 71.7814 91.5877 72.591C91.5957 72.7505 91.5957 72.9103 91.5877 73.0698C93.1139 73.096 93.5178 72.6995 93.6226 72.5686ZM99.963 74.5249C100.588 74.6783 101.221 74.7945 101.859 74.8728C102.663 74.9707 103.471 75.0269 104.28 75.0411C104.465 75.0534 104.651 75.0534 104.837 75.0411V74.9401C104.826 74.203 104.734 73.4693 104.564 72.7519C104.508 72.5873 104.19 71.9663 102.806 69.6209L102.537 69.1683C102.443 69.011 102.394 68.8313 102.394 68.6484C102.394 68.4239 102.376 68.1322 102.342 67.7918C102.192 66.2057 101.803 64.7207 101.403 64.1671C101.391 64.1543 101.38 64.1405 101.369 64.1259L101.343 64.096C98.1375 64.0137 95.7847 64.8441 94.539 66.4975C94.4443 66.6176 94.3556 66.7425 94.2735 66.8716C94.364 66.9731 94.4442 67.0834 94.5129 67.2007C94.9529 67.9543 95.3163 68.75 95.5976 69.5761C96.3528 69.5885 97.1065 69.5081 97.842 69.3367C97.9263 69.3174 98.0147 69.331 98.0893 69.3745C98.1639 69.418 98.2192 69.4883 98.2439 69.5711C98.2687 69.6538 98.261 69.7429 98.2225 69.8202C98.184 69.8976 98.1175 69.9574 98.0365 69.9875C97.302 70.1664 96.5482 70.2543 95.7922 70.2494C96.0243 71.0915 96.0074 71.9828 95.7435 72.8155C96.6951 73.3868 97.7076 73.8498 98.7622 74.1958C99.1849 74.3192 99.5927 74.4389 99.963 74.5175V74.5249Z" fill="#19C8B9"/>
<path d="M87.7947 95.914C84.9032 92.596 81.9331 89.2481 79.2622 86.2593C81.3046 83.5287 82.9767 81.0224 83.8782 79.6496L84.5777 79.5337L85.67 79.1334L87.5029 78.3179C88.6251 79.4401 91.3071 82.1372 94.5054 85.5673C92.5741 89.2051 90.3287 92.6671 87.7947 95.914ZM77.5004 86.3304C75.1026 83.6484 73.0116 81.318 71.4892 79.6571C71.4705 79.818 71.4443 79.9713 71.4293 80.1396C71.0892 82.5174 70.9142 84.916 70.9056 87.3179C70.7785 90.0337 70.7672 92.2444 70.8009 93.9726C73.239 91.6124 75.4796 89.0564 77.5004 86.3304Z" fill="#D9935C"/>
<path d="M111.02 84.5087C110.396 83.6858 109.756 82.904 109.116 82.1746C109.423 80.7007 109.618 79.4252 109.745 78.4077C110.414 80.3827 110.842 82.4312 111.02 84.5087ZM107.654 82.5748C105.77 80.4844 103.723 78.548 101.53 76.7843L99.9443 76.5898L99.8395 76.5598C98.853 79.5813 97.6194 82.5164 96.1513 85.3354C98.5752 87.9539 101.231 90.9202 103.696 93.894C105.443 90.2844 106.771 86.4866 107.654 82.5748Z" fill="#D9935C"/>
<path d="M87.8321 98.0312C90.4954 101.102 93.0391 104.087 95.1413 106.653C93.1233 108.908 90.9362 111.005 88.5989 112.926C87.8508 112.893 87.1027 112.84 86.4256 112.751L86.3957 112.769C85.9543 112.713 85.5465 112.65 85.1575 112.582C83.377 110.555 81.5366 108.445 79.756 106.399C82.6728 103.836 85.3739 101.037 87.8321 98.0312ZM71.0478 98.4052C71.0478 98.5287 71.074 98.5923 71.074 98.5923C71.6792 102.109 73.3491 105.355 75.8583 107.892C76.5391 107.357 77.2049 106.822 77.8483 106.279C75.2411 103.242 72.8358 100.466 71.0478 98.3791V98.4052Z" fill="#D9935C"/>
<path d="M103.962 96.3628C105.563 98.3566 107.018 100.309 108.226 102.127C106.383 105.718 103.506 108.674 99.9667 110.615C99.17 109.515 98.1301 108.183 96.9181 106.683C99.6413 103.515 102.004 100.053 103.962 96.3628Z" fill="#D9935C"/>
<path d="M67.8159 123.958L68.6164 124.305L68.3807 124.608L68.0066 124.571C67.5091 124.507 66.9929 124.425 66.4767 124.328L66.271 124.291C65.7772 124.193 65.276 124.081 64.7747 123.958L64.5316 123.898C64.0341 123.771 63.5366 123.632 63.0353 123.479L62.8558 123.423C62.3508 123.262 61.8533 123.094 61.382 122.91C61.382 122.802 61.4044 122.697 61.4156 122.603L61.4418 122.383C61.4755 122.08 61.5017 121.882 61.5204 121.736C61.5391 121.59 61.554 121.474 61.5615 121.362C63.2074 121.964 66.0765 123.206 67.8159 123.958ZM64.4493 135.849C60.9069 135.748 58.6326 135.079 57.4543 134.607C57.1427 135.15 56.7658 135.652 56.3321 136.103C55.8421 136.582 54.6189 137.33 52.67 138.509C51.4992 139.212 50.2909 139.941 49.5652 140.454C49.4111 140.569 49.2649 140.693 49.1276 140.828C49.4794 140.853 49.8224 140.949 50.1356 141.111C50.4489 141.273 50.7257 141.498 50.9493 141.771C51.554 142.596 51.99 143.533 52.2323 144.527C52.8047 144.295 53.4069 144.045 54.0578 143.761C54.1445 143.726 54.2349 143.703 54.3271 143.69C54.473 141.819 55.1351 140.155 55.6139 139.623C55.9879 139.231 56.1002 139.84 55.9879 140.319C55.9131 140.652 55.6775 141.845 55.5091 143.02C55.4667 143.531 55.4768 144.045 55.5391 144.554C55.5923 144.712 55.6561 144.867 55.7298 145.017L55.7897 145.092C56.2647 143.779 57.0652 142.1 59.4705 142.1H59.5191C59.9977 142.097 60.4728 142.181 60.9219 142.347C62.4181 142.904 63.1026 144.314 63.4468 145.463C64.8009 143.734 64.4493 141.251 64.4306 140.974C64.4119 140.697 64.4755 140.6 64.5839 140.645C64.6775 140.603 64.8046 140.645 64.9206 140.858C65.1151 141.322 65.4892 141.557 65.4032 143.776L65.5939 143.903C65.8373 144.022 66.0712 144.159 66.2934 144.314L66.3982 144.382C66.5852 144.501 66.7722 144.628 67.0004 144.756L67.2061 144.872C67.6625 143.177 68.3583 142.328 69.4094 141.763C69.6895 141.603 69.9961 141.494 70.3146 141.441C69.4087 140.177 68.3121 139.06 67.064 138.131C66.4606 137.735 65.8235 137.393 65.16 137.11C64.9183 137.009 64.7175 136.83 64.5905 136.601C64.4635 136.372 64.4177 136.107 64.4605 135.849H64.4493ZM64.3184 125.237H64.2884C63.2516 124.976 62.2291 124.661 61.2248 124.294C61.0266 125.843 60.7573 127.713 60.5815 128.675C60.5815 128.742 60.559 128.794 60.5478 128.85C62.0967 129.428 63.6841 129.897 65.2984 130.253H65.3321C65.8734 128.701 66.61 127.224 67.5241 125.858C66.4493 125.706 65.3831 125.498 64.3296 125.237H64.3184ZM58.1912 133.429C59.3134 133.844 61.4156 134.42 64.6775 134.502C64.7364 133.523 64.8525 132.547 65.0253 131.581C63.3413 131.2 61.6863 130.7 60.0727 130.085C59.9268 130.335 59.7697 130.616 59.6014 130.915L59.1338 131.746C58.8047 132.314 58.483 132.887 58.1912 133.429Z" fill="#F0E169"/>
<path d="M87.9144 127.631C86.0411 127.55 84.1976 127.133 82.4717 126.4C82.4455 125.742 82.3445 124.818 82.2622 124.126H82.3071L82.4605 124.092L82.5951 124.062C84.0129 124.564 85.9094 124.9 89.3283 125.252C88.8259 125.994 88.3663 126.765 87.9518 127.56C87.9256 127.579 87.9256 127.608 87.9144 127.631ZM81.0465 130.141C83.2568 130.827 85.5763 131.092 87.8844 130.923C87.847 130.347 87.8283 129.662 87.8321 128.97C85.8742 128.887 83.9455 128.465 82.1313 127.724C81.8657 128.323 81.4767 129.209 81.0465 130.141ZM88.2211 132.793C88.2211 132.767 88.1874 132.741 88.1725 132.711C88.1653 132.69 88.1566 132.67 88.1463 132.651C88.1007 132.529 88.0644 132.404 88.0378 132.277C87.5328 132.322 87.0316 132.348 86.5415 132.348C84.4743 132.339 82.4209 132.009 80.4555 131.368C80.1181 132.066 79.7435 132.745 79.3333 133.403L78.9592 133.971C78.1774 135.094 77.6463 135.879 77.5864 138.004C79.2735 139.534 81.6488 140.39 83.2498 140.97L83.6463 141.116C83.751 140.106 84.1139 138.632 85.2173 137.899C85.9894 137.389 86.917 137.169 87.8358 137.278C87.443 136.773 86.9867 136.249 86.4742 135.707C86.2086 135.464 86.2797 135.138 87.0764 135.281C87.8732 135.423 89.0403 136.35 89.8595 137.585C90.2923 138.234 90.6677 138.92 90.9817 139.635C91.6625 139.743 92.4779 139.867 93.1625 139.945C93.1625 137.517 94.1687 136.53 95.2498 135.939C94.8233 135.718 94.5016 135.565 94.3932 135.512C93.9555 135.281 94.0565 135.03 94.2735 135.019C94.4231 135.019 94.5652 135.019 94.6999 135.019C96.6413 135.161 97.6138 136.055 98.7024 136.986C98.6955 136.235 98.7481 135.485 98.8595 134.742C97.5241 134.517 96.155 134.349 94.7747 134.256H94.7261C94.2286 134.218 93.7535 134.188 93.2971 134.173C92.837 134.173 92.3957 134.155 91.9655 134.173C90.1625 134.173 88.8645 134.177 88.2211 132.793ZM88.7298 122.764C88.0266 122.738 85.0453 122.794 84.4804 123.049C85.0154 123.557 90.1774 123.969 90.1774 123.969L91.4605 122.514C90.5555 122.648 89.644 122.734 88.7298 122.772V122.764Z" fill="#F0E169"/>
<path d="M143.003 62.2556C143.538 59.7718 142.939 57.5387 141.35 56.1284C140.718 55.5495 139.944 55.1477 139.108 54.9638C138.271 54.7798 137.4 54.8203 136.584 55.081C135.406 55.4813 133.374 56.5773 130.801 57.9651C129.357 58.7469 127.715 59.6297 126.065 60.4751C123.72 61.6646 121.782 62.5623 120.136 63.2095C114.308 65.5062 109.917 65.6783 106.363 65.7382C106.166 65.4676 106.011 65.1687 105.903 64.8516C106.09 64.5823 106.277 64.2868 106.502 63.9651C106.793 63.5125 107.085 63.0337 107.369 62.5399L107.403 62.4838C109.348 59.091 111.518 53.7569 110.863 47.611C110.826 47.293 110.785 46.9751 110.736 46.6534C110.57 45.5646 110.32 44.4903 109.988 43.4402C108.034 37.5546 105.328 31.946 101.938 26.7531C101.912 26.7043 101.882 26.658 101.848 26.6147L101.811 26.5586C100.898 25.1297 100.075 23.9402 99.4243 23.0349C101.059 11.7681 96.9106 9.41521 96.0578 9.05611C95.808 8.94909 95.5429 8.88218 95.2722 8.85786C93.7011 6.27307 91.7298 4.87407 90.443 4.74314C89.8408 3.57606 89.0179 2.6222 87.5777 1.12968C86.2385 -0.250622 85.2361 0.00748258 84.7572 0.295513C83.8034 0.85661 83.6163 2.25187 83.9268 3.28803C83.9345 3.31623 83.9445 3.34376 83.9568 3.37033C85.8458 8.15462 86.9493 11.7494 86.6238 14.7082C85.6475 15.2918 82.4156 16.9526 75.1625 18.3329C66.4804 19.9975 58.5914 20.1434 53.4854 18.7407C49.0592 16.3594 45.0637 13.2527 41.665 9.54988L41.6201 9.50125C40.9905 8.82771 40.443 8.08185 39.9892 7.2793C39.241 6.04863 38.3957 4.66085 36.2074 5.4389L36.1101 5.48005C33.7086 6.63217 33.7872 8.99252 34.2585 10.8067C33.6336 10.9099 33.0524 11.1933 32.5864 11.6222C30.9817 12.9913 30.9592 14.6147 31.2473 15.8641C30.8027 15.9426 30.3816 16.1206 30.0156 16.385C29.6496 16.6493 29.3482 16.9929 29.1338 17.3903C28.7966 18.0582 28.6616 18.81 28.7454 19.5534C28.8291 20.2969 29.1279 20.9999 29.6051 21.5761C29.6269 21.6028 29.6506 21.6278 29.6762 21.6509C31.5465 23.394 35.3283 25.6683 41.2086 28.5823C37.842 35.2968 34.4306 44.8167 34.3183 49.9564C34.236 60.707 37.1238 64.7918 39.2336 67.7731C40.1874 69.1234 40.9393 70.1858 41.2797 71.5586C42.3832 76.5823 40.6737 78.6658 36.2074 82.5524C31.5428 86.6147 17.9455 93.3703 13.5503 95.4165C10.9251 96.5804 8.39929 97.9565 5.9979 99.5312C3.34204 101.338 1.82334 103.062 1.34827 104.809C0.974209 106.145 1.1575 107.271 1.84578 108.153C2.73606 109.294 4.34827 109.762 5.98294 109.938C4.86074 111.06 3.6974 112.594 3.60388 114.4C3.52533 115.848 4.12758 117.224 5.34703 118.44C6.57022 119.832 9.46174 120.105 12.6525 119.308C11.8408 120.67 11.4892 121.9 11.564 123.071C11.65 124.455 12.342 125.719 13.6251 126.83C15.0541 128.041 16.8772 128.687 18.7498 128.645C20.8483 128.645 23.175 127.953 25.5241 126.569C26.697 125.855 27.8148 125.055 28.8682 124.175C29.0777 124.006 29.261 123.86 29.4181 123.741C32.4106 121.406 34.4904 119.626 36.6263 117.625C37.8009 116.536 38.9418 115.406 40.5091 113.828C42.3308 112.01 44.8894 109.126 47.5004 106.148C49.2248 109.268 51.8695 112.695 55.3558 116.36L55.1313 116.734C53.5977 119.2 51.2747 122.929 47.3171 124.713C47.0253 124.844 46.7261 124.971 46.4231 125.087C44.6113 125.796 42.731 126.315 40.8121 126.636C39.4554 126.894 38.0784 127.032 36.6974 127.047C36.3597 127.021 36.0221 127.098 35.7289 127.268C35.4358 127.437 35.2009 127.692 35.0553 127.998C34.6513 128.854 34.9692 129.988 35.9006 131.035C38.6276 134.087 42.4505 135.666 47.261 135.733H47.4892C50.2457 135.715 52.9673 135.115 55.4755 133.971C55.3278 134.216 55.1548 134.444 54.9592 134.652C54.5852 135.026 52.9543 135.999 51.645 136.788C50.4443 137.514 49.2024 138.262 48.4206 138.815C47.5537 139.501 46.8315 140.351 46.2959 141.318L46.2735 141.352C46.2639 141.363 46.2551 141.376 46.2473 141.389C45.3869 142.885 44.4967 145.077 44.5864 146.824C44.5981 147.044 44.6805 147.254 44.8214 147.423C44.9623 147.593 45.1541 147.712 45.3682 147.763C45.9347 147.896 46.5145 147.964 47.0964 147.965C48.5178 147.965 50.1151 147.569 52.3333 146.712C52.9019 146.488 53.5341 146.226 54.2036 145.945C54.4238 146.455 54.7119 146.934 55.0602 147.367C56.1824 148.818 58.4904 149.663 58.7523 149.753C58.86 149.793 58.974 149.813 59.0889 149.813C59.1696 149.812 59.25 149.802 59.3283 149.783C61.5727 149.248 62.9493 148.504 63.9854 147.296C64.3502 146.861 64.6804 146.398 64.973 145.911C65.0328 145.945 65.1151 145.99 65.2124 146.054L65.3208 146.125C65.8603 146.486 66.4254 146.807 67.0116 147.086C68.8894 147.923 70.9059 148.405 72.9593 148.507C73.2324 148.525 73.5014 148.433 73.7074 148.253C74.8296 147.258 74.6388 145.197 73.9655 143.589C73.7417 143.084 73.4856 142.594 73.1986 142.122L73.0415 141.86C72.8583 141.561 72.6226 141.202 72.3495 140.806L72.1176 140.48L72.0054 140.323L71.9044 140.188C70.6962 138.557 68.8333 136.474 66.6002 135.426C66.5492 135.404 66.4967 135.385 66.443 135.37C66.3533 133.994 66.435 132.612 66.6862 131.256L66.7124 131.099C67.2548 128.918 69.2672 126.984 70.2323 125.906L70.3483 125.764L70.3707 125.738C70.8412 125.503 71.3369 125.322 71.8483 125.2L72.256 125.233C73.8253 125.321 75.3994 125.264 76.958 125.061C77.8857 124.956 78.978 124.781 80.261 124.53C80.3395 125.203 80.4218 125.981 80.4368 126.49C80.1899 127.081 79.5503 128.562 78.8844 129.954C78.5133 130.755 78.0948 131.533 77.6313 132.284C77.5079 132.471 77.3882 132.658 77.2573 132.823C76.3258 134.177 75.5216 135.348 75.5216 138.434C75.5226 138.702 75.6288 138.958 75.8171 139.148C77.8333 141.183 80.6612 142.208 82.5316 142.889L82.9655 143.046C83.1856 143.128 83.4104 143.197 83.6388 143.252C85.5297 143.672 87.4626 143.872 89.3994 143.85C89.6488 143.85 89.8981 143.85 90.1475 143.85C90.3701 143.837 90.5837 143.758 90.761 143.622C90.8843 143.438 90.9435 143.219 90.9293 142.998C90.9491 142.907 90.9628 142.816 90.9705 142.724C90.9892 142.53 91.0154 142.216 91.0341 141.864C91.7822 141.913 92.7622 141.973 93.4992 142.036L93.8283 142.059C95.5715 142.201 97.6775 142.219 99.2149 142.231H100.389H100.408C100.674 142.231 100.93 142.127 101.12 141.941C101.31 141.755 101.42 141.502 101.426 141.236C101.426 141.187 101.426 141.138 101.426 141.09C101.426 141.041 101.426 141.056 101.426 141.041C101.384 140.624 101.269 140.217 101.085 139.84C102.499 139.792 104.478 139.631 105.2 139.403C105.396 139.341 105.568 139.221 105.695 139.06C105.822 138.898 105.897 138.702 105.911 138.498C106.015 136.792 102.783 133.852 101.515 133.261C101.207 133.137 100.888 133.042 100.561 132.976C100.266 132.913 99.9742 132.857 99.6675 132.801C98.0872 132.518 96.4925 132.323 94.8907 132.217H94.8607C93.948 132.146 92.9717 132.101 91.8907 132.086C91.2545 132.155 90.6112 132.063 90.0203 131.817C90.0203 131.787 90.0203 131.742 90.0016 131.697C89.9996 131.68 89.9996 131.662 90.0016 131.645C90.0016 131.574 89.9792 131.488 89.9717 131.375C89.8815 130.367 89.8515 129.354 89.8819 128.342V128.222C90.14 127.739 90.8283 126.61 91.7336 125.297C92.4795 124.189 93.2915 123.127 94.165 122.117L94.2211 122.084C98.8782 118.968 105.795 112.231 109.98 103.496C110.665 102.078 111.262 100.619 111.768 99.1272C112.174 97.9371 112.515 96.7258 112.79 95.4988C115.147 96.1286 117.58 96.4344 120.02 96.4077C122.318 96.3976 124.61 96.1924 126.873 95.7943C128.598 95.5063 130.296 95.0759 131.949 94.5075C135.585 93.1609 138.058 90.217 137.96 87.3367C137.882 85.2344 137.306 84.0524 136.311 83.2556C137.406 82.6424 138.435 81.9179 139.382 81.0935C142.042 78.5536 142.913 74.9252 141.608 71.8205C141.413 71.2834 141.11 70.7916 140.719 70.3749C140.328 69.9582 139.857 69.6253 139.333 69.3965C139.155 69.3252 138.971 69.2677 138.783 69.2244C141.144 67.0586 142.427 64.9002 143.003 62.2556ZM34.2099 116.173C33.2186 116.978 31.9056 117.958 30.1662 119.166C26.6687 121.597 22.1538 123.112 19.0453 120.685C15.9368 118.257 18.3682 113.136 21.4617 110.48C17.4405 113.345 12.1101 114.299 10.1164 112.724C9.04653 111.872 8.69491 110.761 9.59266 109.137C10.367 107.727 12.0727 105.939 15.0503 103.597C14.9231 103.646 14.7922 103.695 14.6762 103.739C11.3882 104.884 7.3782 105.643 6.22982 104.113C5.23481 102.801 6.01286 101.536 6.50663 100.986C6.59867 100.892 6.70021 100.808 6.80962 100.736C8.12259 99.7893 12.5852 97.5075 12.8957 97.3504C10.8233 99.0786 10.6887 99.7481 11.0964 101.185C11.6986 102.12 12.458 102.714 14.5079 102.438C15.9017 102.198 17.2686 101.822 18.5889 101.315C14.276 105.531 14.1974 107.435 14.953 108.617C15.8732 110.054 18.5814 109.695 20.9979 108.965C22.286 108.576 23.5376 108.076 24.7386 107.469C23.2423 110.061 21.4206 114.101 23.5939 116.517C25.7672 118.934 32.246 115.193 37.3034 113.031C37.2697 113.05 37.1874 113.776 34.2099 116.173ZM109.745 78.3928C110.414 80.3678 110.842 82.4162 111.02 84.4938C110.396 83.6708 109.756 82.889 109.116 82.1596C109.438 80.7008 109.618 79.4252 109.745 78.4077V78.3928ZM106.359 76.4813C106.492 76.3516 106.601 76.1997 106.681 76.0324V73.1596C107.432 73.9626 108.078 74.8575 108.604 75.8229C108.522 77.5313 108.317 79.2315 107.99 80.9102C106.722 79.5571 105.383 78.2711 103.98 77.0574H104.231H104.456C105.136 77.0574 105.866 76.9751 106.359 76.4963V76.4813ZM88.5989 112.911C87.8508 112.878 87.1026 112.825 86.4256 112.736L86.3957 112.754C85.9543 112.698 85.5465 112.635 85.1575 112.567C83.377 110.54 81.5366 108.43 79.756 106.384C82.6727 103.821 85.3738 101.022 87.8321 98.0162C90.4954 101.087 93.039 104.072 95.1413 106.638C93.1239 108.898 90.9367 111 88.5989 112.926V112.911ZM59.852 67.3878C59.9348 66.9452 59.9574 66.4935 59.9193 66.0449C59.7772 63.2993 58.5166 58.5636 56.246 56.6933C60.4917 56.2818 64.7036 53.9476 67.2809 51.2843C66.8334 54.2177 67.2224 57.2178 68.4031 59.9402C69.0166 61.2943 70.958 64.4963 75.645 65.6633C75.5045 65.934 75.4235 66.2315 75.4074 66.536C75.3912 66.8405 75.4404 67.145 75.5515 67.4289C75.5777 67.4888 75.6076 67.5711 75.645 67.6683C70.4006 68.4282 65.068 68.3386 59.852 67.4028V67.3878ZM60.0615 130.1C61.675 130.715 63.33 131.215 65.0141 131.596C64.8413 132.562 64.7252 133.538 64.6662 134.517C61.4044 134.435 59.2909 133.859 58.1799 133.444C58.4904 132.901 58.8121 132.322 59.1226 131.776L59.5902 130.945C59.751 130.631 59.9081 130.35 60.0615 130.1ZM83.0179 60.8379C84.3058 60.8466 85.5851 60.6262 86.7959 60.187C90.8844 58.2718 92.3021 55.889 92.9792 53.6671C92.9526 54.871 92.7394 56.0635 92.347 57.202C91.2772 60.2806 88.9505 62.4389 85.4493 63.6584C84.4819 63.9242 83.5003 64.1353 82.5091 64.2905C80.8757 64.2458 79.2411 64.2908 77.6126 64.4252C72.3196 63.7743 70.266 60.419 69.6562 59.091C69.0192 57.6416 68.6395 56.0922 68.5341 54.5125C73.9019 58.6983 78.8096 60.8379 83.0104 60.8379H83.0179ZM77.7809 57.3554C80.6638 57.5048 83.553 57.4811 86.4331 57.2843C86.0321 57.9478 85.3855 58.4263 84.6338 58.616C82.2711 59.0157 79.8432 58.5693 77.7772 57.3554H77.7809ZM93.2597 47.8392C95.5041 49.4589 99.3645 51.3853 103.116 50.4576C102.106 52.8554 101.388 57.8304 102.484 60.7407C102.763 61.5668 103.307 62.2772 104.033 62.7606C103.831 62.8092 103.603 62.8541 103.359 62.9065L103.064 62.9663L103.03 62.914C102.99 62.8587 102.945 62.8073 102.896 62.7606C102.736 62.5499 102.532 62.376 102.299 62.2508C102.066 62.1256 101.809 62.052 101.545 62.0349C96.5553 61.8666 94.0939 63.6883 92.9418 65.2332C92.8558 65.3454 92.7847 65.4501 92.7136 65.5549C91.5914 65.6185 89.8745 65.7531 87.8994 65.9289C87.645 65.7756 87.3869 65.6259 87.1251 65.4913C86.8071 65.3229 86.4929 65.1808 86.1824 65.0499C89.9231 63.692 92.5079 61.2269 93.6637 57.894C94.8495 54.4377 94.3707 50.6334 93.256 47.8392H93.2597ZM99.9667 74.5175C99.5927 74.4314 99.1887 74.3192 98.766 74.1845C97.7114 73.8385 96.6988 73.3756 95.7473 72.8042C96.0112 71.9716 96.0281 71.0802 95.7959 70.2382C96.5519 70.2431 97.3057 70.1552 98.0403 69.9763C98.1213 69.9462 98.1877 69.8864 98.2262 69.809C98.2648 69.7317 98.2724 69.6426 98.2477 69.5598C98.2229 69.4771 98.1676 69.4068 98.093 69.3633C98.0184 69.3197 97.93 69.3062 97.8458 69.3254C97.1103 69.4969 96.3565 69.5773 95.6014 69.5648C95.3205 68.7393 94.9584 67.9436 94.5203 67.1895C94.4516 67.0721 94.3715 66.9619 94.2809 66.8604C94.3631 66.7313 94.4518 66.6064 94.5465 66.4863C95.7922 64.8329 98.145 64.0025 101.351 64.0848L101.377 64.1147C101.387 64.1293 101.398 64.1431 101.411 64.1559C101.811 64.7095 102.2 66.1945 102.35 67.7806C102.383 68.121 102.402 68.4127 102.402 68.6372C102.401 68.8201 102.451 68.9998 102.544 69.1571L102.813 69.6097C104.216 71.9551 104.515 72.5761 104.571 72.7407C104.741 73.458 104.833 74.1918 104.845 74.9289V75.0299C104.659 75.0422 104.473 75.0422 104.287 75.0299C103.478 75.0157 102.67 74.9595 101.867 74.8616C101.226 74.7848 100.59 74.6699 99.963 74.5175H99.9667ZM70.9094 87.318C70.9179 84.916 71.0929 82.5175 71.4331 80.1397C71.4331 79.9713 71.4742 79.818 71.4929 79.6571C72.9892 81.318 75.1064 83.6484 77.5041 86.3304C75.4834 89.0565 73.2427 91.6124 70.8046 93.9726C70.7672 92.2444 70.7785 90.0337 70.9094 87.318ZM71.7735 77.9476C72.1602 76.0521 72.9054 74.248 73.9692 72.6322C74.0403 72.5274 74.1114 72.4227 74.1824 72.3254C74.2535 72.2282 74.2535 72.2244 74.2872 72.1758C74.3994 72.0224 74.5154 71.8766 74.6276 71.7382C75.1595 71.0511 75.7897 70.4461 76.4979 69.9426C76.9019 71.0087 77.4368 72.4377 77.6201 73.0436C77.7099 73.3392 77.8371 73.7619 77.9942 74.2519C78.4243 75.7257 79.0154 77.7456 79.438 78.7593C79.5656 79.088 79.7667 79.3829 80.0261 79.6216C80.2855 79.8602 80.5962 80.0362 80.9343 80.1359L82.0565 79.9489C81.1475 81.3105 79.8495 83.1958 78.342 85.2232C75.6001 82.1708 73.2585 79.586 71.7697 77.9476H71.7735ZM83.6276 71.4688C83.8835 71.4965 84.1408 71.509 84.3981 71.5062C86.0375 71.466 87.6716 71.3047 89.2872 71.0237C89.4392 71.5311 89.5309 72.0547 89.5602 72.5835C89.5692 72.8142 89.544 73.0448 89.4854 73.2681L89.4555 73.3055C89.4187 73.344 89.385 73.3853 89.3545 73.4289L89.3096 73.5075C89.2962 73.5274 89.2849 73.5487 89.276 73.5711C88.9019 74.3529 87.8695 75.4751 86.6163 76.4214C86.3105 76.651 85.992 76.8633 85.6625 77.0574L85.5952 77.0873C85.0959 77.291 84.5803 77.4524 84.054 77.5698C83.4817 77.7232 82.8832 77.8766 82.4306 77.985L81.7386 78.1496C81.6591 78.171 81.5776 78.1835 81.4954 78.187H81.4543C81.3833 78.1189 81.3284 78.0358 81.2934 77.9439C80.9193 77.0723 80.3358 75.0337 79.9393 73.6833C79.7934 73.1858 79.6662 72.7519 79.5652 72.4526C79.3408 71.7045 78.7273 70.0885 78.1662 68.611C78.0054 68.1883 77.8483 67.7843 77.7024 67.4214C77.7024 67.3766 77.6725 67.3354 77.665 67.3205L77.5415 67.0025L77.4218 66.692C77.4218 66.6621 77.4443 66.591 77.4892 66.5312C77.5035 66.512 77.5198 66.4945 77.5378 66.4788C79.4689 66.2976 81.411 66.265 83.347 66.3815C83.621 66.4066 83.8925 66.4542 84.1588 66.5237C84.8556 66.7078 85.5285 66.9726 86.1637 67.313C86.8997 67.6922 87.5963 68.1433 88.2435 68.6596C88.6168 69.1811 88.9 69.7614 89.0814 70.3766C87.4243 70.6571 84.7647 70.9227 83.6949 70.7993C83.6105 70.7983 83.5287 70.8287 83.4654 70.8847C83.4022 70.9406 83.362 71.0181 83.3526 71.102C83.3433 71.186 83.3655 71.2704 83.4149 71.3389C83.4644 71.4073 83.5375 71.455 83.6201 71.4726L83.6276 71.4688ZM83.8819 79.6496L84.5814 79.5337L85.6737 79.1334L87.5066 78.318C88.6288 79.4401 91.3109 82.1372 94.5091 85.5673C92.5711 89.2085 90.3181 92.6731 87.776 95.9214C84.8844 92.6035 81.9144 89.2556 79.2435 86.2668C81.3046 83.5287 82.9767 81.0299 83.8782 79.6496H83.8819ZM88.5914 77.4726C88.5914 77.4501 88.6101 77.4352 88.5914 77.4314C89.4467 76.7728 90.1809 75.9703 90.761 75.0599C91.064 75.0599 91.3558 75.0935 91.6288 75.0935C92.8782 75.0935 93.8321 74.8728 94.5241 74.4314C95.5695 75.0765 96.682 75.6058 97.842 76.01L98.5341 76.2007C97.6228 78.9784 96.4973 81.681 95.1675 84.2843C92.2311 81.1234 89.7323 78.6172 88.5877 77.4726H88.5914ZM91.165 70.2007C90.9543 69.4753 90.6697 68.7734 90.3159 68.106C90.4052 68.0657 90.4978 68.0332 90.5927 68.0087C91.2532 67.8561 91.9431 67.8884 92.5864 68.1022C92.6457 68.1233 92.7012 68.1536 92.751 68.192C93.5665 69.6284 94.3857 71.5586 93.6263 72.5611C93.5216 72.6995 93.1176 73.096 91.5727 73.0623C91.5807 72.9028 91.5807 72.743 91.5727 72.5835C91.5417 71.7746 91.4033 70.9733 91.1612 70.2007H91.165ZM70.8607 95.7307C73.4006 93.5723 76.0976 90.404 78.4318 87.3666C81.1026 90.3591 84.0652 93.6995 86.9343 96.995C84.4869 100.009 81.7903 102.812 78.8732 105.374C75.6226 101.633 72.6862 98.2182 70.8795 96.1085C70.8682 95.985 70.8607 95.8653 70.857 95.7307H70.8607ZM88.6999 96.9539C91.2566 93.7063 93.527 90.2432 95.4854 86.6035C97.9356 89.2556 100.599 92.2519 103.038 95.207C101.113 98.9276 98.7688 102.415 96.0503 105.602C93.9144 103.021 91.3632 100.025 88.6962 96.9539H88.6999ZM96.155 85.3354C97.6232 82.5164 98.8568 79.5813 99.8433 76.5599L99.948 76.5898L101.534 76.7843C103.726 78.548 105.774 80.4844 107.658 82.5748C106.773 86.4855 105.444 90.2821 103.696 93.8903C101.231 90.9202 98.5902 87.9501 96.1513 85.3354H96.155ZM108.727 46.9638C108.772 47.2556 108.813 47.5436 108.843 47.8317C109.446 53.4015 107.459 58.2868 105.671 61.4252C105.671 61.4252 105.645 61.4626 105.634 61.485C105.447 61.8142 105.26 62.1322 105.058 62.4464L104.904 62.4127C104.834 62.3928 104.761 62.3802 104.687 62.3753C104.312 62.1867 103.979 61.9236 103.709 61.602C103.439 61.2804 103.237 60.9071 103.116 60.505C102.043 57.6621 102.821 52.6796 103.835 50.4875C103.873 50.3913 103.918 50.2976 103.969 50.207C104.403 50.0475 104.822 49.851 105.222 49.6197C106.423 48.7743 107.093 47.4202 107.246 45.6733C107.779 45.8399 108.261 46.1399 108.645 46.5449C108.69 46.6833 108.69 46.8254 108.727 46.9638ZM108.039 44.0611C108.192 44.5362 108.327 45.0224 108.443 45.5087C108.111 45.2812 107.743 45.1105 107.355 45.0037C107.332 44.9999 107.309 44.9999 107.287 45.0037C107.304 43.4184 107.1 41.8384 106.681 40.3092C107.194 41.5549 107.639 42.8117 108.039 44.0611ZM98.8782 25.8292C99.2523 26.3903 99.6712 27 100.109 27.6995L100.165 27.7855C100.176 27.7978 100.185 27.8117 100.191 27.8267L100.221 27.8716C99.5963 27.09 98.8544 26.4099 98.0216 25.8554C98.3051 25.8129 98.5926 25.8041 98.8782 25.8292ZM96.8695 26.1733C98.6687 26.8691 102.17 30.6022 103.932 34.4476C105.873 38.7008 107.586 45.0112 105.222 47.3454C103.113 49.5112 98.6351 49.1746 94.67 46.6683C91.0191 44.3641 89.059 39.8005 88.5802 37.7731C88.64 37.6758 88.6999 37.586 88.7672 37.4813C90.7273 34.4476 93.14 30.4227 93.4617 29.8242C93.7834 29.2257 94.857 27.2843 96.5291 26.3416C96.645 26.2743 96.7572 26.2257 96.8695 26.1845V26.1733ZM93.2336 19.4402C92.1114 18.5536 91.4754 17.4838 91.8046 17.0648C92.1338 16.6459 93.3233 17.0312 94.4455 17.9252C95.5677 18.8192 96.2074 19.8815 95.8745 20.3005C95.5415 20.7195 94.3595 20.3342 93.2336 19.4514V19.4402ZM96.0765 16.7731C95.8483 17.091 94.7186 16.6796 93.5403 15.8529C92.362 15.0262 91.5952 14.0873 91.8271 13.7618C92.059 13.4364 93.1849 13.8554 94.3632 14.682C95.5415 15.5087 96.3084 16.4589 96.0765 16.7731ZM91.5278 10.8479C91.6962 10.6085 92.8071 11.106 94.0116 11.9701C95.2161 12.8342 96.0503 13.702 95.8819 13.9451C95.7136 14.1883 94.6026 13.687 93.3981 12.8229C92.1937 11.9589 91.3595 11.0873 91.5278 10.8479ZM90.1475 20.5474C90.559 20.02 91.7635 20.2781 92.8296 21.1234C93.8957 21.9688 94.4119 23.0873 93.9929 23.6072C93.574 24.1272 92.3732 23.8803 91.3109 23.0312C90.2485 22.182 89.7286 21.0711 90.1475 20.5436V20.5474ZM87.3682 24.0711C87.8321 23.409 89.1114 23.51 90.2186 24.2955C91.3258 25.081 91.8533 26.2519 91.3857 26.914C90.9181 27.5761 89.6388 27.4676 88.5278 26.6858C87.4169 25.904 86.8857 24.7294 87.3682 24.0711ZM84.7909 28.283C85.2772 27.591 86.448 27.591 87.4094 28.283C88.3707 28.9751 88.7523 30.0711 88.2697 30.7556C87.7872 31.4402 86.6126 31.4514 85.6513 30.7556C84.6899 30.0599 84.2859 28.9638 84.7722 28.283H84.7909ZM82.741 33.015C83.3021 32.3491 84.372 32.3379 85.1238 32.9813C85.8757 33.6247 86.0216 34.6796 85.453 35.3342C85.1285 35.6268 84.7086 35.7914 84.2717 35.7972C83.8348 35.8029 83.4107 35.6495 83.0786 35.3655C82.7465 35.0815 82.5291 34.6863 82.467 34.2538C82.4049 33.8213 82.5023 33.3809 82.741 33.015ZM78.6263 39.6958C78.8171 39.6696 79.0004 39.6359 79.1463 39.606C83.5228 39.1459 86.1899 40.4476 88.2548 42.5723C89.3266 43.7381 90.2802 45.0075 91.1014 46.3616C92.0014 47.8485 92.5894 49.503 92.8296 51.2244C90.3533 54.217 89.0253 55.2456 85.7672 55.687C78.9443 56.4576 71.3695 54.6247 68.5079 53.5399C68.4909 52.2798 68.6354 51.0226 68.9381 49.7993C69.3587 48.088 70.0684 46.4612 71.0366 44.9888L71.3208 44.5736C71.8089 43.8676 72.3531 43.2021 72.948 42.5835C74.4314 40.9769 76.4398 39.9528 78.6114 39.6958H78.6263ZM71.0964 41.6933L71.6986 42.1197C71.5191 42.3105 71.3246 42.5125 71.16 42.7332C71.1678 42.3848 71.1415 42.0365 71.0814 41.6933H71.0964ZM71.4293 34.1035C71.7347 34.0248 72.0564 34.0364 72.3554 34.1369C72.6543 34.2373 72.9178 34.4222 73.1138 34.6693C73.3098 34.9164 73.4299 35.215 73.4597 35.529C73.4894 35.843 73.4275 36.1588 73.2815 36.4383C73.1354 36.7178 72.9114 36.949 72.6366 37.1038C72.3618 37.2586 72.0481 37.3304 71.7333 37.3106C71.4186 37.2907 71.1163 37.18 70.8632 36.9919C70.6101 36.8038 70.4169 36.5463 70.3071 36.2506C70.1706 35.8191 70.2104 35.351 70.4179 34.9487C70.6254 34.5464 70.9836 34.2425 71.4144 34.1035H71.4293ZM66.0353 30.2431C67.0453 29.6633 68.2572 29.8691 68.7435 30.7107C69.2298 31.5524 68.8034 32.7082 67.7971 33.2918C66.7909 33.8753 65.5752 33.6658 65.0927 32.8242C64.6101 31.9825 65.0104 30.8267 66.0203 30.2431H66.0353ZM59.8558 27.2207C60.978 26.4726 62.3246 26.5885 62.8819 27.4414C63.4393 28.2943 62.9829 29.5661 61.8645 30.2993C60.746 31.0324 59.3957 30.9277 58.8383 30.0748C58.2809 29.2219 58.7223 27.9426 59.8408 27.2207H59.8558ZM53.3283 25.0399C54.3346 24.1534 55.7111 24.0711 56.3994 24.8491C57.0877 25.6272 56.8408 26.9888 55.8383 27.8753C54.8358 28.7619 53.4555 28.8441 52.7635 28.0661C52.0715 27.288 52.3333 25.9264 53.3283 25.0399ZM51.6824 31.6721C55.8832 32.1022 60.443 34.515 62.7847 35.9177C64.2809 36.8192 66.5029 38.409 68.4518 39.8117L68.7248 40.0062V40.0249L68.9717 40.2008C69.7198 47.6372 64.3034 53.1845 57.5553 54.4676C50.6725 55.7731 45.9592 52.2793 45.3645 44.5436C45.2782 42.0839 45.7665 39.6378 46.7904 37.3996C47.8144 35.1614 49.3459 33.1927 51.2635 31.6496C51.4243 31.6609 51.5515 31.6571 51.6899 31.6721H51.6824ZM47.463 22.7244C48.5328 21.7818 49.8682 21.5387 50.4368 22.1895C51.0054 22.8404 50.6126 24.1309 49.5428 25.0811C48.473 26.0312 47.1376 26.2631 46.5503 25.616C45.963 24.9688 46.3969 23.6708 47.4705 22.7244H47.463ZM42.8732 19.9414C43.958 18.9875 45.271 18.7107 45.8059 19.3205C46.3408 19.9302 45.9069 21.1908 44.8258 22.1484C43.7448 23.106 42.4356 23.3791 41.9006 22.7731C41.3657 22.1671 41.8071 20.8953 42.8807 19.9414H42.8732ZM40.6101 19.5075C39.4243 20.4688 38.1039 20.8017 37.6625 20.2556C37.2211 19.7095 37.8346 18.4975 39.0166 17.5362C40.1987 16.5748 41.5228 16.2419 41.9642 16.788C42.4056 17.3342 41.7772 18.5461 40.6101 19.5075ZM46.3146 32.6446C47.0604 32.2044 47.8807 31.9052 48.7348 31.7619C46.2174 34.1671 43.4493 39.3816 43.9468 45.1983C44.1862 48.0337 44.9642 50.5137 46.3109 52.4476C44.2381 52.8694 42.4018 54.0602 41.1712 55.7806C40.1559 53.7676 39.6158 51.5486 39.5927 49.2943C39.5328 41.394 43.0116 34.818 46.2996 32.6446H46.3146ZM46.1351 67.1708C42.9705 65.1883 41.246 62.3903 41.0141 58.8554C40.9615 58.0899 41.1138 57.3242 41.4555 56.6372C42.4243 54.6359 45.0465 53.293 46.5989 53.0835C46.658 53.071 46.7181 53.0635 46.7785 53.0611C48.3682 55.01 50.6313 56.3155 53.6725 56.7269C54.1695 56.7773 54.6693 56.796 55.1687 56.783C55.3148 56.8517 55.4539 56.9343 55.5839 57.0299C57.4879 58.3392 58.6625 61.8928 59.0889 64.5449C59.3844 66.3591 59.2573 67.2681 59.2086 67.3616C54.9667 69.9501 49.4193 69.2357 46.1201 67.1708H46.1351ZM54.4356 132.206C49.9468 133.13 46.9543 132.288 44.1039 130.709C42.5553 129.857 41.6089 129.15 41.276 128.596C42.6972 128.346 44.0995 127.999 45.473 127.556C45.5527 127.792 45.6812 128.009 45.85 128.193C46.0188 128.377 46.2242 128.523 46.453 128.622C50.0816 130.381 54.2488 130.672 58.0864 129.434L57.8134 129.92L57.5066 130.463C57.372 130.56 57.1737 130.702 56.8894 130.882C56.1036 131.389 55.278 131.832 54.4206 132.206H54.4356ZM51.6188 144.812C49.3745 145.676 47.9568 146.005 46.7074 145.915C46.9012 144.922 47.2244 143.959 47.6687 143.05C47.766 142.852 47.867 142.657 47.9755 142.466L47.9979 142.425V142.406C48.1587 142.13 48.3271 141.879 48.4954 141.658C49.1388 141.449 49.7373 141.509 50.4592 142.264C51.0122 143.032 51.4064 143.901 51.6188 144.823V144.812ZM60.8208 147.187C60.2802 147.402 59.7268 147.583 59.1637 147.729C58.4942 147.456 57.2223 146.832 56.6388 146.08L56.4405 145.852C56.8932 144.546 57.3233 142.837 59.5079 142.885C61.7785 142.908 62.2984 144.756 62.6351 146.192C62.0506 146.566 61.4406 146.898 60.8096 147.187H60.8208ZM70.842 142.167C71.0179 142.425 71.1637 142.653 71.2834 142.844L71.4705 143.147C71.7078 143.541 71.9226 143.948 72.1139 144.367C72.4038 145.009 72.5322 145.713 72.4879 146.416C70.9402 146.291 69.4236 145.912 67.9991 145.294C68.3732 143.675 68.8632 142.897 69.7797 142.406C69.9297 142.299 70.0995 142.223 70.2794 142.182C70.4592 142.141 70.6453 142.136 70.8271 142.167H70.842ZM67.1014 138.161C68.3495 139.09 69.4461 140.206 70.352 141.471C70.0335 141.524 69.7269 141.633 69.4468 141.793C68.3957 142.358 67.6999 143.207 67.2435 144.901L67.0378 144.786C66.8208 144.658 66.6226 144.531 66.4356 144.411L66.3308 144.344C66.1086 144.189 65.8747 144.052 65.6313 143.933L65.4405 143.805C65.5266 141.587 65.1525 141.352 64.958 140.888C64.842 140.682 64.7149 140.633 64.6213 140.675C64.5129 140.622 64.4605 140.772 64.468 141.004C64.4755 141.236 64.842 143.768 63.4842 145.493C63.14 144.344 62.4555 142.934 60.9592 142.377C60.5102 142.211 60.0351 142.127 59.5565 142.13H59.5079C57.1026 142.13 56.3021 143.802 55.8271 145.122L55.7672 145.047C55.6935 144.897 55.6297 144.742 55.5765 144.584C55.5142 144.075 55.5041 143.561 55.5465 143.05C55.7149 141.875 55.9505 140.682 56.0253 140.349C56.1338 139.87 56.0253 139.261 55.6513 139.653C55.1725 140.185 54.5104 141.838 54.3645 143.719C54.2723 143.733 54.1819 143.756 54.0952 143.791C53.4443 144.075 52.842 144.325 52.2697 144.557C52.0274 143.563 51.5914 142.626 50.9867 141.801C50.7631 141.528 50.4863 141.303 50.173 141.141C49.8598 140.979 49.5168 140.883 49.165 140.858C49.3022 140.723 49.4485 140.598 49.6026 140.484C50.3283 139.971 51.5366 139.242 52.7074 138.539C54.6563 137.36 55.8794 136.612 56.3695 136.133C56.8032 135.682 57.1801 135.18 57.4917 134.637C58.67 135.108 60.9443 135.759 64.4867 135.879C64.4377 136.144 64.4827 136.418 64.6138 136.653C64.7448 136.889 64.9538 137.071 65.2049 137.17C65.8583 137.445 66.4866 137.777 67.0827 138.161H67.1014ZM65.3395 130.261H65.3059C63.6978 129.901 62.1166 129.43 60.574 128.85C60.574 128.794 60.5964 128.742 60.6076 128.675C60.7834 127.713 61.0528 125.843 61.251 124.294C62.2552 124.661 63.2778 124.976 64.3146 125.237H64.3445C65.3942 125.501 66.4567 125.71 67.5278 125.865C66.6085 127.231 65.8669 128.708 65.3208 130.261H65.3395ZM68.3994 124.608L68.0253 124.571C67.5278 124.507 67.0116 124.425 66.4954 124.328L66.2897 124.291C65.7959 124.193 65.2947 124.081 64.7934 123.958L64.5503 123.898C64.0528 123.771 63.5553 123.632 63.054 123.483L62.8745 123.423C62.3695 123.262 61.872 123.094 61.4006 122.91C61.4006 122.802 61.4231 122.697 61.4343 122.604L61.4605 122.383C61.4942 122.08 61.5203 121.882 61.539 121.736C61.5578 121.59 61.5727 121.474 61.5802 121.362C63.1962 121.953 66.069 123.195 67.8046 123.946L68.6051 124.294L68.3994 124.608ZM71.0927 98.5773C71.0927 98.5773 71.0927 98.5137 71.0665 98.3903C72.8545 100.466 75.2598 103.253 77.867 106.264C77.2236 106.807 76.5578 107.342 75.877 107.877C73.361 105.342 71.6844 102.096 71.074 98.5773H71.0927ZM76.8944 108.801C77.5303 108.302 78.1538 107.797 78.7647 107.286C80.1114 108.834 81.4917 110.42 82.857 111.98C80.6758 111.332 78.6477 110.251 76.8944 108.801ZM82.5054 126.4C82.4792 125.742 82.3782 124.818 82.2959 124.126H82.3408L82.4942 124.092L82.6288 124.062C84.0465 124.564 85.943 124.9 89.362 125.252C88.8596 125.994 88.4 126.765 87.9854 127.56C87.9854 127.586 87.9854 127.616 87.963 127.638C86.0728 127.561 84.2123 127.141 82.4717 126.4H82.5054ZM87.8844 130.923C85.5756 131.089 83.2561 130.82 81.0465 130.13C81.4767 129.198 81.8657 128.312 82.1238 127.713C83.9397 128.459 85.871 128.884 87.8321 128.97C87.8283 129.673 87.847 130.358 87.8844 130.923ZM89.5154 141.673C89.5038 141.81 89.485 141.946 89.4592 142.081C87.7158 142.004 85.9854 141.742 84.2972 141.299C84.372 140.443 84.6712 139.055 85.5839 138.449C85.9468 138.208 86.3549 138.045 86.7833 137.967C87.2116 137.89 87.6513 137.901 88.0752 138C88.198 138.026 88.3173 138.066 88.4306 138.12H88.4605C88.9974 138.934 89.3498 139.856 89.4929 140.82C89.4929 140.925 89.5116 141.03 89.5191 141.138C89.5266 141.247 89.5191 141.31 89.5191 141.397C89.5191 141.483 89.5191 141.595 89.5154 141.685V141.673ZM99.241 140.177C97.7448 140.177 95.6687 140.143 93.978 140.009H93.8508C93.8321 137.764 94.7485 136.949 95.7809 136.433L95.9306 136.362H95.9642C97.056 136.982 98.0206 137.803 98.8071 138.782C99.0863 139.151 99.3223 139.552 99.5104 139.975C99.5343 140.045 99.553 140.116 99.5665 140.188L99.241 140.177ZM99.6151 134.854C99.7909 134.888 99.9705 134.921 100.135 134.959C100.328 134.994 100.517 135.047 100.7 135.116C101.448 135.464 102.754 136.728 103.442 137.633C102.6 137.723 101.474 137.802 100.49 137.813H99.6189C99.5478 137.738 99.4842 137.678 99.4206 137.618C99.4206 137.502 99.4019 137.39 99.4019 137.274C99.3885 136.465 99.4574 135.657 99.6076 134.862L99.6151 134.854ZM91.9692 134.143C92.3994 134.143 92.8408 134.143 93.3009 134.143C93.7572 134.143 94.2323 134.188 94.7298 134.226H94.7785C96.1587 134.319 97.5278 134.488 98.8632 134.712C98.7518 135.455 98.6993 136.205 98.7061 136.956C97.6176 136.025 96.645 135.131 94.7036 134.989C94.569 134.989 94.4268 134.989 94.2772 134.989C94.0602 134.989 93.9593 135.251 94.3969 135.483C94.5129 135.542 94.8271 135.688 95.2535 135.909C94.1725 136.5 93.1662 137.488 93.1662 139.915C92.4817 139.837 91.67 139.713 90.9854 139.605C90.6715 138.89 90.296 138.204 89.8632 137.555C89.044 136.32 87.8844 135.393 87.0802 135.251C86.276 135.108 86.2124 135.434 86.478 135.677C86.9904 136.219 87.4468 136.743 87.8396 137.248C86.9208 137.139 85.9932 137.359 85.2211 137.869C84.0989 138.617 83.7548 140.076 83.65 141.086L83.2535 140.94C81.6525 140.36 79.2772 139.504 77.5902 137.974C77.65 135.849 78.1812 135.075 78.963 133.941L79.3371 133.373C79.7472 132.715 80.1218 132.036 80.4592 131.338C82.4247 131.979 84.478 132.31 86.5453 132.318C87.0316 132.318 87.5328 132.292 88.0415 132.247C88.0682 132.374 88.1044 132.499 88.15 132.621C88.1603 132.64 88.1691 132.66 88.1762 132.681C88.1762 132.711 88.2099 132.737 88.2248 132.763C88.8645 134.177 90.1625 134.173 91.9617 134.151L91.9692 134.143ZM90.1849 123.969C90.1849 123.969 85.0228 123.557 84.4879 123.049C85.0528 122.794 88.0341 122.738 88.7373 122.764C89.6513 122.729 90.5629 122.646 91.468 122.514L90.1849 123.969ZM90.6787 112.938C92.5638 111.304 94.3453 109.555 96.0129 107.701C97.0827 109.025 98.0066 110.207 98.7361 111.202C96.1861 112.3 93.447 112.892 90.6712 112.945L90.6787 112.938ZM99.9742 110.607C99.1775 109.507 98.1376 108.176 96.9256 106.676C99.6487 103.507 102.011 100.046 103.969 96.3554C105.57 98.3491 107.025 100.302 108.234 102.12C106.389 105.714 103.51 108.673 99.9667 110.615L99.9742 110.607ZM110.545 95.8579C110.192 97.5351 109.649 99.1666 108.926 100.721C107.687 98.9177 106.225 96.9801 104.646 95.0461C106.425 91.4675 107.805 87.7042 108.761 83.8242C109.623 84.8587 110.432 85.9361 111.185 87.0524C111.256 90.0041 111.04 92.9557 110.538 95.8653L110.545 95.8579ZM134.242 82.4439C133.376 83.0302 132.461 83.542 131.508 83.9738L131.055 84.1796C132.267 85.1933 134.156 86.3379 133.763 88.3953C133.389 90.318 131.164 93.3292 126.608 94.212C126.303 94.2718 125.989 94.3205 125.665 94.3579C129.2 92.7344 130.326 91.2232 130.576 89.5923C130.827 87.9614 130.547 86.0948 127.958 85.3018C129.047 84.6136 130.096 83.8643 131.1 83.0574C133.943 80.7157 134.777 78.8604 134.56 77.2219C134.437 75.4077 132.196 74.4763 128.467 74.6035C129.832 73.6285 131.056 72.4691 132.103 71.1584C134.059 68.6259 134.467 66.2581 133.973 64.5898C133.472 62.7494 127.988 62.0948 124.356 63.3067C125.134 62.7591 125.945 62.2594 126.783 61.8105C127.348 61.5187 127.906 61.2494 128.497 60.9988C132.323 59.3529 136.352 58.8591 137.5 61.4102C138.761 64.2157 136.812 67.9115 134.579 70.6721C134.355 70.9414 134.13 71.207 133.913 71.4576C133.542 71.8766 133.176 72.2618 132.817 72.6135C134.564 72.2768 137.826 72.6135 138.26 75.0374C138.589 77.0087 137.953 79.9077 134.235 82.4514L134.242 82.4439ZM83.16 40.5486C83.1601 40.4668 83.1896 40.3878 83.2432 40.3259C83.2967 40.2641 83.3708 40.2237 83.4518 40.212C84.17 40.111 84.675 40.3691 85.5091 40.8404C86.3433 41.3117 86.8745 42.1908 86.7847 42.6658C86.7706 42.7438 86.7295 42.8142 86.6686 42.8649C86.6077 42.9155 86.5309 42.943 86.4518 42.9426H86.4031H86.3283C86.0478 42.9165 85.756 42.8566 84.8059 42.3404C83.6687 41.7195 83.1525 40.9788 83.1525 40.5561L83.16 40.5486ZM52.6326 40.2419C52.3745 37.6496 53.9455 34.4364 57.2336 34.4701C59.9418 34.6047 60.1999 37.3167 60.1662 39.0449C60.1326 40.8778 58.7859 44.0536 56.5453 44.0536C53.9231 44.0873 52.8794 42.8491 52.6251 40.2494L52.6326 40.2419ZM74.4256 43.788C74.2646 43.3245 74.2765 42.8183 74.4592 42.3628C74.7622 41.7756 75.7535 41.2631 76.3296 41.1546C76.3885 41.14 76.4502 41.14 76.5091 41.1546C76.619 41.201 76.717 41.2715 76.796 41.3608C76.875 41.4502 76.9329 41.5561 76.9655 41.6708C77.0471 41.9054 77.0813 42.1539 77.0658 42.4018C77.0504 42.6497 76.9858 42.8921 76.8757 43.1147C76.6775 43.4888 75.6376 44.4726 75.0877 44.4726C75.0416 44.4722 74.9959 44.4633 74.953 44.4464C74.8252 44.3787 74.7121 44.2863 74.6203 44.1746C74.5285 44.0629 74.4597 43.934 74.4181 43.7955L74.4256 43.788ZM94.9804 29.8728C96.1026 29.4389 98.0328 30.5948 99.0316 32.3229C100.03 34.0511 101.519 37.8404 100.064 38.409C98.6089 38.9776 96.8021 38.0349 95.3283 35.2668C93.8545 32.4988 93.8358 30.5686 94.973 29.8803L94.9804 29.8728Z" fill="#894D41"/>
</g>
<defs>
<clipPath id="clip0_40_3670">
<rect width="143" height="150" fill="white" transform="translate(0.333313)"/>
</clipPath>
</defs>
</svg>
